<svg width="222" height="229" viewBox="0 0 222 229" fill="none" xmlns="http://www.w3.org/2000/svg">
<path d="M2.11133 116.388H1.11133V117.388V159.1V160.1H2.11133H90.7883H91.7883V159.1V117.388V116.388H90.7883H2.11133ZM121.15 71.9682V72.9682H122.15H173.831V226.458V227.458H174.831H219.941H220.941V226.458V2.448V1.448H219.941H183.327H182.327V2.448C182.327 4.25721 181.796 7.12975 180.667 11.1318C178.743 17.7106 175.927 22.9125 172.251 26.787L172.251 26.7875C166.843 32.4958 159.819 36.3208 151.132 38.24L151.131 38.2403C145.664 39.4552 136.01 40.3803 122.105 40.9983L121.15 41.0407V41.9973V71.9682Z" stroke="black" stroke-width="2"/>
</svg>
