<svg width="287" height="248" viewBox="0 0 287 248" fill="none" xmlns="http://www.w3.org/2000/svg">
<path d="M117.935 246.245L117.961 245.219C118.408 227.788 122.151 211.842 129.202 197.394C136.085 181.055 152.243 163.898 177.467 145.896C199.334 130.246 213.402 119.092 219.764 112.403C229.493 102.017 234.305 90.7137 234.305 78.4685C234.305 68.4556 231.534 60.2052 226.049 53.6441C220.617 47.1474 212.824 43.8496 202.515 43.8496C195.424 43.8496 189.538 45.1727 184.812 47.7628C180.097 50.3466 176.479 54.2216 173.956 59.4289C171.052 65.4508 169.282 75.1553 168.728 88.6625L168.689 89.6215H167.729H121.624H120.586L120.625 88.5837C121.405 67.9669 125.14 51.2161 131.891 38.3892C144.749 13.9138 167.608 1.73682 200.185 1.73682C225.899 1.73682 246.472 8.89729 261.789 23.3133C277.107 37.6196 284.74 56.5945 284.74 80.1329C284.74 98.2115 279.345 114.293 268.557 128.341C261.477 137.669 249.898 148.001 233.887 159.343L117.935 246.245ZM117.935 246.245H118.961H284.239H285.239V245.245V203.467V202.467H284.239H180.68C183.436 198.188 186.716 194.392 190.518 191.076C194.921 187.334 203.043 181.255 214.912 172.825L214.912 172.825L233.885 159.344L117.935 246.245ZM2.61719 126.736H1.61719V127.736V172.675V173.675H2.61719H98.1556H99.1556V172.675V127.736V126.736H98.1556H2.61719Z" stroke="black" stroke-width="2"/>
</svg>
