<svg width="288" height="245" viewBox="0 0 288 245" fill="none" xmlns="http://www.w3.org/2000/svg">
<path d="M2.03125 117.346H1.03125V118.346V161.811V162.811H2.03125H94.4345H95.4345V161.811V118.346V117.346H94.4345H2.03125ZM170.151 165.453V164.453H169.151H124.076H123.035L123.077 165.493C123.832 184.163 127.612 199.365 134.483 211.035L134.486 211.04C147.601 233.008 170.964 243.885 204.245 243.885C231.259 243.885 251.797 236.37 265.673 221.183C279.572 205.98 286.54 188.355 286.54 168.35C286.54 149.345 280.611 134.248 268.673 123.186L268.669 123.183C264.725 119.563 261.208 116.817 258.123 114.972C256.425 113.956 254.828 113.195 253.342 112.718C258.019 110.333 262.507 106.653 266.815 101.718L266.818 101.714C275.148 92.0691 279.296 80.2392 279.296 66.2881C279.296 46.5972 272.319 30.8522 258.336 19.1616C244.484 7.38341 226.26 1.53955 203.762 1.53955C191.668 1.53955 181.407 2.99641 173.005 5.94238C164.625 8.881 157.369 13.1327 151.252 18.7032L151.243 18.7121L151.233 18.7212C143.097 26.5319 137.109 35.0694 133.293 44.3359L133.281 44.3649L133.271 44.3946C129.696 54.9016 127.695 65.9984 127.262 77.6808L127.224 78.7178H128.261H171.082H172.101L172.082 77.6991C171.87 66.362 174.256 57.4251 179.129 50.7863C184.043 44.2371 191.699 40.8872 202.313 40.8872C211.551 40.8872 218.554 43.6089 223.471 48.9366L223.478 48.944C228.534 54.3094 231.094 61.2939 231.094 69.9907C231.094 76.7405 229.841 82.275 227.398 86.6474C224.962 91.0062 221.31 94.2706 216.397 96.4429L216.387 96.4472C210.692 99.0359 200.47 100.49 185.556 100.704L184.571 100.718V101.704V134.544V135.544H185.571C200.783 135.544 211.781 136.996 218.676 139.816C224.728 142.321 229.218 146.041 232.205 150.96C235.2 155.89 236.729 162.097 236.729 169.638C236.729 181.027 233.414 189.637 226.91 195.625C220.44 201.573 212.847 204.537 204.084 204.537C196.857 204.537 190.823 203.152 185.936 200.437C181.057 197.727 177.262 193.659 174.554 188.19C171.638 182.252 170.151 174.689 170.151 165.453Z" stroke="black" stroke-width="2"/>
</svg>
