<svg width="167" height="248" viewBox="0 0 167 248" fill="none" xmlns="http://www.w3.org/2000/svg">
<path d="M19.2486 214.058L19.2467 214.054C7.12708 192.872 1.12109 162.79 1.12109 123.914C1.12109 85.0374 7.12727 54.9026 19.2456 33.6136L19.2475 33.6103C31.5733 12.1503 52.9771 1.49805 83.1731 1.49805C113.369 1.49805 134.72 12.1501 146.938 33.6128C146.938 33.6131 146.938 33.6134 146.939 33.6136L146.07 34.1083C158.173 55.1819 164.225 85.1171 164.225 123.914C164.225 162.711 158.173 192.592 146.07 213.558L19.2486 214.058ZM19.2486 214.058C31.5755 235.409 52.9794 246.006 83.1731 246.006C113.365 246.006 134.717 235.41 146.936 214.057L19.2486 214.058ZM109.125 185.712L109.123 185.717C107.057 192.71 103.854 197.86 99.5717 201.265C95.2969 204.665 89.8558 206.398 83.1731 206.398C76.4909 206.398 71.0201 204.665 66.689 201.262C62.3505 197.853 59.0675 192.699 56.8946 185.703C52.5082 171.473 50.2934 150.896 50.2934 123.914C50.2934 95.6232 52.5104 74.7881 56.8906 61.3271C59.0591 54.6629 62.3355 49.7505 66.6712 46.4988C71.0031 43.2498 76.4806 41.5925 83.1731 41.5925C89.8662 41.5925 95.3138 43.25 99.5895 46.4953C103.869 49.7433 107.065 54.6511 109.127 61.3133L109.129 61.3202C113.404 74.7844 115.567 95.6225 115.567 123.914C115.567 150.898 113.405 171.479 109.125 185.712Z" stroke="black" stroke-width="2"/>
</svg>
