<svg width="117" height="168" viewBox="0 0 117 168" fill="none" xmlns="http://www.w3.org/2000/svg">
<path d="M0.976562 167.533C1.28697 155.592 3.88668 144.684 8.77567 134.81C13.5095 123.711 24.6843 111.961 42.3002 99.5608C57.588 88.7679 67.4824 81.0369 71.9834 76.3676C78.8901 69.0959 82.3434 61.1352 82.3434 52.4856C82.3434 45.4435 80.3645 39.5878 76.4068 34.9185C72.449 30.2493 66.784 27.9147 59.4117 27.9147C49.3233 27.9147 42.4554 31.6271 38.8081 39.052C36.7128 43.3385 35.4711 50.151 35.0831 59.4895H2.83904C3.38226 45.3286 5.98196 33.8852 10.6381 25.159C19.4849 8.54878 35.1995 0.243652 57.782 0.243652C75.6307 0.243652 89.8321 5.14253 100.386 14.9403C110.94 24.6615 116.217 37.5593 116.217 53.6338C116.217 65.9575 112.492 76.9034 105.042 86.4716C100.153 92.8248 92.1214 99.9052 80.9466 107.713L67.6764 117.013C59.3729 122.83 53.6691 127.04 50.5649 129.643C47.5384 132.245 44.9775 135.269 42.8822 138.714H116.566V167.533H0.976562Z" fill="#3A68EE"/>
</svg>
