<svg width="115" height="168" viewBox="0 0 115 168" fill="none" xmlns="http://www.w3.org/2000/svg">
<path d="M32.4871 113.918C32.4871 120.417 33.5473 125.795 35.6678 130.053C39.6059 137.897 46.7625 141.818 57.1378 141.818C63.4993 141.818 69.0277 139.69 73.7231 135.432C78.4942 131.099 80.8798 124.899 80.8798 116.832C80.8798 106.15 76.4873 99.0158 67.7024 95.4302C62.7041 93.4133 54.828 92.4049 44.0741 92.4049V69.5469C54.6008 69.3975 61.9468 68.3891 66.112 66.5216C73.3066 63.3842 76.9038 57.0348 76.9038 47.4733C76.9038 41.2732 75.0484 36.231 71.3375 32.3467C67.7024 28.4623 62.5526 26.5201 55.8882 26.5201C48.2393 26.5201 42.5973 28.9105 38.9622 33.6913C35.4028 38.472 33.6988 44.8588 33.8503 52.8516H3.63323C3.93616 44.7841 5.3372 37.1274 7.83635 29.8816C10.487 23.5322 14.6522 17.6683 20.3321 12.2899C24.5731 8.48025 29.6093 5.56698 35.4406 3.5501C41.272 1.53322 48.4286 0.52478 56.9106 0.52478C72.6628 0.52478 85.3479 4.55854 94.9659 12.6261C104.66 20.6189 109.506 31.3756 109.506 44.8962C109.506 54.4577 106.629 62.5252 100.873 69.0987C97.2378 73.2072 93.4512 76.0084 89.5132 77.5024C92.4667 77.5024 96.7077 80.0048 102.236 85.0097C110.491 92.5543 114.618 102.863 114.618 115.935C114.618 129.68 109.771 141.781 100.078 152.239C90.4598 162.622 76.1844 167.814 57.2514 167.814C33.926 167.814 17.7194 160.307 8.63154 145.292C3.86043 137.299 1.20981 126.841 0.679688 113.918H32.4871Z" fill="#3A68EE"/>
</svg>
