<svg width="1790" height="669" viewBox="0 0 1790 669" fill="none" xmlns="http://www.w3.org/2000/svg">
<rect x="60.3418" y="298.671" width="2" height="119.683" fill="black"/>
<circle cx="61.3425" cy="296.685" r="15.61" fill="#3A68EE"/>
<rect x="158.891" y="267.824" width="253.604" height="399.105" stroke="black" stroke-width="2"/>
<rect x="1091.98" y="205.785" width="347.018" height="461.355" stroke="black" stroke-width="2"/>
<rect x="1" y="414.95" width="157.522" height="251.978" stroke="black" stroke-width="2"/>
<rect x="196.316" y="154.551" width="35.955" height="112.974" stroke="black" stroke-width="2"/>
<rect x="1143.09" y="78.7368" width="49.8262" height="126.958" stroke="black" stroke-width="2"/>
<path d="M445.625 538.453C467.716 538.453 485.625 556.361 485.625 578.453L485.625 666.929L412.573 666.929L412.573 538.453L445.625 538.453Z" stroke="black" stroke-width="2"/>
<path d="M492.32 479.751C521.591 479.751 545.32 503.48 545.32 532.751L545.32 666.929L412.572 666.929L412.572 479.751L492.32 479.751Z" stroke="black" stroke-width="2"/>
<rect x="267.578" y="99.8159" width="79.4159" height="167.709" stroke="black" stroke-width="2"/>
<rect x="1233.22" y="39.7554" width="53.2915" height="165.938" stroke="black" stroke-width="2"/>
<rect x="1326.82" y="17.3442" width="53.2915" height="188.349" stroke="black" stroke-width="2"/>
<circle r="29.725" transform="matrix(-1 0 0 1 61.3472 296.685)" stroke="#3A68EE" stroke-width="2"/>
<rect x="584.957" y="561.886" width="309.158" height="105.042" stroke="black" stroke-width="2"/>
<rect x="745.434" y="437.413" width="32.2092" height="124.686" stroke="black" stroke-width="2"/>
<rect x="810.188" y="490.025" width="32.2092" height="72.0224" stroke="black" stroke-width="2"/>
<rect x="647.977" y="358.698" width="64.9065" height="203.351" stroke="black" stroke-width="2"/>
<rect x="584.957" y="267.824" width="309.158" height="294.274" stroke="black" stroke-width="2"/>
<rect x="894.307" y="561.886" width="132.945" height="105.042" stroke="black" stroke-width="2"/>
<rect x="1027.42" y="490.025" width="64.4772" height="176.903" stroke="black" stroke-width="2"/>
<path d="M660.338 267.688L715.547 1.9488L771.819 1.94874L818.76 267.688H660.338Z" stroke="black" stroke-width="2"/>
<rect x="894.307" y="410.397" width="197.593" height="31.2057" stroke="black" stroke-width="2"/>
<rect x="894.307" y="325.492" width="197.593" height="31.2057" stroke="black" stroke-width="2"/>
<rect x="346.992" y="531.549" width="58.6741" height="125.865" transform="rotate(90 346.992 531.549)" stroke="black" stroke-width="2"/>
<rect x="346.992" y="431.036" width="58.6741" height="125.865" transform="rotate(90 346.992 431.036)" stroke="black" stroke-width="2"/>
<rect x="1380.11" y="409.867" width="78.1587" height="221.958" transform="rotate(90 1380.11 409.867)" stroke="black" stroke-width="2"/>
<rect x="346.992" y="330.523" width="58.6741" height="125.865" transform="rotate(90 346.992 330.523)" stroke="black" stroke-width="2"/>
<rect x="1380.11" y="278.539" width="78.1587" height="221.958" transform="rotate(90 1380.11 278.539)" stroke="black" stroke-width="2"/>
<circle cx="1622.58" cy="604.275" r="15.61" fill="#3A68EE"/>
<circle cx="1701.81" cy="604.274" r="15.61" fill="#3A68EE"/>
<rect x="1535.4" y="268.035" width="253.604" height="399.105" stroke="black" stroke-width="2"/>
<rect x="1439.02" y="415.162" width="96.2787" height="251.978" stroke="black" stroke-width="2"/>
<circle r="29.725" transform="matrix(-1 0 0 1 1622.59 604.276)" stroke="#3A68EE" stroke-width="2"/>
<circle r="29.725" transform="matrix(-1 0 0 1 1701.81 604.275)" stroke="#3A68EE" stroke-width="2"/>
<rect x="1592.86" y="334.688" width="32.2092" height="201.977" stroke="black" stroke-width="2"/>
<rect x="1646.09" y="334.688" width="32.2092" height="201.977" stroke="black" stroke-width="2"/>
<rect x="1699.33" y="334.688" width="32.2092" height="201.977" stroke="black" stroke-width="2"/>
<path d="M1601.39 267.735L1643.88 63.1802L1686.92 63.1802L1723.05 267.735H1601.39Z" stroke="black" stroke-width="2"/>
</svg>
