<svg width="228" height="228" viewBox="0 0 228 228" fill="none" xmlns="http://www.w3.org/2000/svg">
<path d="M107.615 44.5474L107.124 41.5877L104.165 42.078L94.375 43.6998L91.4021 44.1922L91.9078 47.1629L93.5562 56.8462L94.0596 59.8037L97.0171 59.3002L106.757 57.6423L109.701 57.1411L109.213 54.1945L107.615 44.5474Z" fill="#3A68EE" stroke="#3A68EE" stroke-width="6"/>
<path d="M108.789 183.701L108.298 186.661L105.339 186.171L95.5488 184.549L92.5759 184.056L93.0816 181.086L94.73 171.402L95.2334 168.445L98.1909 168.948L107.93 170.606L110.875 171.108L110.387 174.054L108.789 183.701Z" fill="#3A68EE" stroke="#3A68EE" stroke-width="6"/>
<path d="M154.57 56.8094L155.99 54.1665L153.347 52.7469L144.605 48.0509L141.951 46.6249L140.536 49.2858L135.927 57.9596L134.519 60.6087L137.168 62.0166L145.892 66.6532L148.529 68.0548L149.943 65.4237L154.57 56.8094Z" fill="#3A68EE" stroke="#3A68EE" stroke-width="6"/>
<path d="M156.553 170.479L157.972 173.122L155.329 174.542L146.588 179.238L143.933 180.664L142.519 178.003L137.909 169.329L136.501 166.68L139.15 165.272L147.874 160.635L150.512 159.234L151.925 161.865L156.553 170.479Z" fill="#3A68EE" stroke="#3A68EE" stroke-width="6"/>
<path d="M181.583 94.2053L184.36 93.0711L183.226 90.2938L179.475 81.107L178.335 78.3173L175.551 79.4689L166.474 83.223L163.701 84.3695L164.848 87.1418L168.624 96.2715L169.765 99.0314L172.53 97.9023L181.583 94.2053Z" fill="#3A68EE" stroke="#3A68EE" stroke-width="6"/>
<path d="M177.666 144.084L180.52 145.006L181.443 142.151L184.493 132.708L185.42 129.841L182.548 128.927L173.188 125.949L170.329 125.04L169.42 127.898L166.424 137.313L165.519 140.159L168.361 141.077L177.666 144.084Z" fill="#3A68EE" stroke="#3A68EE" stroke-width="6"/>
<path d="M65.6156 61.6388L63.3418 59.6819L61.3848 61.9557L54.9117 69.477L52.946 71.761L55.2387 73.7165L62.7122 80.0908L64.9947 82.0376L66.9415 79.7551L73.3529 72.2382L75.291 69.9658L73.0273 68.0176L65.6156 61.6388Z" fill="#3A68EE" stroke="#3A68EE" stroke-width="6"/>
<path d="M65.1742 165.64L62.9004 167.597L60.9434 165.323L54.4703 157.802L52.5046 155.518L54.7973 153.563L62.2708 147.188L64.5533 145.242L66.5001 147.524L72.9114 155.041L74.8496 157.313L72.5859 159.262L65.1742 165.64Z" fill="#3A68EE" stroke="#3A68EE" stroke-width="6"/>
<path d="M44.4486 105.479L41.459 105.23L41.2102 108.22L40.3873 118.109L40.1374 121.112L43.1415 121.348L52.9338 122.119L55.9246 122.355L56.16 119.364L56.9355 109.515L57.17 106.537L54.1936 106.29L44.4486 105.479Z" fill="#3A68EE" stroke="#3A68EE" stroke-width="6"/>
<circle cx="113.613" cy="113.82" r="56.9035" fill="#3A68EE"/>
</svg>
