<svg width="1724" height="294" viewBox="0 0 1724 294" fill="none" xmlns="http://www.w3.org/2000/svg">
<path d="M98.6366 89.2175L144.581 34.5689L195.709 121.058L196.158 121.819L196.968 121.467L247.684 99.4079L313.689 192.661H2.28588L56.1742 78.338L97.6102 89.5393L98.2261 89.7058L98.6366 89.2175Z" stroke="white" stroke-width="2"/>
<path d="M1525.05 175.963H1721.78L1694.31 105.869L1667.71 113.124L1667.16 113.273L1666.75 112.88L1627.64 75.2996L1593.19 124.666L1592.81 125.204L1592.17 125.074L1557.71 118.101L1525.05 175.963Z" stroke="white" stroke-width="2"/>
<path d="M885.422 292.756L885.422 265.09L1030.58 265.09L1030.58 292.756L885.422 292.756Z" stroke="white" stroke-width="2"/>
<path d="M1341.7 28.666L1341.7 1.00007L1486.86 1.00007L1486.86 28.666L1341.7 28.666Z" stroke="white" stroke-width="2"/>
<path d="M367.582 28.666L367.582 0.999855L670.502 0.999846L670.502 28.666L367.582 28.666Z" stroke="white" stroke-width="2"/>
<path d="M511.461 228.208L511.461 200.542L716.379 200.542L716.379 228.208L511.461 228.208Z" stroke="white" stroke-width="2"/>
<path d="M1191.33 228.208L1191.33 200.542L1413.28 200.542L1413.28 228.208L1191.33 228.208Z" stroke="white" stroke-width="2"/>
<path d="M1026.33 69.0593H1026.72L1027 68.7968L1068.21 31.057L1091.45 54.8136L1091.92 55.2908L1092.54 55.0427L1117.08 45.2174L1148.4 141.01H940.694L985.986 69.0593H1026.33Z" stroke="white" stroke-width="2"/>
</svg>
