<svg width="491" height="436" viewBox="0 0 491 436" fill="none" xmlns="http://www.w3.org/2000/svg">
<path d="M374.244 0.243652L397.301 24.8581L459.689 24.8581L449.923 48.3143L397.301 49.4726L420.357 74.0871L466.47 74.0871V180.943H374.244L397.301 205.557L489.255 205.557V74.0871L471.081 49.4726L490.34 0.243652L374.244 0.243652Z" fill="#3A68EE"/>
<path d="M318.615 0.243652L272.502 0.243652L272.502 205.557H295.558L295.558 74.0871L387.784 74.0871L318.615 0.243652ZM295.558 24.8581L318.615 24.8581L341.671 49.4726L295.558 49.4726V24.8581Z" fill="#3A68EE"/>
<path d="M47.0894 49.4733L0.976562 0.244385L0.976562 205.558H24.033L24.033 49.4733L47.0894 74.0878L47.0894 205.558H70.1458L70.1458 49.4733L93.2022 74.0878L93.2022 205.558L116.259 205.558L116.259 74.0878L47.0894 0.244385L47.0894 49.4733Z" fill="#3A68EE"/>
<path d="M161.83 180.943L161.83 74.0871L230.999 74.0871L208.214 49.4726L161.83 49.4726V24.8581L208.214 24.8581L184.887 0.243652L139.045 0.243652L139.045 205.557L254.056 205.557L230.999 180.943H161.83Z" fill="#3A68EE"/>
<path d="M234.15 227.671L257.49 252.588H280.83L280.83 435.509H304.17L304.17 252.588L350.85 252.588L327.51 227.671H234.15Z" fill="#3A68EE"/>
<path d="M420.598 227.671H373.918L373.918 435.509H397.258L397.258 302.423H467.003L467.003 435.509H490.342L490.342 302.423L420.598 227.671ZM397.258 277.506V252.588H420.598L443.937 277.506H397.258Z" fill="#3A68EE"/>
<path d="M140.793 227.671L140.793 435.509H257.492L257.492 302.423L187.473 227.671H140.793ZM234.152 410.592H164.133L164.133 252.588H187.473L234.152 302.423L234.152 410.592Z" fill="#3A68EE"/>
<path d="M1.02734 227.671L1.02734 435.509H24.3672L24.3672 252.588H47.707L94.3867 302.423L94.3867 435.509H117.727L117.727 302.423L47.707 227.671H1.02734Z" fill="#3A68EE"/>
</svg>
