<svg width="166" height="165" viewBox="0 0 166 165" fill="none" xmlns="http://www.w3.org/2000/svg">
<circle cx="83.4875" cy="82.151" r="61.5491" transform="rotate(9.47666 83.4875 82.151)" fill="black"/>
<path d="M83.5551 20.5274L82.9024 10.3171L72.541 10.9794L73.2422 21.2327" stroke="black" stroke-width="4"/>
<path d="M144.28 41.8009L145.872 40.591L144.663 38.9985L138.382 30.7313L137.166 29.1316L135.572 30.354L127.416 36.6077L125.829 37.8246L127.046 39.4118L133.336 47.6147L134.548 49.1948L136.133 47.9903L144.28 41.8009Z" fill="black" stroke="black" stroke-width="4"/>
<path d="M154.954 73.1121L156.907 72.6801L156.475 70.7273L154.232 60.5899L153.798 58.6284L151.839 59.071L141.814 61.3354L139.863 61.776L140.304 63.7269L142.581 73.8098L143.02 75.752L144.964 75.3219L154.954 73.1121Z" fill="black" stroke="black" stroke-width="4"/>
<path d="M151.119 106.96L153.063 107.432L153.535 105.489L155.99 95.401L156.465 93.449L154.511 92.9827L144.514 90.5973L142.569 90.1331L142.105 92.0785L139.706 102.133L139.243 104.07L141.178 104.541L151.119 106.96Z" fill="black" stroke="black" stroke-width="4"/>
<path d="M132.255 135.702L133.743 137.038L135.079 135.549L142.016 127.824L143.358 126.329L141.857 124.994L134.179 118.162L132.685 116.832L131.355 118.326L124.484 126.049L123.16 127.536L124.642 128.866L132.255 135.702Z" fill="black" stroke="black" stroke-width="4"/>
<path d="M100.979 152.314L101.698 154.18L103.564 153.461L113.252 149.727L115.127 149.005L114.396 147.133L110.658 137.56L109.93 135.697L108.067 136.424L98.4385 140.185L96.5838 140.909L97.2998 142.767L100.979 152.314Z" fill="black" stroke="black" stroke-width="4"/>
<path d="M63.4637 151.347L63.0906 153.312L65.0555 153.685L75.2558 155.622L77.2295 155.996L77.5954 154.021L79.4677 143.916L79.8321 141.949L77.8655 141.585L67.7016 139.702L65.7438 139.339L65.3723 141.295L63.4637 151.347Z" fill="black" stroke="black" stroke-width="4"/>
<path d="M118.156 19.1178L118.912 17.2665L117.061 16.5098L107.45 12.582L105.59 11.822L104.839 13.685L100.993 23.2156L100.245 25.0703L102.099 25.8187L111.685 29.6867L113.532 30.4317L114.285 28.5886L118.156 19.1178Z" fill="black" stroke="black" stroke-width="4"/>
<path d="M84.1127 10.0351L83.9616 8.04081L81.9673 8.19199L71.6144 8.97679L69.6113 9.12864L69.772 11.1311L70.5945 21.3754L70.7545 23.369L72.7481 23.209L83.0519 22.3818L85.0366 22.2224L84.8861 20.237L84.1127 10.0351Z" fill="black" stroke="black" stroke-width="4"/>
<path d="M49.2326 17.7076L48.1077 16.0539L46.454 17.1788L37.8693 23.0182L36.2082 24.1481L37.3455 25.8041L43.1634 34.276L44.2956 35.9247L45.9443 34.7925L54.4654 28.9407L56.1068 27.8136L54.9869 26.1672L49.2326 17.7076Z" fill="black" stroke="black" stroke-width="4"/>
<path d="M24.2263 40.8244L22.4992 39.8159L21.4907 41.543L16.2553 50.509L15.2423 52.2438L16.9816 53.249L25.8796 58.3918L27.6112 59.3926L28.612 57.661L33.7846 48.7114L34.781 46.9875L33.0615 45.9834L24.2263 40.8244Z" fill="black" stroke="black" stroke-width="4"/>
<path d="M12.3667 71.3548L10.3782 71.141L10.1644 73.1295L9.05443 83.4526L8.83967 85.45L10.838 85.6559L21.0612 86.7091L23.0506 86.914L23.2556 84.9246L24.3149 74.6421L24.519 72.6614L22.5393 72.4486L12.3667 71.3548Z" fill="black" stroke="black" stroke-width="4"/>
<path d="M14.0721 104.775L12.2813 105.666L13.1719 107.456L17.7952 116.753L18.6897 118.552L20.4845 117.649L29.6661 113.032L31.4529 112.133L30.5544 110.346L25.9103 101.111L25.0158 99.3326L23.233 100.219L14.0721 104.775Z" fill="black" stroke="black" stroke-width="4"/>
<path d="M31.0448 132.901L29.7124 134.392L31.2039 135.725L38.9469 142.642L40.4451 143.98L41.7767 142.476L48.5893 134.781L49.9151 133.283L48.4176 131.958L40.6781 125.106L39.1873 123.786L37.8608 125.271L31.0448 132.901Z" fill="black" stroke="black" stroke-width="4"/>
<path d="M144.119 74.0957L154.168 72.1712L152.215 61.974L142.13 63.9521" stroke="black" stroke-width="4"/>
<path d="M141.43 102.618L151.384 104.982L153.783 94.8804L143.774 92.5501" stroke="black" stroke-width="4"/>
<path d="M99.9875 140.919L103.658 150.469L113.35 146.744L109.62 137.168" stroke="black" stroke-width="4"/>
<path d="M51.2508 58.3156C50.0677 50.829 62.7236 41.6595 77.0011 39.4029C91.2782 37.1465 106.145 41.9663 107.328 49.4531C108.511 56.9398 95.4332 63.4333 81.1553 65.6895C66.8777 67.9463 52.434 65.8018 51.2508 58.3156Z" fill="white"/>
<path d="M100.546 119.258C93.4711 116.539 94.3865 101.966 99.5713 88.4732C104.756 74.9805 113.835 63.5438 120.91 66.2621C127.985 68.9812 129.598 84.526 124.413 98.019C119.229 111.512 107.622 121.976 100.546 119.258Z" fill="white"/>
<path d="M49.9445 109.771C40.8519 98.5347 37.5925 83.2502 43.4844 78.4823C49.3761 73.7145 61.5395 81.7937 70.6321 93.0299C79.7251 104.267 85.0897 117.848 79.1979 122.615C73.3061 127.383 59.0375 121.008 49.9445 109.771Z" fill="white"/>
<path d="M92.0888 75.6674C93.4183 77.3104 94.2307 79.3108 94.4234 81.4155C94.616 83.5203 94.1802 85.6349 93.171 87.492C92.1619 89.349 90.6247 90.8652 88.7539 91.8486C86.8831 92.832 84.7626 93.2386 82.6607 93.017C80.5588 92.7953 78.5699 91.9553 76.9454 90.6033C75.3208 89.2512 74.1337 87.4478 73.5342 85.4211C72.9346 83.3944 72.9494 81.2354 73.5769 79.2171C74.2043 77.1988 75.4162 75.4119 77.0592 74.0824C79.2624 72.2995 82.0836 71.4649 84.9022 71.7622C87.7208 72.0594 90.3059 73.4642 92.0888 75.6674Z" fill="white"/>
<path d="M90.2992 121.965C89.532 122.086 88.746 121.977 88.0407 121.652C87.3354 121.326 86.7424 120.799 86.3367 120.137C85.931 119.474 85.7309 118.706 85.7616 117.93C85.7924 117.154 86.0525 116.405 86.5093 115.776C86.9661 115.148 87.5989 114.669 88.3277 114.401C89.0566 114.132 89.8487 114.086 90.6039 114.267C91.3591 114.449 92.0436 114.85 92.5706 115.421C93.0977 115.991 93.4437 116.705 93.565 117.473C93.6455 117.982 93.6249 118.502 93.5044 119.004C93.3838 119.505 93.1657 119.978 92.8625 120.395C92.5592 120.812 92.1767 121.166 91.7369 121.435C91.2971 121.704 90.8086 121.884 90.2992 121.965Z" fill="white"/>
<path d="M48.6935 72.8366C47.9684 72.558 47.3423 72.0707 46.8942 71.4362C46.4461 70.8017 46.1962 70.0486 46.1761 69.2721C46.156 68.4956 46.3667 67.7305 46.7814 67.0737C47.1961 66.4169 47.7962 65.8979 48.506 65.5822C49.2157 65.2665 50.0031 65.1683 50.7686 65.3001C51.5341 65.4319 52.2433 65.7877 52.8066 66.3226C53.3699 66.8575 53.7619 67.5474 53.933 68.305C54.1042 69.0627 54.0469 69.8541 53.7683 70.5792C53.3946 71.5514 52.65 72.3354 51.6983 72.7588C50.7467 73.1821 49.6658 73.2101 48.6935 72.8366Z" fill="white"/>
<path d="M115.309 56.8773C115.797 57.4811 116.096 58.2163 116.167 58.9898C116.237 59.7634 116.077 60.5405 115.706 61.223C115.335 61.9055 114.771 62.4627 114.083 62.8241C113.395 63.1856 112.616 63.335 111.844 63.2535C111.071 63.1721 110.34 62.8634 109.743 62.3665C109.146 61.8696 108.71 61.2068 108.489 60.462C108.269 59.7171 108.275 58.9236 108.505 58.1819C108.736 57.4402 109.181 56.7834 109.785 56.2948C110.595 55.6396 111.632 55.3329 112.667 55.4421C113.703 55.5513 114.653 56.0676 115.309 56.8773Z" fill="white"/>
</svg>
