<svg width="727" height="372" viewBox="0 0 727 372" fill="none" xmlns="http://www.w3.org/2000/svg">
<rect x="1.69922" y="1.09784" width="724.21" height="368.948" fill="white" stroke="black" stroke-width="2"/>
<rect x="1" y="-1" width="724.21" height="94.8299" transform="matrix(1 0 0 -1 0.699219 94.9277)" fill="#3A68EE" stroke="black" stroke-width="2"/>
<path d="M266.92 53.2636C266.77 55.3636 265.69 56.6236 265.09 57.1936C264.28 57.9436 262.84 58.8436 260.56 58.8436C258.13 58.8436 256.54 57.8836 255.61 56.9536C253.72 55.1236 253.03 52.0036 253.03 49.2436C253.03 46.3036 253.81 43.8136 255.49 42.1936C257.05 40.6936 258.82 40.3636 260.5 40.3636C262.9 40.3636 264.34 41.1736 265.18 42.0436C265.93 42.8236 266.56 43.9936 266.68 45.4036H268.93C268.81 43.4236 267.94 41.7136 266.89 40.6936C265.24 39.0736 262.54 38.4736 260.32 38.4736C257.08 38.4736 254.98 39.6736 253.6 41.0236C251.32 43.2736 250.66 46.6636 250.66 49.5736C250.66 52.5736 251.44 55.9036 253.57 58.1236C255.73 60.3736 258.25 60.7336 260.41 60.7336C262.48 60.7336 264.79 60.4636 266.74 58.5136C268.06 57.1936 268.93 55.2736 269.17 53.2636H266.92ZM272.662 49.6036C272.662 53.9836 274.162 56.7736 275.692 58.2736C277.672 60.2236 280.132 60.7336 282.472 60.7336C284.632 60.7336 287.242 60.3136 289.312 58.3636C291.052 56.7436 292.402 53.9236 292.402 49.7536C292.402 45.7936 291.172 42.6736 289.312 40.9036C287.812 39.4636 285.472 38.4736 282.472 38.4736C279.142 38.4736 276.982 39.7636 275.722 40.9936C274.042 42.6436 272.662 45.4336 272.662 49.6036ZM275.002 49.3336C275.002 47.5636 275.362 44.2336 277.702 42.1036C279.022 40.9036 280.612 40.3636 282.532 40.3636C284.092 40.3636 285.922 40.6636 287.422 42.0736C288.082 42.6736 290.062 44.8036 290.062 49.3636C290.062 51.5536 289.702 54.8836 287.632 56.9236C286.672 57.8836 285.082 58.8436 282.592 58.8436C280.372 58.8436 278.602 58.1536 277.282 56.8036C276.202 55.7236 275.002 53.6236 275.002 49.3336ZM296.363 49.6036C296.363 53.9836 297.863 56.7736 299.393 58.2736C301.373 60.2236 303.833 60.7336 306.173 60.7336C308.333 60.7336 310.943 60.3136 313.013 58.3636C314.753 56.7436 316.103 53.9236 316.103 49.7536C316.103 45.7936 314.873 42.6736 313.013 40.9036C311.513 39.4636 309.173 38.4736 306.173 38.4736C302.843 38.4736 300.683 39.7636 299.423 40.9936C297.743 42.6436 296.363 45.4336 296.363 49.6036ZM298.703 49.3336C298.703 47.5636 299.063 44.2336 301.403 42.1036C302.723 40.9036 304.313 40.3636 306.233 40.3636C307.793 40.3636 309.623 40.6636 311.123 42.0736C311.783 42.6736 313.763 44.8036 313.763 49.3636C313.763 51.5536 313.403 54.8836 311.333 56.9236C310.373 57.8836 308.783 58.8436 306.293 58.8436C304.073 58.8436 302.303 58.1536 300.983 56.8036C299.903 55.7236 298.703 53.6236 298.703 49.3336ZM323.064 40.9936H335.334V39.1036H320.844V60.1036H329.754C331.134 60.1036 333.384 59.9536 334.914 58.5736C335.904 57.6736 336.714 56.0536 336.714 54.0736C336.714 52.1236 335.994 50.5636 335.004 49.6036C333.534 48.1636 331.674 47.9836 330.264 47.9836H323.064V40.9936ZM323.064 49.8436H329.394C330.264 49.8436 332.064 49.9336 333.234 51.0136C333.894 51.6136 334.434 52.6336 334.434 54.1336C334.434 55.1836 334.164 56.2636 333.264 57.0736C332.154 58.0936 330.714 58.2136 329.424 58.2136H323.064V49.8436ZM343.074 39.1036H340.854V60.1036H367.074V64.8436H369.054L369.264 58.2136H366.204V39.1036H363.984V58.2136H354.654V39.1036H352.434V58.2136H343.074V39.1036ZM374.627 48.2836V40.9936H386.897V39.1036H372.407V60.1036H387.257V58.2136H374.627V50.1736H385.847V48.2836H374.627ZM392.967 49.9636H404.247V60.1036H406.467V39.1036H404.247V48.0736H392.967V39.1036H390.747V60.1036H392.967V49.9636ZM414.207 56.9236V39.1036H411.987V60.1036H414.267L426.177 42.1936V60.1036H428.397V39.1036H426.117L414.207 56.9236ZM436.15 48.2836V40.9936H448.42V39.1036H433.93V60.1036H448.78V58.2136H436.15V50.1736H447.37V48.2836H436.15Z" fill="white"/>
<path d="M201.352 211.554C201.112 213.114 200.212 215.484 196.942 215.484C193.582 215.484 191.782 212.634 191.782 208.674C191.782 201.654 195.682 201.444 196.792 201.444C197.932 201.444 200.692 201.594 201.172 205.104H206.032C205.882 202.014 204.022 197.364 196.552 197.364C194.512 197.364 186.442 197.784 186.442 208.854C186.442 217.104 191.362 219.564 196.732 219.564C204.172 219.564 205.942 214.704 206.272 211.554H201.352ZM214.325 202.044H222.245V218.964H227.195V197.964H209.375V218.964H214.325V202.044ZM237.156 197.964L229.296 218.964H234.516L235.836 215.034H243.456L244.806 218.964H250.056L242.166 197.964H237.156ZM236.916 211.464L239.676 203.454L242.376 211.464H236.916ZM265.922 211.554C265.682 213.114 264.782 215.484 261.512 215.484C258.152 215.484 256.352 212.634 256.352 208.674C256.352 201.654 260.252 201.444 261.362 201.444C262.502 201.444 265.262 201.594 265.742 205.104H270.602C270.452 202.014 268.592 197.364 261.122 197.364C259.082 197.364 251.012 197.784 251.012 208.854C251.012 217.104 255.932 219.564 261.302 219.564C268.742 219.564 270.512 214.704 270.842 211.554H265.922ZM278.895 211.524V197.964H273.945V218.964H278.895L287.265 205.254V218.964H292.215V197.964H287.265L278.895 211.524ZM301.776 202.044H313.146V197.964H296.826V218.964H306.846C311.706 218.964 314.826 216.924 314.826 212.634C314.826 205.944 308.556 205.764 306.846 205.764H301.776V202.044ZM301.776 209.844H305.886C307.086 209.844 309.486 209.994 309.486 212.514C309.486 214.524 307.746 214.884 305.796 214.884H301.776V209.844ZM327.96 219.564C335.19 219.564 338.58 214.824 338.58 208.464C338.58 202.104 335.19 197.364 327.96 197.364C319.68 197.364 317.34 203.574 317.34 208.464C317.34 213.354 319.68 219.564 327.96 219.564ZM327.96 215.484C325.23 215.484 322.71 213.954 322.71 208.464C322.71 202.914 325.23 201.444 327.96 201.444C333 201.444 333.24 206.544 333.24 208.464C333.24 210.234 333 215.484 327.96 215.484ZM347.98 211.734C348.31 218.604 353.29 219.564 357.58 219.564C362.14 219.564 367.33 218.604 367.33 213.264C367.33 210.024 365.68 208.554 362.68 207.954V207.894C364.18 207.654 366.67 206.604 366.67 203.274C366.67 198.834 362.5 197.364 357.79 197.364C352.42 197.364 348.91 199.104 348.58 204.774H353.41C353.56 201.504 356.17 201.444 357.25 201.444C357.94 201.444 361.33 201.414 361.33 203.964C361.33 206.034 359.29 206.304 357.88 206.304H355.42V210.174H358.39C359.59 210.174 361.99 210.324 361.99 212.724C361.99 213.894 361.24 215.484 357.73 215.484C354.13 215.484 352.87 213.894 352.78 211.734H347.98ZM376.463 197.964L368.603 218.964H373.823L375.143 215.034H382.763L384.113 218.964H389.363L381.473 197.964H376.463ZM376.223 211.464L378.983 203.454L381.683 211.464H376.223ZM398.31 197.964V218.964H408.3C412.02 218.964 416.34 218.124 416.34 213.084C416.34 209.244 413.49 208.044 411.87 207.714V207.684C413.91 206.994 415.32 205.734 415.32 203.304C415.32 201.024 414.33 197.964 408.84 197.964H398.31ZM403.26 202.044H407.61C409.8 202.044 410.28 203.214 410.28 204.084C410.28 204.894 409.83 206.244 407.82 206.244H403.26V202.044ZM403.26 210.114H407.76C409.56 210.114 411.12 210.504 411.12 212.514C411.12 214.434 409.26 214.884 408.39 214.884H403.26V210.114ZM429.737 219.564C436.967 219.564 440.357 214.824 440.357 208.464C440.357 202.104 436.967 197.364 429.737 197.364C421.457 197.364 419.117 203.574 419.117 208.464C419.117 213.354 421.457 219.564 429.737 219.564ZM429.737 215.484C427.007 215.484 424.487 213.954 424.487 208.464C424.487 202.914 427.007 201.444 429.737 201.444C434.777 201.444 435.017 206.544 435.017 208.464C435.017 210.234 434.777 215.484 429.737 215.484ZM448.905 202.044H456.825V218.964H461.775V197.964H443.955V218.964H448.905V202.044ZM466.396 197.964V218.964H471.346V211.734H476.056C478.606 211.734 484.096 211.344 484.096 204.744C484.096 199.554 480.406 197.964 476.176 197.964H466.396ZM471.346 202.044H475.216C476.326 202.044 478.756 201.924 478.756 204.774C478.756 206.814 477.586 207.654 475.216 207.654H471.346V202.044ZM496.827 219.564C504.057 219.564 507.447 214.824 507.447 208.464C507.447 202.104 504.057 197.364 496.827 197.364C488.547 197.364 486.207 203.574 486.207 208.464C486.207 213.354 488.547 219.564 496.827 219.564ZM496.827 215.484C494.097 215.484 491.577 213.954 491.577 208.464C491.577 202.914 494.097 201.444 496.827 201.444C501.867 201.444 502.107 206.544 502.107 208.464C502.107 210.234 501.867 215.484 496.827 215.484ZM524.965 211.554C524.725 213.114 523.825 215.484 520.555 215.484C517.195 215.484 515.395 212.634 515.395 208.674C515.395 201.654 519.295 201.444 520.405 201.444C521.545 201.444 524.305 201.594 524.785 205.104H529.645C529.495 202.014 527.635 197.364 520.165 197.364C518.125 197.364 510.055 197.784 510.055 208.854C510.055 217.104 514.975 219.564 520.345 219.564C527.785 219.564 529.555 214.704 529.885 211.554H524.965ZM533.918 197.964V203.454L535.208 212.214H537.788L539.078 203.454V197.964H533.918ZM534.008 218.964H538.988V214.224H534.008V218.964ZM168.275 247.554C168.035 249.114 167.135 251.484 163.865 251.484C160.505 251.484 158.705 248.634 158.705 244.674C158.705 237.654 162.605 237.444 163.715 237.444C164.855 237.444 167.615 237.594 168.095 241.104H172.955C172.805 238.014 170.945 233.364 163.475 233.364C161.435 233.364 153.365 233.784 153.365 244.854C153.365 253.104 158.285 255.564 163.655 255.564C171.095 255.564 172.865 250.704 173.195 247.554H168.275ZM183.301 233.964V254.964H193.291C197.011 254.964 201.331 254.124 201.331 249.084C201.331 245.244 198.481 244.044 196.861 243.714V243.684C198.901 242.994 200.311 241.734 200.311 239.304C200.311 237.024 199.321 233.964 193.831 233.964H183.301ZM188.251 238.044H192.601C194.791 238.044 195.271 239.214 195.271 240.084C195.271 240.894 194.821 242.244 192.811 242.244H188.251V238.044ZM188.251 246.114H192.751C194.551 246.114 196.111 246.504 196.111 248.514C196.111 250.434 194.251 250.884 193.381 250.884H188.251V246.114ZM210.438 233.964L202.578 254.964H207.798L209.118 251.034H216.738L218.088 254.964H223.338L215.448 233.964H210.438ZM210.198 247.464L212.958 239.454L215.658 247.464H210.198ZM235.573 254.964H238.933L244.183 239.964H244.273V254.964H249.223V233.964H242.263L237.253 248.394L232.243 233.964H225.283V254.964H230.233V239.964H230.323L235.573 254.964ZM258.798 247.524V233.964H253.848V254.964H258.798L267.168 241.254V254.964H272.118V233.964H267.168L258.798 247.524ZM297.65 247.554C297.41 249.114 296.51 251.484 293.24 251.484C289.88 251.484 288.08 248.634 288.08 244.674C288.08 237.654 291.98 237.444 293.09 237.444C294.23 237.444 296.99 237.594 297.47 241.104H302.33C302.18 238.014 300.32 233.364 292.85 233.364C290.81 233.364 282.74 233.784 282.74 244.854C282.74 253.104 287.66 255.564 293.03 255.564C300.47 255.564 302.24 250.704 302.57 247.554H297.65ZM310.684 242.784H310.624V233.964H305.674V254.964H310.624V244.704H310.684L318.124 254.964H324.184L315.274 243.564L323.704 233.964H317.884L310.684 242.784ZM334.493 255.564C341.723 255.564 345.113 250.824 345.113 244.464C345.113 238.104 341.723 233.364 334.493 233.364C326.213 233.364 323.873 239.574 323.873 244.464C323.873 249.354 326.213 255.564 334.493 255.564ZM334.493 251.484C331.763 251.484 329.243 249.954 329.243 244.464C329.243 238.914 331.763 237.444 334.493 237.444C339.533 237.444 339.773 242.544 339.773 244.464C339.773 246.234 339.533 251.484 334.493 251.484ZM348.711 233.964V254.964H353.661V247.734H358.371C360.921 247.734 366.411 247.344 366.411 240.744C366.411 235.554 362.721 233.964 358.491 233.964H348.711ZM353.661 238.044H357.531C358.641 238.044 361.071 237.924 361.071 240.774C361.071 242.814 359.901 243.654 357.531 243.654H353.661V238.044ZM379.142 255.564C386.372 255.564 389.762 250.824 389.762 244.464C389.762 238.104 386.372 233.364 379.142 233.364C370.862 233.364 368.522 239.574 368.522 244.464C368.522 249.354 370.862 255.564 379.142 255.564ZM379.142 251.484C376.412 251.484 373.892 249.954 373.892 244.464C373.892 238.914 376.412 237.444 379.142 237.444C384.182 237.444 384.422 242.544 384.422 244.464C384.422 246.234 384.182 251.484 379.142 251.484ZM414.281 247.554C414.041 249.114 413.141 251.484 409.871 251.484C406.511 251.484 404.711 248.634 404.711 244.674C404.711 237.654 408.611 237.444 409.721 237.444C410.861 237.444 413.621 237.594 414.101 241.104H418.961C418.811 238.014 416.951 233.364 409.481 233.364C407.441 233.364 399.371 233.784 399.371 244.854C399.371 253.104 404.291 255.564 409.661 255.564C417.101 255.564 418.871 250.704 419.201 247.554H414.281ZM422.305 233.964V254.964H432.295C436.015 254.964 440.335 254.124 440.335 249.084C440.335 245.244 437.485 244.044 435.865 243.714V243.684C437.905 242.994 439.315 241.734 439.315 239.304C439.315 237.024 438.325 233.964 432.835 233.964H422.305ZM427.255 238.044H431.605C433.795 238.044 434.275 239.214 434.275 240.084C434.275 240.894 433.825 242.244 431.815 242.244H427.255V238.044ZM427.255 246.114H431.755C433.555 246.114 435.115 246.504 435.115 248.514C435.115 250.434 433.255 250.884 432.385 250.884H427.255V246.114ZM456.101 247.704V254.964H461.051V233.964H450.401C448.061 233.964 442.901 234.654 442.901 240.714C442.901 245.394 446.021 246.984 448.421 247.314L443.471 254.964H449.351L453.461 247.704H456.101ZM456.101 238.044V243.624H451.661C448.691 243.624 448.241 241.944 448.241 240.774C448.241 239.544 448.841 238.044 451.481 238.044H456.101ZM475.744 254.964H480.694V245.454H480.784L487.294 254.964H493.294L484.834 243.714L493.054 233.964H487.204L480.784 242.514H480.694V233.964H475.744V242.514H475.654L469.234 233.964H463.384L471.604 243.714L463.144 254.964H469.144L475.654 245.454H475.744V254.964ZM504.854 244.224L500.264 233.964H494.354L502.124 249.174C501.884 250.074 501.284 251.184 499.484 251.184C498.614 251.184 497.924 251.034 497.354 250.884V254.964C498.464 255.234 499.394 255.354 500.504 255.354C502.904 255.354 505.244 254.994 507.014 250.674L513.854 233.964H508.484L504.854 244.224ZM521.053 238.044V254.964H526.003V238.044H532.333V233.964H514.693V238.044H521.053ZM548.168 247.554C547.928 249.114 547.028 251.484 543.758 251.484C540.398 251.484 538.598 248.634 538.598 244.674C538.598 237.654 542.498 237.444 543.608 237.444C544.748 237.444 547.508 237.594 547.988 241.104H552.848C552.698 238.014 550.838 233.364 543.368 233.364C541.328 233.364 533.258 233.784 533.258 244.854C533.258 253.104 538.178 255.564 543.548 255.564C550.988 255.564 552.758 250.704 553.088 247.554H548.168ZM568.191 247.704V254.964H573.141V233.964H562.491C560.151 233.964 554.991 234.654 554.991 240.714C554.991 245.394 558.111 246.984 560.511 247.314L555.561 254.964H561.441L565.551 247.704H568.191ZM568.191 238.044V243.624H563.751C560.781 243.624 560.331 241.944 560.331 240.774C560.331 239.544 560.931 238.044 563.571 238.044H568.191Z" fill="black"/>
<path d="M654.916 30.1036L673.8 48.9873M692.683 67.871L673.8 48.9873M673.8 48.9873L692.683 30.1036L654.916 67.871" stroke="white" stroke-width="2"/>
</svg>
