<svg width="582" height="655" viewBox="0 0 582 655" fill="none" xmlns="http://www.w3.org/2000/svg">
<mask id="path-1-outside-1" maskUnits="userSpaceOnUse" x="143.03" y="364.948" width="290.23" height="290.965" fill="black">
<rect fill="white" x="143.03" y="364.948" width="290.23" height="290.965"/>
<path d="M374.424 488.8C374.405 488.323 374.48 487.853 374.641 487.416C374.681 487.304 374.76 487.226 374.808 487.127C375.141 486.419 375.675 485.799 376.435 485.429L399.264 474.532L386.913 448.264L364.299 459.088C364.081 459.19 363.857 459.269 363.634 459.328L363.615 459.332L363.611 459.333L363.606 459.335C363.102 459.457 362.595 459.43 362.1 459.332C361.972 459.305 361.856 459.27 361.729 459.228C361.281 459.085 360.871 458.874 360.506 458.574C360.464 458.541 360.415 458.538 360.382 458.503L360.294 458.422L333.741 434.059L333.733 434.046C333.383 433.724 333.105 433.344 332.916 432.924C332.885 432.859 332.891 432.784 332.864 432.713C332.712 432.328 332.618 431.923 332.613 431.502C332.611 431.075 332.667 430.648 332.811 430.244L332.812 430.224L341.535 406.632L314.574 396.606L305.851 420.179C305.828 420.243 305.769 420.282 305.744 420.337C305.558 420.751 305.311 421.112 304.994 421.428C304.901 421.523 304.811 421.613 304.71 421.696C304.316 422.011 303.882 422.267 303.373 422.391L303.369 422.392L303.364 422.393L303.346 422.398C303.138 422.443 302.924 422.481 302.702 422.486L266.517 424.284C266.43 424.285 266.362 424.248 266.279 424.244C265.99 424.237 265.721 424.191 265.447 424.122C265.295 424.076 265.14 424.056 264.998 423.993C264.724 423.885 264.489 423.719 264.252 423.543C264.14 423.464 264.018 423.401 263.919 423.313C263.678 423.081 263.488 422.801 263.314 422.504C263.263 422.414 263.185 422.356 263.147 422.258C263.147 422.258 263.129 422.243 263.126 422.229L252.53 399.2L226.434 411.505L236.952 434.213C237.159 434.643 237.267 435.107 237.283 435.575C237.293 435.772 237.225 435.953 237.2 436.149C237.166 436.41 237.166 436.667 237.08 436.912C236.948 437.269 236.738 437.583 236.5 437.883C236.45 437.954 236.434 438.031 236.377 438.093L212.295 464.646C212.229 464.715 212.156 464.752 212.088 464.813C212.009 464.886 211.935 464.942 211.848 465.002C211.436 465.326 210.998 465.583 210.508 465.703L210.503 465.704L210.498 465.705C210.022 465.821 209.507 465.801 208.997 465.702C208.901 465.687 208.81 465.675 208.712 465.65C208.628 465.627 208.547 465.632 208.463 465.604L184.744 457.062L174.845 484.021L198.488 492.911L198.503 492.913L198.508 492.916C198.556 492.934 198.586 492.975 198.634 492.992C199.014 493.157 199.37 493.362 199.672 493.643C199.824 493.79 199.92 493.986 200.049 494.154C200.199 494.35 200.367 494.523 200.47 494.746C200.639 495.103 200.715 495.492 200.754 495.891C200.76 495.957 200.796 496.007 200.798 496.074L200.801 496.084L200.797 496.089L202.373 532.125L202.372 532.14C202.372 532.241 202.335 532.348 202.331 532.451C202.311 532.786 202.281 533.123 202.171 533.427C202.124 533.555 202.045 533.667 201.985 533.783C201.857 534.053 201.724 534.304 201.531 534.53C201.43 534.652 201.302 534.747 201.183 534.858C200.976 535.045 200.765 535.213 200.515 535.346C200.442 535.384 200.4 535.452 200.322 535.49L177.432 546.057L189.443 572.224L212.497 561.613C212.545 561.591 212.591 561.6 212.635 561.579C213.023 561.417 213.43 561.313 213.849 561.298C213.969 561.293 214.083 561.343 214.201 561.348C214.532 561.37 214.868 561.395 215.187 561.506C215.428 561.598 215.629 561.768 215.847 561.904C216.014 562.009 216.198 562.067 216.353 562.204L242.905 586.285C242.905 586.285 242.915 586.307 242.927 586.314C243.184 586.552 243.363 586.849 243.536 587.142C243.594 587.239 243.692 587.322 243.742 587.427C243.785 587.523 243.784 587.64 243.819 587.743C243.931 588.066 244.046 588.397 244.061 588.738C244.065 588.815 244.03 588.887 244.029 588.965C244.021 589.351 243.979 589.735 243.847 590.112C243.845 590.122 243.847 590.131 243.847 590.131L235.123 613.719L262.237 623.717L270.793 600.199L270.804 600.182C271.19 599.136 272.082 598.37 273.175 598.069C273.442 597.99 273.69 597.89 273.969 597.881L273.992 597.875L309.907 596.523C310.234 596.511 310.534 596.603 310.838 596.675C310.961 596.703 311.094 596.69 311.216 596.733C311.525 596.842 311.789 597.031 312.048 597.215C312.165 597.298 312.298 597.344 312.402 597.43C312.64 597.649 312.807 597.919 312.981 598.193C313.059 598.315 313.172 598.399 313.233 598.53L324.09 621.199L350.267 609.025L339.696 586.136C339.675 586.092 339.683 586.047 339.665 586.012C339.502 585.62 339.393 585.214 339.378 584.795C339.373 584.592 339.435 584.407 339.463 584.206C339.498 583.949 339.499 583.697 339.586 583.452C339.721 583.089 339.932 582.76 340.181 582.447C340.226 582.392 340.239 582.326 340.285 582.276L340.289 582.27L364.367 555.724L364.387 555.709C364.656 555.415 364.983 555.204 365.33 555.013C365.395 554.978 365.442 554.913 365.507 554.882C365.717 554.787 365.948 554.775 366.172 554.72C366.392 554.667 366.607 554.571 366.833 554.559C366.929 554.555 367.027 554.599 367.124 554.6C367.487 554.614 367.85 554.647 368.2 554.77L368.236 554.776L392.024 563.626L401.991 536.364L378.3 527.835C378.29 527.833 378.283 527.825 378.283 527.825C377.914 527.686 377.604 527.471 377.309 527.236C376.976 526.968 376.721 526.656 376.507 526.3C376.444 526.199 376.353 526.124 376.302 526.015C376.103 525.597 375.991 525.138 375.969 524.668C375.969 524.668 375.967 524.658 375.966 524.654L374.424 488.8Z"/>
</mask>
<path d="M374.424 488.8C374.405 488.323 374.48 487.853 374.641 487.416C374.681 487.304 374.76 487.226 374.808 487.127C375.141 486.419 375.675 485.799 376.435 485.429L399.264 474.532L386.913 448.264L364.299 459.088C364.081 459.19 363.857 459.269 363.634 459.328L363.615 459.332L363.611 459.333L363.606 459.335C363.102 459.457 362.595 459.43 362.1 459.332C361.972 459.305 361.856 459.27 361.729 459.228C361.281 459.085 360.871 458.874 360.506 458.574C360.464 458.541 360.415 458.538 360.382 458.503L360.294 458.422L333.741 434.059L333.733 434.046C333.383 433.724 333.105 433.344 332.916 432.924C332.885 432.859 332.891 432.784 332.864 432.713C332.712 432.328 332.618 431.923 332.613 431.502C332.611 431.075 332.667 430.648 332.811 430.244L332.812 430.224L341.535 406.632L314.574 396.606L305.851 420.179C305.828 420.243 305.769 420.282 305.744 420.337C305.558 420.751 305.311 421.112 304.994 421.428C304.901 421.523 304.811 421.613 304.71 421.696C304.316 422.011 303.882 422.267 303.373 422.391L303.369 422.392L303.364 422.393L303.346 422.398C303.138 422.443 302.924 422.481 302.702 422.486L266.517 424.284C266.43 424.285 266.362 424.248 266.279 424.244C265.99 424.237 265.721 424.191 265.447 424.122C265.295 424.076 265.14 424.056 264.998 423.993C264.724 423.885 264.489 423.719 264.252 423.543C264.14 423.464 264.018 423.401 263.919 423.313C263.678 423.081 263.488 422.801 263.314 422.504C263.263 422.414 263.185 422.356 263.147 422.258C263.147 422.258 263.129 422.243 263.126 422.229L252.53 399.2L226.434 411.505L236.952 434.213C237.159 434.643 237.267 435.107 237.283 435.575C237.293 435.772 237.225 435.953 237.2 436.149C237.166 436.41 237.166 436.667 237.08 436.912C236.948 437.269 236.738 437.583 236.5 437.883C236.45 437.954 236.434 438.031 236.377 438.093L212.295 464.646C212.229 464.715 212.156 464.752 212.088 464.813C212.009 464.886 211.935 464.942 211.848 465.002C211.436 465.326 210.998 465.583 210.508 465.703L210.503 465.704L210.498 465.705C210.022 465.821 209.507 465.801 208.997 465.702C208.901 465.687 208.81 465.675 208.712 465.65C208.628 465.627 208.547 465.632 208.463 465.604L184.744 457.062L174.845 484.021L198.488 492.911L198.503 492.913L198.508 492.916C198.556 492.934 198.586 492.975 198.634 492.992C199.014 493.157 199.37 493.362 199.672 493.643C199.824 493.79 199.92 493.986 200.049 494.154C200.199 494.35 200.367 494.523 200.47 494.746C200.639 495.103 200.715 495.492 200.754 495.891C200.76 495.957 200.796 496.007 200.798 496.074L200.801 496.084L200.797 496.089L202.373 532.125L202.372 532.14C202.372 532.241 202.335 532.348 202.331 532.451C202.311 532.786 202.281 533.123 202.171 533.427C202.124 533.555 202.045 533.667 201.985 533.783C201.857 534.053 201.724 534.304 201.531 534.53C201.43 534.652 201.302 534.747 201.183 534.858C200.976 535.045 200.765 535.213 200.515 535.346C200.442 535.384 200.4 535.452 200.322 535.49L177.432 546.057L189.443 572.224L212.497 561.613C212.545 561.591 212.591 561.6 212.635 561.579C213.023 561.417 213.43 561.313 213.849 561.298C213.969 561.293 214.083 561.343 214.201 561.348C214.532 561.37 214.868 561.395 215.187 561.506C215.428 561.598 215.629 561.768 215.847 561.904C216.014 562.009 216.198 562.067 216.353 562.204L242.905 586.285C242.905 586.285 242.915 586.307 242.927 586.314C243.184 586.552 243.363 586.849 243.536 587.142C243.594 587.239 243.692 587.322 243.742 587.427C243.785 587.523 243.784 587.64 243.819 587.743C243.931 588.066 244.046 588.397 244.061 588.738C244.065 588.815 244.03 588.887 244.029 588.965C244.021 589.351 243.979 589.735 243.847 590.112C243.845 590.122 243.847 590.131 243.847 590.131L235.123 613.719L262.237 623.717L270.793 600.199L270.804 600.182C271.19 599.136 272.082 598.37 273.175 598.069C273.442 597.99 273.69 597.89 273.969 597.881L273.992 597.875L309.907 596.523C310.234 596.511 310.534 596.603 310.838 596.675C310.961 596.703 311.094 596.69 311.216 596.733C311.525 596.842 311.789 597.031 312.048 597.215C312.165 597.298 312.298 597.344 312.402 597.43C312.64 597.649 312.807 597.919 312.981 598.193C313.059 598.315 313.172 598.399 313.233 598.53L324.09 621.199L350.267 609.025L339.696 586.136C339.675 586.092 339.683 586.047 339.665 586.012C339.502 585.62 339.393 585.214 339.378 584.795C339.373 584.592 339.435 584.407 339.463 584.206C339.498 583.949 339.499 583.697 339.586 583.452C339.721 583.089 339.932 582.76 340.181 582.447C340.226 582.392 340.239 582.326 340.285 582.276L340.289 582.27L364.367 555.724L364.387 555.709C364.656 555.415 364.983 555.204 365.33 555.013C365.395 554.978 365.442 554.913 365.507 554.882C365.717 554.787 365.948 554.775 366.172 554.72C366.392 554.667 366.607 554.571 366.833 554.559C366.929 554.555 367.027 554.599 367.124 554.6C367.487 554.614 367.85 554.647 368.2 554.77L368.236 554.776L392.024 563.626L401.991 536.364L378.3 527.835C378.29 527.833 378.283 527.825 378.283 527.825C377.914 527.686 377.604 527.471 377.309 527.236C376.976 526.968 376.721 526.656 376.507 526.3C376.444 526.199 376.353 526.124 376.302 526.015C376.103 525.597 375.991 525.138 375.969 524.668C375.969 524.668 375.967 524.658 375.966 524.654L374.424 488.8Z" fill="black"/>
<path d="M374.424 488.8C374.405 488.323 374.48 487.853 374.641 487.416C374.681 487.304 374.76 487.226 374.808 487.127C375.141 486.419 375.675 485.799 376.435 485.429L399.264 474.532L386.913 448.264L364.299 459.088C364.081 459.19 363.857 459.269 363.634 459.328L363.615 459.332L363.611 459.333L363.606 459.335C363.102 459.457 362.595 459.43 362.1 459.332C361.972 459.305 361.856 459.27 361.729 459.228C361.281 459.085 360.871 458.874 360.506 458.574C360.464 458.541 360.415 458.538 360.382 458.503L360.294 458.422L333.741 434.059L333.733 434.046C333.383 433.724 333.105 433.344 332.916 432.924C332.885 432.859 332.891 432.784 332.864 432.713C332.712 432.328 332.618 431.923 332.613 431.502C332.611 431.075 332.667 430.648 332.811 430.244L332.812 430.224L341.535 406.632L314.574 396.606L305.851 420.179C305.828 420.243 305.769 420.282 305.744 420.337C305.558 420.751 305.311 421.112 304.994 421.428C304.901 421.523 304.811 421.613 304.71 421.696C304.316 422.011 303.882 422.267 303.373 422.391L303.369 422.392L303.364 422.393L303.346 422.398C303.138 422.443 302.924 422.481 302.702 422.486L266.517 424.284C266.43 424.285 266.362 424.248 266.279 424.244C265.99 424.237 265.721 424.191 265.447 424.122C265.295 424.076 265.14 424.056 264.998 423.993C264.724 423.885 264.489 423.719 264.252 423.543C264.14 423.464 264.018 423.401 263.919 423.313C263.678 423.081 263.488 422.801 263.314 422.504C263.263 422.414 263.185 422.356 263.147 422.258C263.147 422.258 263.129 422.243 263.126 422.229L252.53 399.2L226.434 411.505L236.952 434.213C237.159 434.643 237.267 435.107 237.283 435.575C237.293 435.772 237.225 435.953 237.2 436.149C237.166 436.41 237.166 436.667 237.08 436.912C236.948 437.269 236.738 437.583 236.5 437.883C236.45 437.954 236.434 438.031 236.377 438.093L212.295 464.646C212.229 464.715 212.156 464.752 212.088 464.813C212.009 464.886 211.935 464.942 211.848 465.002C211.436 465.326 210.998 465.583 210.508 465.703L210.503 465.704L210.498 465.705C210.022 465.821 209.507 465.801 208.997 465.702C208.901 465.687 208.81 465.675 208.712 465.65C208.628 465.627 208.547 465.632 208.463 465.604L184.744 457.062L174.845 484.021L198.488 492.911L198.503 492.913L198.508 492.916C198.556 492.934 198.586 492.975 198.634 492.992C199.014 493.157 199.37 493.362 199.672 493.643C199.824 493.79 199.92 493.986 200.049 494.154C200.199 494.35 200.367 494.523 200.47 494.746C200.639 495.103 200.715 495.492 200.754 495.891C200.76 495.957 200.796 496.007 200.798 496.074L200.801 496.084L200.797 496.089L202.373 532.125L202.372 532.14C202.372 532.241 202.335 532.348 202.331 532.451C202.311 532.786 202.281 533.123 202.171 533.427C202.124 533.555 202.045 533.667 201.985 533.783C201.857 534.053 201.724 534.304 201.531 534.53C201.43 534.652 201.302 534.747 201.183 534.858C200.976 535.045 200.765 535.213 200.515 535.346C200.442 535.384 200.4 535.452 200.322 535.49L177.432 546.057L189.443 572.224L212.497 561.613C212.545 561.591 212.591 561.6 212.635 561.579C213.023 561.417 213.43 561.313 213.849 561.298C213.969 561.293 214.083 561.343 214.201 561.348C214.532 561.37 214.868 561.395 215.187 561.506C215.428 561.598 215.629 561.768 215.847 561.904C216.014 562.009 216.198 562.067 216.353 562.204L242.905 586.285C242.905 586.285 242.915 586.307 242.927 586.314C243.184 586.552 243.363 586.849 243.536 587.142C243.594 587.239 243.692 587.322 243.742 587.427C243.785 587.523 243.784 587.64 243.819 587.743C243.931 588.066 244.046 588.397 244.061 588.738C244.065 588.815 244.03 588.887 244.029 588.965C244.021 589.351 243.979 589.735 243.847 590.112C243.845 590.122 243.847 590.131 243.847 590.131L235.123 613.719L262.237 623.717L270.793 600.199L270.804 600.182C271.19 599.136 272.082 598.37 273.175 598.069C273.442 597.99 273.69 597.89 273.969 597.881L273.992 597.875L309.907 596.523C310.234 596.511 310.534 596.603 310.838 596.675C310.961 596.703 311.094 596.69 311.216 596.733C311.525 596.842 311.789 597.031 312.048 597.215C312.165 597.298 312.298 597.344 312.402 597.43C312.64 597.649 312.807 597.919 312.981 598.193C313.059 598.315 313.172 598.399 313.233 598.53L324.09 621.199L350.267 609.025L339.696 586.136C339.675 586.092 339.683 586.047 339.665 586.012C339.502 585.62 339.393 585.214 339.378 584.795C339.373 584.592 339.435 584.407 339.463 584.206C339.498 583.949 339.499 583.697 339.586 583.452C339.721 583.089 339.932 582.76 340.181 582.447C340.226 582.392 340.239 582.326 340.285 582.276L340.289 582.27L364.367 555.724L364.387 555.709C364.656 555.415 364.983 555.204 365.33 555.013C365.395 554.978 365.442 554.913 365.507 554.882C365.717 554.787 365.948 554.775 366.172 554.72C366.392 554.667 366.607 554.571 366.833 554.559C366.929 554.555 367.027 554.599 367.124 554.6C367.487 554.614 367.85 554.647 368.2 554.77L368.236 554.776L392.024 563.626L401.991 536.364L378.3 527.835C378.29 527.833 378.283 527.825 378.283 527.825C377.914 527.686 377.604 527.471 377.309 527.236C376.976 526.968 376.721 526.656 376.507 526.3C376.444 526.199 376.353 526.124 376.302 526.015C376.103 525.597 375.991 525.138 375.969 524.668C375.969 524.668 375.967 524.658 375.966 524.654L374.424 488.8Z" stroke="black" stroke-width="6" mask="url(#path-1-outside-1)"/>
<mask id="path-2-outside-2" maskUnits="userSpaceOnUse" x="0.0227705" y="332.407" width="174.712" height="174.712" fill="black">
<rect fill="white" x="0.0227705" y="332.407" width="174.712" height="174.712"/>
<path d="M122.013 465.888C122.013 465.888 122.01 465.882 122.011 465.876C121.873 465.615 121.792 465.331 121.772 465.041C121.757 464.896 121.801 464.757 121.816 464.614C121.832 464.469 121.823 464.324 121.865 464.182C121.954 463.904 122.095 463.643 122.284 463.417L122.288 463.408L136.851 446.104C137.227 445.64 137.779 445.35 138.374 445.302C138.668 445.275 138.961 445.309 139.248 445.399L154.324 450.052L159.633 432.632L144.515 427.756C144.465 427.739 144.436 427.703 144.39 427.683C144.223 427.617 144.077 427.527 143.932 427.428C143.848 427.368 143.76 427.323 143.689 427.253C143.547 427.124 143.44 426.969 143.338 426.805C143.294 426.738 143.236 426.684 143.199 426.608C143.093 426.393 143.025 426.152 142.992 425.9C142.989 425.869 142.974 425.841 142.971 425.814L141.008 403.258C141.005 403.255 141.005 403.252 141.005 403.252C140.98 402.953 141.013 402.665 141.102 402.387C141.146 402.251 141.233 402.137 141.303 402.012C141.374 401.882 141.421 401.746 141.517 401.63C141.678 401.44 141.877 401.284 142.098 401.155C142.133 401.131 142.154 401.098 142.186 401.08L156.2 393.624L147.642 377.6L133.616 385.058C133.562 385.085 133.51 385.092 133.454 385.113C133.395 385.14 133.339 385.155 133.277 385.175C132.966 385.281 132.648 385.337 132.334 385.304L132.331 385.304L132.328 385.304C132.02 385.271 131.721 385.15 131.439 384.983C131.379 384.949 131.328 384.923 131.272 384.884C131.228 384.853 131.176 384.835 131.131 384.8L113.582 370.202C113.353 370.01 113.168 369.778 113.033 369.518C112.97 369.403 112.96 369.273 112.919 369.149C112.872 368.997 112.8 368.852 112.784 368.695C112.754 368.407 112.782 368.116 112.868 367.834C112.868 367.834 112.869 367.831 112.869 367.828L117.557 352.501L100.157 347.2L95.5138 362.184L95.5096 362.196C95.424 362.469 95.2879 362.709 95.122 362.92C95.077 362.978 95.016 363.016 94.9626 363.068C94.8246 363.212 94.6819 363.344 94.5124 363.446C94.4291 363.497 94.3337 363.52 94.2458 363.559C94.0793 363.631 93.9174 363.689 93.7345 363.718C93.6856 363.728 93.6528 363.755 93.6012 363.761L70.8816 366.061C70.7303 366.075 70.5835 366.074 70.4409 366.062L70.426 366.061C70.426 366.061 70.426 366.061 70.4231 366.061L70.4201 366.06C70.094 366.026 69.7957 365.899 69.5221 365.735C69.4487 365.692 69.3875 365.646 69.3211 365.594C69.0852 365.414 68.8854 365.204 68.7357 364.946C68.7181 364.914 68.6864 364.901 68.6714 364.873L61.3295 350.769L45.0872 359.325L52.4417 373.452C52.4417 373.452 52.444 373.458 52.4434 373.464C52.581 373.724 52.6621 374.008 52.6826 374.298C52.6974 374.443 52.6528 374.583 52.6379 374.725C52.6227 374.87 52.6315 375.015 52.5895 375.157C52.5004 375.436 52.3592 375.697 52.1706 375.923L52.1667 375.931L37.5983 393.25C37.5705 393.286 37.5278 393.293 37.4977 393.323C37.3057 393.525 37.0792 393.684 36.8268 393.804C36.7507 393.844 36.6785 393.876 36.5944 393.906C36.2961 394.006 35.9841 394.067 35.658 394.032L35.655 394.032L35.6521 394.032C35.6521 394.032 35.6432 394.031 35.6402 394.031C35.5012 394.013 35.3634 393.984 35.2239 393.942L20.2398 389.296L14.8473 406.683L29.9094 411.329C30.5554 411.513 31.0621 411.998 31.323 412.625C31.4093 412.832 31.4886 413.047 31.5101 413.271L31.5144 413.286L33.455 436.085C33.4809 436.381 33.4472 436.675 33.3551 436.953C33.3147 437.08 33.2324 437.18 33.1725 437.293C33.0977 437.435 33.046 437.586 32.9433 437.707C32.7584 437.927 32.5291 438.113 32.2689 438.25L32.2686 438.253L18.2714 445.606L26.825 461.732L40.8453 454.273L40.8607 454.269C41.1209 454.131 41.4054 454.047 41.6927 454.023C41.7956 454.013 41.8939 454.047 41.9983 454.052C42.2308 454.065 42.4552 454.097 42.6769 454.183C42.9016 454.27 43.1218 454.371 43.3153 454.526L43.3266 454.533L60.8784 469.135L60.881 469.138C61.1067 469.33 61.2925 469.559 61.4271 469.819C61.4897 469.937 61.503 470.067 61.5436 470.194C61.5907 470.346 61.66 470.485 61.6735 470.642C61.7029 470.933 61.6722 471.226 61.5854 471.511L61.5851 471.514L56.9227 486.625L74.4152 492.131L79.0839 476.93L79.0911 476.919C79.1805 476.638 79.3215 476.38 79.5041 476.153C79.5276 476.129 79.5588 476.117 79.5791 476.095C79.9417 475.695 80.4357 475.414 81.0137 475.361L103.593 473.281L103.602 473.282C103.899 473.256 104.192 473.287 104.474 473.376C104.595 473.416 104.692 473.498 104.805 473.558C104.947 473.63 105.101 473.682 105.222 473.784C105.448 473.973 105.634 474.202 105.774 474.465C105.774 474.468 105.777 474.469 105.777 474.469L113.131 488.478L129.361 480.013L122.013 465.888Z"/>
</mask>
<path d="M122.013 465.888C122.013 465.888 122.01 465.882 122.011 465.876C121.873 465.615 121.792 465.331 121.772 465.041C121.757 464.896 121.801 464.757 121.816 464.614C121.832 464.469 121.823 464.324 121.865 464.182C121.954 463.904 122.095 463.643 122.284 463.417L122.288 463.408L136.851 446.104C137.227 445.64 137.779 445.35 138.374 445.302C138.668 445.275 138.961 445.309 139.248 445.399L154.324 450.052L159.633 432.632L144.515 427.756C144.465 427.739 144.436 427.703 144.39 427.683C144.223 427.617 144.077 427.527 143.932 427.428C143.848 427.368 143.76 427.323 143.689 427.253C143.547 427.124 143.44 426.969 143.338 426.805C143.294 426.738 143.236 426.684 143.199 426.608C143.093 426.393 143.025 426.152 142.992 425.9C142.989 425.869 142.974 425.841 142.971 425.814L141.008 403.258C141.005 403.255 141.005 403.252 141.005 403.252C140.98 402.953 141.013 402.665 141.102 402.387C141.146 402.251 141.233 402.137 141.303 402.012C141.374 401.882 141.421 401.746 141.517 401.63C141.678 401.44 141.877 401.284 142.098 401.155C142.133 401.131 142.154 401.098 142.186 401.08L156.2 393.624L147.642 377.6L133.616 385.058C133.562 385.085 133.51 385.092 133.454 385.113C133.395 385.14 133.339 385.155 133.277 385.175C132.966 385.281 132.648 385.337 132.334 385.304L132.331 385.304L132.328 385.304C132.02 385.271 131.721 385.15 131.439 384.983C131.379 384.949 131.328 384.923 131.272 384.884C131.228 384.853 131.176 384.835 131.131 384.8L113.582 370.202C113.353 370.01 113.168 369.778 113.033 369.518C112.97 369.403 112.96 369.273 112.919 369.149C112.872 368.997 112.8 368.852 112.784 368.695C112.754 368.407 112.782 368.116 112.868 367.834C112.868 367.834 112.869 367.831 112.869 367.828L117.557 352.501L100.157 347.2L95.5138 362.184L95.5096 362.196C95.424 362.469 95.2879 362.709 95.122 362.92C95.077 362.978 95.016 363.016 94.9626 363.068C94.8246 363.212 94.6819 363.344 94.5124 363.446C94.4291 363.497 94.3337 363.52 94.2458 363.559C94.0793 363.631 93.9174 363.689 93.7345 363.718C93.6856 363.728 93.6528 363.755 93.6012 363.761L70.8816 366.061C70.7303 366.075 70.5835 366.074 70.4409 366.062L70.426 366.061C70.426 366.061 70.426 366.061 70.4231 366.061L70.4201 366.06C70.094 366.026 69.7957 365.899 69.5221 365.735C69.4487 365.692 69.3875 365.646 69.3211 365.594C69.0852 365.414 68.8854 365.204 68.7357 364.946C68.7181 364.914 68.6864 364.901 68.6714 364.873L61.3295 350.769L45.0872 359.325L52.4417 373.452C52.4417 373.452 52.444 373.458 52.4434 373.464C52.581 373.724 52.6621 374.008 52.6826 374.298C52.6974 374.443 52.6528 374.583 52.6379 374.725C52.6227 374.87 52.6315 375.015 52.5895 375.157C52.5004 375.436 52.3592 375.697 52.1706 375.923L52.1667 375.931L37.5983 393.25C37.5705 393.286 37.5278 393.293 37.4977 393.323C37.3057 393.525 37.0792 393.684 36.8268 393.804C36.7507 393.844 36.6785 393.876 36.5944 393.906C36.2961 394.006 35.9841 394.067 35.658 394.032L35.655 394.032L35.6521 394.032C35.6521 394.032 35.6432 394.031 35.6402 394.031C35.5012 394.013 35.3634 393.984 35.2239 393.942L20.2398 389.296L14.8473 406.683L29.9094 411.329C30.5554 411.513 31.0621 411.998 31.323 412.625C31.4093 412.832 31.4886 413.047 31.5101 413.271L31.5144 413.286L33.455 436.085C33.4809 436.381 33.4472 436.675 33.3551 436.953C33.3147 437.08 33.2324 437.18 33.1725 437.293C33.0977 437.435 33.046 437.586 32.9433 437.707C32.7584 437.927 32.5291 438.113 32.2689 438.25L32.2686 438.253L18.2714 445.606L26.825 461.732L40.8453 454.273L40.8607 454.269C41.1209 454.131 41.4054 454.047 41.6927 454.023C41.7956 454.013 41.8939 454.047 41.9983 454.052C42.2308 454.065 42.4552 454.097 42.6769 454.183C42.9016 454.27 43.1218 454.371 43.3153 454.526L43.3266 454.533L60.8784 469.135L60.881 469.138C61.1067 469.33 61.2925 469.559 61.4271 469.819C61.4897 469.937 61.503 470.067 61.5436 470.194C61.5907 470.346 61.66 470.485 61.6735 470.642C61.7029 470.933 61.6722 471.226 61.5854 471.511L61.5851 471.514L56.9227 486.625L74.4152 492.131L79.0839 476.93L79.0911 476.919C79.1805 476.638 79.3215 476.38 79.5041 476.153C79.5276 476.129 79.5588 476.117 79.5791 476.095C79.9417 475.695 80.4357 475.414 81.0137 475.361L103.593 473.281L103.602 473.282C103.899 473.256 104.192 473.287 104.474 473.376C104.595 473.416 104.692 473.498 104.805 473.558C104.947 473.63 105.101 473.682 105.222 473.784C105.448 473.973 105.634 474.202 105.774 474.465C105.774 474.468 105.777 474.469 105.777 474.469L113.131 488.478L129.361 480.013L122.013 465.888Z" fill="black"/>
<path d="M122.013 465.888C122.013 465.888 122.01 465.882 122.011 465.876C121.873 465.615 121.792 465.331 121.772 465.041C121.757 464.896 121.801 464.757 121.816 464.614C121.832 464.469 121.823 464.324 121.865 464.182C121.954 463.904 122.095 463.643 122.284 463.417L122.288 463.408L136.851 446.104C137.227 445.64 137.779 445.35 138.374 445.302C138.668 445.275 138.961 445.309 139.248 445.399L154.324 450.052L159.633 432.632L144.515 427.756C144.465 427.739 144.436 427.703 144.39 427.683C144.223 427.617 144.077 427.527 143.932 427.428C143.848 427.368 143.76 427.323 143.689 427.253C143.547 427.124 143.44 426.969 143.338 426.805C143.294 426.738 143.236 426.684 143.199 426.608C143.093 426.393 143.025 426.152 142.992 425.9C142.989 425.869 142.974 425.841 142.971 425.814L141.008 403.258C141.005 403.255 141.005 403.252 141.005 403.252C140.98 402.953 141.013 402.665 141.102 402.387C141.146 402.251 141.233 402.137 141.303 402.012C141.374 401.882 141.421 401.746 141.517 401.63C141.678 401.44 141.877 401.284 142.098 401.155C142.133 401.131 142.154 401.098 142.186 401.08L156.2 393.624L147.642 377.6L133.616 385.058C133.562 385.085 133.51 385.092 133.454 385.113C133.395 385.14 133.339 385.155 133.277 385.175C132.966 385.281 132.648 385.337 132.334 385.304L132.331 385.304L132.328 385.304C132.02 385.271 131.721 385.15 131.439 384.983C131.379 384.949 131.328 384.923 131.272 384.884C131.228 384.853 131.176 384.835 131.131 384.8L113.582 370.202C113.353 370.01 113.168 369.778 113.033 369.518C112.97 369.403 112.96 369.273 112.919 369.149C112.872 368.997 112.8 368.852 112.784 368.695C112.754 368.407 112.782 368.116 112.868 367.834C112.868 367.834 112.869 367.831 112.869 367.828L117.557 352.501L100.157 347.2L95.5138 362.184L95.5096 362.196C95.424 362.469 95.2879 362.709 95.122 362.92C95.077 362.978 95.016 363.016 94.9626 363.068C94.8246 363.212 94.6819 363.344 94.5124 363.446C94.4291 363.497 94.3337 363.52 94.2458 363.559C94.0793 363.631 93.9174 363.689 93.7345 363.718C93.6856 363.728 93.6528 363.755 93.6012 363.761L70.8816 366.061C70.7303 366.075 70.5835 366.074 70.4409 366.062L70.426 366.061C70.426 366.061 70.426 366.061 70.4231 366.061L70.4201 366.06C70.094 366.026 69.7957 365.899 69.5221 365.735C69.4487 365.692 69.3875 365.646 69.3211 365.594C69.0852 365.414 68.8854 365.204 68.7357 364.946C68.7181 364.914 68.6864 364.901 68.6714 364.873L61.3295 350.769L45.0872 359.325L52.4417 373.452C52.4417 373.452 52.444 373.458 52.4434 373.464C52.581 373.724 52.6621 374.008 52.6826 374.298C52.6974 374.443 52.6528 374.583 52.6379 374.725C52.6227 374.87 52.6315 375.015 52.5895 375.157C52.5004 375.436 52.3592 375.697 52.1706 375.923L52.1667 375.931L37.5983 393.25C37.5705 393.286 37.5278 393.293 37.4977 393.323C37.3057 393.525 37.0792 393.684 36.8268 393.804C36.7507 393.844 36.6785 393.876 36.5944 393.906C36.2961 394.006 35.9841 394.067 35.658 394.032L35.655 394.032L35.6521 394.032C35.6521 394.032 35.6432 394.031 35.6402 394.031C35.5012 394.013 35.3634 393.984 35.2239 393.942L20.2398 389.296L14.8473 406.683L29.9094 411.329C30.5554 411.513 31.0621 411.998 31.323 412.625C31.4093 412.832 31.4886 413.047 31.5101 413.271L31.5144 413.286L33.455 436.085C33.4809 436.381 33.4472 436.675 33.3551 436.953C33.3147 437.08 33.2324 437.18 33.1725 437.293C33.0977 437.435 33.046 437.586 32.9433 437.707C32.7584 437.927 32.5291 438.113 32.2689 438.25L32.2686 438.253L18.2714 445.606L26.825 461.732L40.8453 454.273L40.8607 454.269C41.1209 454.131 41.4054 454.047 41.6927 454.023C41.7956 454.013 41.8939 454.047 41.9983 454.052C42.2308 454.065 42.4552 454.097 42.6769 454.183C42.9016 454.27 43.1218 454.371 43.3153 454.526L43.3266 454.533L60.8784 469.135L60.881 469.138C61.1067 469.33 61.2925 469.559 61.4271 469.819C61.4897 469.937 61.503 470.067 61.5436 470.194C61.5907 470.346 61.66 470.485 61.6735 470.642C61.7029 470.933 61.6722 471.226 61.5854 471.511L61.5851 471.514L56.9227 486.625L74.4152 492.131L79.0839 476.93L79.0911 476.919C79.1805 476.638 79.3215 476.38 79.5041 476.153C79.5276 476.129 79.5588 476.117 79.5791 476.095C79.9417 475.695 80.4357 475.414 81.0137 475.361L103.593 473.281L103.602 473.282C103.899 473.256 104.192 473.287 104.474 473.376C104.595 473.416 104.692 473.498 104.805 473.558C104.947 473.63 105.101 473.682 105.222 473.784C105.448 473.973 105.634 474.202 105.774 474.465C105.774 474.468 105.777 474.469 105.777 474.469L113.131 488.478L129.361 480.013L122.013 465.888Z" stroke="black" stroke-width="10" mask="url(#path-2-outside-2)"/>
<circle cx="288.322" cy="510.193" r="35.7601" transform="rotate(-13.6936 288.322 510.193)" fill="white"/>
<circle cx="87.2417" cy="419.168" r="38.3543" transform="rotate(5.9851 87.2417 419.168)" fill="white"/>
<circle cx="244.436" cy="218.416" r="133.138" transform="rotate(-41.5426 244.436 218.416)" fill="#3A68EE"/>
<path d="M140.904 134.45L122.847 121.654L109.861 139.978L128.057 152.751" stroke="#3A68EE" stroke-width="4"/>
<path d="M256.986 61.2118L257.048 59.2127L255.049 59.1515L232.6 58.4636L230.592 58.4021L230.54 60.4103L229.958 82.6336L229.905 84.633L231.905 84.6853L254.257 85.2708L256.247 85.3229L256.308 83.3327L256.986 61.2118Z" fill="#3A68EE" stroke="#3A68EE" stroke-width="4"/>
<path d="M324.403 84.9042L325.296 83.1145L323.506 82.2218L303.408 72.1983L301.611 71.3017L300.722 73.1034L290.889 93.0413L290.004 94.8351L291.798 95.7197L311.851 105.61L313.637 106.491L314.526 104.709L324.403 84.9042Z" fill="#3A68EE" stroke="#3A68EE" stroke-width="4"/>
<path d="M376.776 136.597L378.366 135.384L377.153 133.794L363.529 115.939L362.311 114.341L360.719 115.567L343.105 129.131L341.521 130.351L342.741 131.936L356.383 149.652L357.598 151.229L359.181 150.021L376.776 136.597Z" fill="#3A68EE" stroke="#3A68EE" stroke-width="4"/>
<path d="M400.472 206.98L402.447 206.663L402.131 204.688L398.578 182.512L398.261 180.529L396.278 180.855L374.343 184.47L372.37 184.795L372.695 186.768L376.33 208.831L376.654 210.795L378.62 210.48L400.472 206.98Z" fill="#3A68EE" stroke="#3A68EE" stroke-width="4"/>
<path d="M386.936 282.256L388.839 282.87L389.454 280.967L396.358 259.596L396.976 257.685L395.061 257.076L373.877 250.335L371.971 249.729L371.365 251.635L364.585 272.942L363.981 274.839L365.876 275.452L386.936 282.256Z" fill="#3A68EE" stroke="#3A68EE" stroke-width="4"/>
<path d="M335.322 344.735L336.614 346.261L338.14 344.968L355.277 330.452L356.81 329.153L355.505 327.626L341.06 310.728L339.761 309.207L338.24 310.507L321.243 325.035L319.73 326.329L321.017 327.848L335.322 344.735Z" fill="#3A68EE" stroke="#3A68EE" stroke-width="4"/>
<path d="M183.58 75.4681L182.617 73.7153L180.864 74.6785L161.181 85.4947L159.421 86.4622L160.396 88.2184L171.189 107.654L172.16 109.402L173.909 108.431L193.457 97.5754L195.197 96.6087L194.238 94.8637L183.58 75.4681Z" fill="#3A68EE" stroke="#3A68EE" stroke-width="4"/>
<path d="M122.702 121.146L121.056 120.009L119.919 121.654L107.152 140.131L106.009 141.783L107.667 142.918L126.012 155.475L127.663 156.604L128.792 154.954L141.422 136.502L142.547 134.859L140.909 133.727L122.702 121.146Z" fill="#3A68EE" stroke="#3A68EE" stroke-width="4"/>
<path d="M89.2685 190.641L87.2754 190.475L87.1096 192.468L85.2471 214.849L85.0805 216.851L87.0832 217.009L109.246 218.754L111.239 218.911L111.396 216.917L113.152 194.626L113.308 192.641L111.324 192.476L89.2685 190.641Z" fill="#3A68EE" stroke="#3A68EE" stroke-width="4"/>
<path d="M95.1264 264.007L93.256 264.715L93.9642 266.585L101.917 287.589L102.628 289.468L104.504 288.748L125.259 280.784L127.126 280.067L126.41 278.2L118.399 257.324L117.686 255.465L115.824 256.17L95.1264 264.007Z" fill="#3A68EE" stroke="#3A68EE" stroke-width="4"/>
<path d="M131.147 324.963L129.73 326.374L131.141 327.792L146.989 343.705L148.407 345.128L149.824 343.704L165.506 327.947L166.917 326.53L165.499 325.119L149.65 309.346L148.239 307.941L146.828 309.346L131.147 324.963Z" fill="#3A68EE" stroke="#3A68EE" stroke-width="4"/>
<path d="M190.295 366.426L189.86 368.378L191.813 368.812L213.736 373.688L215.697 374.124L216.124 372.161L220.854 350.439L221.279 348.485L219.325 348.059L197.477 343.302L195.532 342.878L195.099 344.822L190.295 366.426Z" fill="#3A68EE" stroke="#3A68EE" stroke-width="4"/>
<path d="M260.709 375.28L261.03 377.254L263.004 376.932L285.171 373.324L287.154 373.002L286.822 371.02L283.153 349.094L282.823 347.122L280.851 347.452L258.797 351.142L256.833 351.471L257.153 353.436L260.709 375.28Z" fill="#3A68EE" stroke="#3A68EE" stroke-width="4"/>
<path d="M313.394 105.499L323.832 85.9834L304.027 75.3917L293.63 95.0417" stroke="#3A68EE" stroke-width="4"/>
<path d="M357.699 148.834L375.22 135.312L361.498 117.533L343.959 131.193" stroke="#3A68EE" stroke-width="4"/>
<path d="M365.709 270.639L386.762 277.461L393.686 256.096L372.507 249.337" stroke="#3A68EE" stroke-width="4"/>
<circle cx="244.137" cy="218.745" r="13.1921" transform="rotate(40.3096 244.137 218.745)" stroke="white" stroke-width="2"/>
<circle cx="164.303" cy="222.356" r="13.1921" transform="rotate(40.3096 164.303 222.356)" stroke="white" stroke-width="2"/>
<circle cx="288.264" cy="280.995" r="13.1921" transform="rotate(40.3096 288.264 280.995)" stroke="white" stroke-width="2"/>
<circle cx="276.145" cy="143.538" r="13.1921" transform="rotate(40.3096 276.145 143.538)" stroke="white" stroke-width="2"/>
<circle cx="304.674" cy="210.001" r="36.9585" transform="rotate(40.3096 304.674 210.001)" fill="white"/>
<circle cx="219.444" cy="275.732" r="36.9585" transform="rotate(40.3096 219.444 275.732)" fill="white"/>
<circle cx="209.094" cy="170.017" r="36.9585" transform="rotate(40.3096 209.094 170.017)" fill="white"/>
<mask id="path-30-outside-3" maskUnits="userSpaceOnUse" x="403.658" y="128.013" width="151.092" height="151.092" fill="black">
<rect fill="white" x="403.658" y="128.013" width="151.092" height="151.092"/>
<path d="M492.907 162.787C492.707 162.67 492.534 162.517 492.397 162.337C492.362 162.291 492.35 162.239 492.323 162.193C492.12 161.872 492.005 161.491 492.053 161.083L493.56 148.893L479.582 147.083L478.102 159.165C478.087 159.281 478.06 159.393 478.026 159.5L478.022 159.513C477.94 159.752 477.797 159.952 477.627 160.129C477.583 160.175 477.538 160.213 477.488 160.254C477.312 160.399 477.118 160.513 476.9 160.583C476.876 160.592 476.862 160.611 476.839 160.615L476.783 160.63L459.873 165.129L459.866 165.129C459.642 165.188 459.415 165.202 459.193 165.17C459.158 165.166 459.13 165.144 459.093 165.136C458.896 165.098 458.706 165.03 458.532 164.923C458.357 164.812 458.197 164.677 458.069 164.512L458.061 164.507L450.686 154.772L439.538 163.185L446.905 172.915C446.925 172.941 446.925 172.975 446.941 173C447.062 173.184 447.145 173.38 447.192 173.592C447.206 173.655 447.22 173.715 447.227 173.778C447.253 174.022 447.245 174.266 447.162 174.507L447.158 174.52C447.122 174.617 447.082 174.714 447.026 174.807L438.304 190.084C438.282 190.12 438.25 190.138 438.226 190.171C438.148 190.287 438.059 190.385 437.959 190.479C437.9 190.53 437.851 190.588 437.789 190.63C437.673 190.713 437.543 190.766 437.41 190.817C437.348 190.842 437.29 190.876 437.229 190.893C437.07 190.931 436.907 190.936 436.739 190.93C436.689 190.927 436.645 190.943 436.595 190.934C436.595 190.934 436.584 190.937 436.578 190.935L424.385 189.252L422.6 203.147L434.641 204.778C434.871 204.805 435.09 204.882 435.285 204.998C435.368 205.045 435.425 205.12 435.498 205.182C435.596 205.264 435.701 205.331 435.779 205.43C435.891 205.578 435.964 205.746 436.025 205.921C436.041 205.961 436.068 205.987 436.079 206.027L440.651 222.821C440.662 222.866 440.658 222.906 440.665 222.949C440.674 223.001 440.678 223.046 440.68 223.097C440.705 223.35 440.696 223.597 440.617 223.829L440.615 223.833C440.538 224.059 440.395 224.264 440.221 224.447C440.19 224.482 440.161 224.516 440.126 224.55C440.094 224.578 440.075 224.612 440.041 224.64L430.347 232.113L438.792 243.21L448.609 235.858L448.614 235.852L448.617 235.851C448.636 235.836 448.661 235.835 448.681 235.82C448.848 235.707 449.024 235.615 449.218 235.565C449.318 235.541 449.423 235.553 449.526 235.544C449.645 235.534 449.76 235.51 449.878 235.526C450.068 235.55 450.248 235.621 450.421 235.71C450.45 235.724 450.479 235.722 450.508 235.739L450.512 235.741L450.513 235.744L465.672 244.516L465.677 244.521C465.719 244.547 465.753 244.59 465.794 244.619C465.926 244.715 466.056 244.815 466.152 244.94C466.192 244.992 466.217 245.054 466.249 245.108C466.326 245.232 466.394 245.352 466.436 245.49C466.459 245.563 466.465 245.64 466.479 245.718C466.501 245.851 466.515 245.982 466.505 246.118C466.501 246.158 466.518 246.193 466.513 246.235L464.855 258.364L478.702 260.287L480.385 248.08C480.389 248.055 480.404 248.038 480.407 248.015C480.442 247.814 480.506 247.62 480.609 247.445C480.638 247.394 480.689 247.36 480.722 247.314C480.817 247.184 480.915 247.053 481.044 246.952C481.145 246.877 481.267 246.839 481.379 246.785C481.466 246.745 481.537 246.684 481.634 246.657L498.428 242.084C498.428 242.084 498.44 242.086 498.445 242.083C498.61 242.04 498.778 242.044 498.943 242.05C498.999 242.052 499.058 242.033 499.114 242.04C499.165 242.048 499.212 242.079 499.264 242.092C499.425 242.13 499.591 242.169 499.734 242.252C499.767 242.271 499.787 242.304 499.818 242.325C499.974 242.429 500.12 242.547 500.24 242.699C500.244 242.703 500.248 242.704 500.248 242.704L507.621 252.439L518.798 243.956L511.41 234.308L511.406 234.3C511.079 233.868 510.998 233.303 511.161 232.777C511.198 232.647 511.222 232.52 511.291 232.403L511.295 232.392L520.128 217.341C520.209 217.204 520.325 217.106 520.433 217C520.477 216.957 520.507 216.899 520.556 216.861C520.682 216.763 520.828 216.704 520.971 216.646C521.036 216.62 521.089 216.578 521.151 216.558C521.303 216.518 521.457 216.52 521.615 216.52C521.685 216.52 521.749 216.496 521.818 216.505L533.932 217.986L535.792 204.093L523.662 202.437C523.639 202.434 523.623 202.418 523.604 202.417C523.401 202.381 523.206 202.32 523.031 202.216C522.946 202.165 522.887 202.092 522.812 202.027C522.716 201.946 522.613 201.879 522.535 201.78C522.422 201.63 522.343 201.458 522.28 201.274C522.269 201.241 522.245 201.219 522.237 201.187L522.236 201.184L517.665 184.393L517.664 184.38C517.614 184.194 517.613 184.005 517.626 183.813C517.628 183.777 517.614 183.741 517.619 183.706C517.635 183.595 517.69 183.498 517.726 183.392C517.762 183.288 517.778 183.175 517.833 183.079C517.856 183.039 517.9 183.01 517.926 182.971C518.026 182.826 518.134 182.686 518.276 182.575L518.288 182.562L528.127 175.14L519.575 163.937L509.894 171.403C509.89 171.406 509.885 171.407 509.885 171.407C509.732 171.522 509.563 171.592 509.39 171.652C509.193 171.718 508.998 171.741 508.797 171.735C508.739 171.734 508.684 171.752 508.626 171.744C508.403 171.717 508.187 171.643 507.988 171.529L507.982 171.526L492.907 162.787Z"/>
</mask>
<path d="M492.907 162.787C492.707 162.67 492.534 162.517 492.397 162.337C492.362 162.291 492.35 162.239 492.323 162.193C492.12 161.872 492.005 161.491 492.053 161.083L493.56 148.893L479.582 147.083L478.102 159.165C478.087 159.281 478.06 159.393 478.026 159.5L478.022 159.513C477.94 159.752 477.797 159.952 477.627 160.129C477.583 160.175 477.538 160.213 477.488 160.254C477.312 160.399 477.118 160.513 476.9 160.583C476.876 160.592 476.862 160.611 476.839 160.615L476.783 160.63L459.873 165.129L459.866 165.129C459.642 165.188 459.415 165.202 459.193 165.17C459.158 165.166 459.13 165.144 459.093 165.136C458.896 165.098 458.706 165.03 458.532 164.923C458.357 164.812 458.197 164.677 458.069 164.512L458.061 164.507L450.686 154.772L439.538 163.185L446.905 172.915C446.925 172.941 446.925 172.975 446.941 173C447.062 173.184 447.145 173.38 447.192 173.592C447.206 173.655 447.22 173.715 447.227 173.778C447.253 174.022 447.245 174.266 447.162 174.507L447.158 174.52C447.122 174.617 447.082 174.714 447.026 174.807L438.304 190.084C438.282 190.12 438.25 190.138 438.226 190.171C438.148 190.287 438.059 190.385 437.959 190.479C437.9 190.53 437.851 190.588 437.789 190.63C437.673 190.713 437.543 190.766 437.41 190.817C437.348 190.842 437.29 190.876 437.229 190.893C437.07 190.931 436.907 190.936 436.739 190.93C436.689 190.927 436.645 190.943 436.595 190.934C436.595 190.934 436.584 190.937 436.578 190.935L424.385 189.252L422.6 203.147L434.641 204.778C434.871 204.805 435.09 204.882 435.285 204.998C435.368 205.045 435.425 205.12 435.498 205.182C435.596 205.264 435.701 205.331 435.779 205.43C435.891 205.578 435.964 205.746 436.025 205.921C436.041 205.961 436.068 205.987 436.079 206.027L440.651 222.821C440.662 222.866 440.658 222.906 440.665 222.949C440.674 223.001 440.678 223.046 440.68 223.097C440.705 223.35 440.696 223.597 440.617 223.829L440.615 223.833C440.538 224.059 440.395 224.264 440.221 224.447C440.19 224.482 440.161 224.516 440.126 224.55C440.094 224.578 440.075 224.612 440.041 224.64L430.347 232.113L438.792 243.21L448.609 235.858L448.614 235.852L448.617 235.851C448.636 235.836 448.661 235.835 448.681 235.82C448.848 235.707 449.024 235.615 449.218 235.565C449.318 235.541 449.423 235.553 449.526 235.544C449.645 235.534 449.76 235.51 449.878 235.526C450.068 235.55 450.248 235.621 450.421 235.71C450.45 235.724 450.479 235.722 450.508 235.739L450.512 235.741L450.513 235.744L465.672 244.516L465.677 244.521C465.719 244.547 465.753 244.59 465.794 244.619C465.926 244.715 466.056 244.815 466.152 244.94C466.192 244.992 466.217 245.054 466.249 245.108C466.326 245.232 466.394 245.352 466.436 245.49C466.459 245.563 466.465 245.64 466.479 245.718C466.501 245.851 466.515 245.982 466.505 246.118C466.501 246.158 466.518 246.193 466.513 246.235L464.855 258.364L478.702 260.287L480.385 248.08C480.389 248.055 480.404 248.038 480.407 248.015C480.442 247.814 480.506 247.62 480.609 247.445C480.638 247.394 480.689 247.36 480.722 247.314C480.817 247.184 480.915 247.053 481.044 246.952C481.145 246.877 481.267 246.839 481.379 246.785C481.466 246.745 481.537 246.684 481.634 246.657L498.428 242.084C498.428 242.084 498.44 242.086 498.445 242.083C498.61 242.04 498.778 242.044 498.943 242.05C498.999 242.052 499.058 242.033 499.114 242.04C499.165 242.048 499.212 242.079 499.264 242.092C499.425 242.13 499.591 242.169 499.734 242.252C499.767 242.271 499.787 242.304 499.818 242.325C499.974 242.429 500.12 242.547 500.24 242.699C500.244 242.703 500.248 242.704 500.248 242.704L507.621 252.439L518.798 243.956L511.41 234.308L511.406 234.3C511.079 233.868 510.998 233.303 511.161 232.777C511.198 232.647 511.222 232.52 511.291 232.403L511.295 232.392L520.128 217.341C520.209 217.204 520.325 217.106 520.433 217C520.477 216.957 520.507 216.899 520.556 216.861C520.682 216.763 520.828 216.704 520.971 216.646C521.036 216.62 521.089 216.578 521.151 216.558C521.303 216.518 521.457 216.52 521.615 216.52C521.685 216.52 521.749 216.496 521.818 216.505L533.932 217.986L535.792 204.093L523.662 202.437C523.639 202.434 523.623 202.418 523.604 202.417C523.401 202.381 523.206 202.32 523.031 202.216C522.946 202.165 522.887 202.092 522.812 202.027C522.716 201.946 522.613 201.879 522.535 201.78C522.422 201.63 522.343 201.458 522.28 201.274C522.269 201.241 522.245 201.219 522.237 201.187L522.236 201.184L517.665 184.393L517.664 184.38C517.614 184.194 517.613 184.005 517.626 183.813C517.628 183.777 517.614 183.741 517.619 183.706C517.635 183.595 517.69 183.498 517.726 183.392C517.762 183.288 517.778 183.175 517.833 183.079C517.856 183.039 517.9 183.01 517.926 182.971C518.026 182.826 518.134 182.686 518.276 182.575L518.288 182.562L528.127 175.14L519.575 163.937L509.894 171.403C509.89 171.406 509.885 171.407 509.885 171.407C509.732 171.522 509.563 171.592 509.39 171.652C509.193 171.718 508.998 171.741 508.797 171.735C508.739 171.734 508.684 171.752 508.626 171.744C508.403 171.717 508.187 171.643 507.988 171.529L507.982 171.526L492.907 162.787Z" stroke="#3A68EE" stroke-width="4" mask="url(#path-30-outside-3)"/>
<path d="M448.186 290.017L447.696 287.057L444.736 287.548L433.861 289.349L430.888 289.842L431.394 292.812L433.225 303.569L433.729 306.526L436.686 306.023L447.505 304.181L450.45 303.68L449.962 300.733L448.186 290.017Z" fill="#3A68EE" stroke="#3A68EE" stroke-width="6"/>
<path d="M449.491 444.488L449.001 447.447L446.041 446.957L435.166 445.155L432.193 444.663L432.699 441.692L434.53 430.936L435.033 427.978L437.991 428.482L448.81 430.323L451.754 430.825L451.266 433.771L449.491 444.488Z" fill="#3A68EE" stroke="#3A68EE" stroke-width="6"/>
<path d="M500.383 303.426L501.803 300.784L499.16 299.364L489.449 294.147L486.794 292.721L485.38 295.382L480.259 305.018L478.851 307.667L481.501 309.075L491.192 314.225L493.829 315.627L495.243 312.996L500.383 303.426Z" fill="#3A68EE" stroke="#3A68EE" stroke-width="6"/>
<path d="M502.584 430.011L504.004 432.654L501.361 434.074L491.65 439.29L488.996 440.716L487.581 438.055L482.461 428.42L481.053 425.771L483.702 424.363L493.393 419.213L496.03 417.811L497.444 420.442L502.584 430.011Z" fill="#3A68EE" stroke="#3A68EE" stroke-width="6"/>
<path d="M530.558 344.817L533.335 343.683L532.201 340.906L528.033 330.701L526.894 327.911L524.109 329.063L514.026 333.233L511.254 334.379L512.4 337.152L516.595 347.293L517.736 350.053L520.501 348.924L530.558 344.817Z" fill="#3A68EE" stroke="#3A68EE" stroke-width="6"/>
<path d="M526.433 400.216L529.288 401.138L530.21 398.284L533.599 387.794L534.525 384.927L531.654 384.013L521.256 380.705L518.397 379.795L517.487 382.654L514.16 393.112L513.254 395.958L516.096 396.876L526.433 400.216Z" fill="#3A68EE" stroke="#3A68EE" stroke-width="6"/>
<path d="M401.644 309.201L399.37 307.244L397.413 309.518L390.222 317.873L388.257 320.157L390.549 322.112L398.851 329.193L401.134 331.14L403.081 328.857L410.203 320.507L412.141 318.235L409.877 316.287L401.644 309.201Z" fill="#3A68EE" stroke="#3A68EE" stroke-width="6"/>
<path d="M401.153 424.227L398.88 426.184L396.923 423.91L389.732 415.555L387.766 413.271L390.059 411.315L398.361 404.234L400.643 402.288L402.59 404.57L409.712 412.92L411.65 415.193L409.387 417.141L401.153 424.227Z" fill="#3A68EE" stroke="#3A68EE" stroke-width="6"/>
<path d="M378.319 357.98L375.329 357.731L375.081 360.721L374.167 371.706L373.917 374.709L376.921 374.946L387.799 375.802L390.789 376.038L391.025 373.047L391.886 362.106L392.121 359.128L389.144 358.881L378.319 357.98Z" fill="#3A68EE" stroke="#3A68EE" stroke-width="6"/>
<circle cx="455.178" cy="366.915" r="63.2114" fill="#3A68EE"/>
</svg>
