<svg width="178" height="177" viewBox="0 0 178 177" fill="none" xmlns="http://www.w3.org/2000/svg">
<mask id="path-1-outside-1" maskUnits="userSpaceOnUse" x="-0.0734565" y="-0.253232" width="177.621" height="177.621" fill="black">
<rect fill="white" x="-0.0734565" y="-0.253232" width="177.621" height="177.621"/>
<path d="M140.246 75.8161C140.235 75.5313 140.28 75.2502 140.376 74.9886C140.4 74.9216 140.447 74.8754 140.476 74.816C140.675 74.3927 140.994 74.0216 141.449 73.8004L155.101 67.2842L147.715 51.5751L134.191 58.0482C134.061 58.1091 133.927 58.1562 133.793 58.1917L133.782 58.1944L133.78 58.195L133.777 58.1957C133.475 58.2692 133.172 58.253 132.876 58.1944C132.799 58.1782 132.73 58.1573 132.655 58.1322C132.387 58.0464 132.141 57.9203 131.923 57.741C131.898 57.721 131.868 57.7195 131.849 57.6981L131.796 57.6499L115.917 43.0804L115.912 43.0729C115.703 42.8799 115.537 42.653 115.424 42.4018C115.405 42.3627 115.409 42.3182 115.393 42.2757C115.302 42.0451 115.246 41.8031 115.242 41.5512C115.241 41.2958 115.275 41.0407 115.361 40.7989L115.361 40.7872L120.578 26.6787L104.455 20.6833L99.2387 34.7803C99.2248 34.8185 99.1898 34.8416 99.1745 34.8744C99.0635 35.1222 98.9157 35.3383 98.7263 35.5268C98.6705 35.584 98.6168 35.6377 98.5563 35.6873C98.3203 35.8756 98.0614 36.0287 97.757 36.1029L97.7542 36.1035L97.7515 36.1042L97.7405 36.1069C97.6164 36.1342 97.4883 36.1567 97.3555 36.16L75.716 37.2348C75.664 37.2358 75.6237 37.2137 75.5738 37.2113C75.4013 37.2069 75.2406 37.1792 75.0765 37.1379C74.9856 37.1106 74.8926 37.0984 74.8079 37.061C74.644 36.9963 74.5036 36.8969 74.3618 36.792C74.295 36.7444 74.222 36.707 74.1628 36.6546C74.0185 36.5154 73.9052 36.3484 73.8008 36.1705C73.7703 36.1169 73.724 36.0817 73.701 36.0234C73.701 36.0234 73.6901 36.0144 73.6881 36.0062L67.352 22.2345L51.7464 29.5927L58.0358 43.1724C58.1595 43.4299 58.2243 43.7075 58.2342 43.9869C58.2397 44.1047 58.1993 44.2133 58.1843 44.3302C58.1642 44.4862 58.1639 44.6402 58.1124 44.7864C58.0338 45.0002 57.908 45.1877 57.7659 45.3676C57.7356 45.4099 57.7264 45.4557 57.6919 45.4931L43.2909 61.3718C43.2516 61.4133 43.2077 61.4357 43.1671 61.4717C43.1196 61.5152 43.0756 61.5492 43.0233 61.5852C42.7771 61.7788 42.5153 61.9326 42.2219 62.0041L42.2192 62.0048L42.2164 62.0054C41.9312 62.0749 41.6233 62.0628 41.3183 62.0035C41.2608 61.9943 41.2068 61.9871 41.148 61.9724C41.0981 61.9584 41.0495 61.9615 40.999 61.9448L26.8151 56.8366L20.8951 72.9584L35.0339 78.275L35.0428 78.2758L35.0462 78.2779C35.0749 78.2883 35.0925 78.3131 35.1212 78.3235C35.3486 78.4221 35.5614 78.5445 35.7418 78.7126C35.833 78.8008 35.8905 78.9175 35.9673 79.0179C36.0569 79.1355 36.1577 79.2388 36.2192 79.372C36.3206 79.5855 36.3657 79.8185 36.3889 80.0569C36.3928 80.0966 36.4145 80.1262 36.4157 80.1666L36.417 80.172L36.4149 80.1755L37.3574 101.725L37.3567 101.734C37.357 101.795 37.3347 101.858 37.3323 101.92C37.3201 102.121 37.3025 102.322 37.2364 102.504C37.2085 102.581 37.1609 102.647 37.1256 102.717C37.0486 102.878 36.969 103.028 36.8539 103.164C36.7932 103.237 36.7169 103.293 36.6459 103.36C36.5221 103.471 36.3955 103.572 36.2465 103.652C36.2025 103.674 36.1776 103.715 36.1309 103.738L22.4422 110.057L29.6249 125.705L43.4117 119.36C43.4405 119.347 43.4679 119.352 43.494 119.339C43.7259 119.242 43.9693 119.18 44.2199 119.171C44.2918 119.168 44.3601 119.198 44.4306 119.201C44.6284 119.214 44.8295 119.229 45.0201 119.296C45.1642 119.351 45.2848 119.452 45.4151 119.534C45.5146 119.597 45.6246 119.631 45.7173 119.713L61.5959 134.114C61.5959 134.114 61.602 134.127 61.6088 134.131C61.7627 134.274 61.8698 134.451 61.9735 134.626C62.0081 134.685 62.0666 134.734 62.0964 134.797C62.1221 134.854 62.1216 134.924 62.1425 134.986C62.2098 135.179 62.2784 135.377 62.2875 135.581C62.2899 135.627 62.2685 135.67 62.2682 135.716C62.2634 135.947 62.2381 136.177 62.1594 136.402C62.1579 136.408 62.1593 136.414 62.1593 136.414L56.942 150.52L73.1566 156.499L78.2736 142.435L78.2798 142.424C78.5108 141.799 79.0441 141.34 79.6976 141.161C79.8574 141.113 80.0056 141.054 80.1727 141.048L80.1864 141.045L101.664 140.236C101.86 140.229 102.039 140.284 102.221 140.327C102.295 140.344 102.374 140.336 102.447 140.362C102.632 140.427 102.79 140.54 102.944 140.65C103.015 140.7 103.094 140.727 103.156 140.779C103.298 140.91 103.399 141.071 103.502 141.235C103.549 141.308 103.617 141.358 103.653 141.436L110.146 154.993L125.8 147.713L119.478 134.025C119.466 133.999 119.471 133.971 119.46 133.951C119.362 133.716 119.297 133.473 119.288 133.223C119.285 133.101 119.322 132.991 119.339 132.87C119.36 132.717 119.361 132.566 119.412 132.42C119.493 132.202 119.619 132.006 119.768 131.819C119.795 131.786 119.803 131.746 119.831 131.716L119.833 131.713L134.232 115.838L134.244 115.829C134.405 115.653 134.601 115.527 134.808 115.413C134.846 115.392 134.875 115.353 134.914 115.334C135.039 115.278 135.177 115.27 135.311 115.238C135.443 115.205 135.571 115.148 135.706 115.141C135.764 115.139 135.823 115.165 135.881 115.166C136.098 115.174 136.315 115.194 136.524 115.267L136.546 115.271L150.771 120.564L156.732 104.261L142.564 99.16C142.558 99.1586 142.554 99.1538 142.554 99.1538C142.333 99.071 142.148 98.9419 141.971 98.8019C141.772 98.6412 141.62 98.4548 141.492 98.2418C141.454 98.1813 141.4 98.1365 141.369 98.0713C141.25 97.8214 141.183 97.5472 141.17 97.2657C141.17 97.2657 141.169 97.2603 141.168 97.2575L140.246 75.8161Z"/>
</mask>
<path d="M140.246 75.8161C140.235 75.5313 140.28 75.2502 140.376 74.9886C140.4 74.9216 140.447 74.8754 140.476 74.816C140.675 74.3927 140.994 74.0216 141.449 73.8004L155.101 67.2842L147.715 51.5751L134.191 58.0482C134.061 58.1091 133.927 58.1562 133.793 58.1917L133.782 58.1944L133.78 58.195L133.777 58.1957C133.475 58.2692 133.172 58.253 132.876 58.1944C132.799 58.1782 132.73 58.1573 132.655 58.1322C132.387 58.0464 132.141 57.9203 131.923 57.741C131.898 57.721 131.868 57.7195 131.849 57.6981L131.796 57.6499L115.917 43.0804L115.912 43.0729C115.703 42.8799 115.537 42.653 115.424 42.4018C115.405 42.3627 115.409 42.3182 115.393 42.2757C115.302 42.0451 115.246 41.8031 115.242 41.5512C115.241 41.2958 115.275 41.0407 115.361 40.7989L115.361 40.7872L120.578 26.6787L104.455 20.6833L99.2387 34.7803C99.2248 34.8185 99.1898 34.8416 99.1745 34.8744C99.0635 35.1222 98.9157 35.3383 98.7263 35.5268C98.6705 35.584 98.6168 35.6377 98.5563 35.6873C98.3203 35.8756 98.0614 36.0287 97.757 36.1029L97.7542 36.1035L97.7515 36.1042L97.7405 36.1069C97.6164 36.1342 97.4883 36.1567 97.3555 36.16L75.716 37.2348C75.664 37.2358 75.6237 37.2137 75.5738 37.2113C75.4013 37.2069 75.2406 37.1792 75.0765 37.1379C74.9856 37.1106 74.8926 37.0984 74.8079 37.061C74.644 36.9963 74.5036 36.8969 74.3618 36.792C74.295 36.7444 74.222 36.707 74.1628 36.6546C74.0185 36.5154 73.9052 36.3484 73.8008 36.1705C73.7703 36.1169 73.724 36.0817 73.701 36.0234C73.701 36.0234 73.6901 36.0144 73.6881 36.0062L67.352 22.2345L51.7464 29.5927L58.0358 43.1724C58.1595 43.4299 58.2243 43.7075 58.2342 43.9869C58.2397 44.1047 58.1993 44.2133 58.1843 44.3302C58.1642 44.4862 58.1639 44.6402 58.1124 44.7864C58.0338 45.0002 57.908 45.1877 57.7659 45.3676C57.7356 45.4099 57.7264 45.4557 57.6919 45.4931L43.2909 61.3718C43.2516 61.4133 43.2077 61.4357 43.1671 61.4717C43.1196 61.5152 43.0756 61.5492 43.0233 61.5852C42.7771 61.7788 42.5153 61.9326 42.2219 62.0041L42.2192 62.0048L42.2164 62.0054C41.9312 62.0749 41.6233 62.0628 41.3183 62.0035C41.2608 61.9943 41.2068 61.9871 41.148 61.9724C41.0981 61.9584 41.0495 61.9615 40.999 61.9448L26.8151 56.8366L20.8951 72.9584L35.0339 78.275L35.0428 78.2758L35.0462 78.2779C35.0749 78.2883 35.0925 78.3131 35.1212 78.3235C35.3486 78.4221 35.5614 78.5445 35.7418 78.7126C35.833 78.8008 35.8905 78.9175 35.9673 79.0179C36.0569 79.1355 36.1577 79.2388 36.2192 79.372C36.3206 79.5855 36.3657 79.8185 36.3889 80.0569C36.3928 80.0966 36.4145 80.1262 36.4157 80.1666L36.417 80.172L36.4149 80.1755L37.3574 101.725L37.3567 101.734C37.357 101.795 37.3347 101.858 37.3323 101.92C37.3201 102.121 37.3025 102.322 37.2364 102.504C37.2085 102.581 37.1609 102.647 37.1256 102.717C37.0486 102.878 36.969 103.028 36.8539 103.164C36.7932 103.237 36.7169 103.293 36.6459 103.36C36.5221 103.471 36.3955 103.572 36.2465 103.652C36.2025 103.674 36.1776 103.715 36.1309 103.738L22.4422 110.057L29.6249 125.705L43.4117 119.36C43.4405 119.347 43.4679 119.352 43.494 119.339C43.7259 119.242 43.9693 119.18 44.2199 119.171C44.2918 119.168 44.3601 119.198 44.4306 119.201C44.6284 119.214 44.8295 119.229 45.0201 119.296C45.1642 119.351 45.2848 119.452 45.4151 119.534C45.5146 119.597 45.6246 119.631 45.7173 119.713L61.5959 134.114C61.5959 134.114 61.602 134.127 61.6088 134.131C61.7627 134.274 61.8698 134.451 61.9735 134.626C62.0081 134.685 62.0666 134.734 62.0964 134.797C62.1221 134.854 62.1216 134.924 62.1425 134.986C62.2098 135.179 62.2784 135.377 62.2875 135.581C62.2899 135.627 62.2685 135.67 62.2682 135.716C62.2634 135.947 62.2381 136.177 62.1594 136.402C62.1579 136.408 62.1593 136.414 62.1593 136.414L56.942 150.52L73.1566 156.499L78.2736 142.435L78.2798 142.424C78.5108 141.799 79.0441 141.34 79.6976 141.161C79.8574 141.113 80.0056 141.054 80.1727 141.048L80.1864 141.045L101.664 140.236C101.86 140.229 102.039 140.284 102.221 140.327C102.295 140.344 102.374 140.336 102.447 140.362C102.632 140.427 102.79 140.54 102.944 140.65C103.015 140.7 103.094 140.727 103.156 140.779C103.298 140.91 103.399 141.071 103.502 141.235C103.549 141.308 103.617 141.358 103.653 141.436L110.146 154.993L125.8 147.713L119.478 134.025C119.466 133.999 119.471 133.971 119.46 133.951C119.362 133.716 119.297 133.473 119.288 133.223C119.285 133.101 119.322 132.991 119.339 132.87C119.36 132.717 119.361 132.566 119.412 132.42C119.493 132.202 119.619 132.006 119.768 131.819C119.795 131.786 119.803 131.746 119.831 131.716L119.833 131.713L134.232 115.838L134.244 115.829C134.405 115.653 134.601 115.527 134.808 115.413C134.846 115.392 134.875 115.353 134.914 115.334C135.039 115.278 135.177 115.27 135.311 115.238C135.443 115.205 135.571 115.148 135.706 115.141C135.764 115.139 135.823 115.165 135.881 115.166C136.098 115.174 136.315 115.194 136.524 115.267L136.546 115.271L150.771 120.564L156.732 104.261L142.564 99.16C142.558 99.1586 142.554 99.1538 142.554 99.1538C142.333 99.071 142.148 98.9419 141.971 98.8019C141.772 98.6412 141.62 98.4548 141.492 98.2418C141.454 98.1813 141.4 98.1365 141.369 98.0713C141.25 97.8214 141.183 97.5472 141.17 97.2657C141.17 97.2657 141.169 97.2603 141.168 97.2575L140.246 75.8161Z" fill="black"/>
<path d="M140.246 75.8161C140.235 75.5313 140.28 75.2502 140.376 74.9886C140.4 74.9216 140.447 74.8754 140.476 74.816C140.675 74.3927 140.994 74.0216 141.449 73.8004L155.101 67.2842L147.715 51.5751L134.191 58.0482C134.061 58.1091 133.927 58.1562 133.793 58.1917L133.782 58.1944L133.78 58.195L133.777 58.1957C133.475 58.2692 133.172 58.253 132.876 58.1944C132.799 58.1782 132.73 58.1573 132.655 58.1322C132.387 58.0464 132.141 57.9203 131.923 57.741C131.898 57.721 131.868 57.7195 131.849 57.6981L131.796 57.6499L115.917 43.0804L115.912 43.0729C115.703 42.8799 115.537 42.653 115.424 42.4018C115.405 42.3627 115.409 42.3182 115.393 42.2757C115.302 42.0451 115.246 41.8031 115.242 41.5512C115.241 41.2958 115.275 41.0407 115.361 40.7989L115.361 40.7872L120.578 26.6787L104.455 20.6833L99.2387 34.7803C99.2248 34.8185 99.1898 34.8416 99.1745 34.8744C99.0635 35.1222 98.9157 35.3383 98.7263 35.5268C98.6705 35.584 98.6168 35.6377 98.5563 35.6873C98.3203 35.8756 98.0614 36.0287 97.757 36.1029L97.7542 36.1035L97.7515 36.1042L97.7405 36.1069C97.6164 36.1342 97.4883 36.1567 97.3555 36.16L75.716 37.2348C75.664 37.2358 75.6237 37.2137 75.5738 37.2113C75.4013 37.2069 75.2406 37.1792 75.0765 37.1379C74.9856 37.1106 74.8926 37.0984 74.8079 37.061C74.644 36.9963 74.5036 36.8969 74.3618 36.792C74.295 36.7444 74.222 36.707 74.1628 36.6546C74.0185 36.5154 73.9052 36.3484 73.8008 36.1705C73.7703 36.1169 73.724 36.0817 73.701 36.0234C73.701 36.0234 73.6901 36.0144 73.6881 36.0062L67.352 22.2345L51.7464 29.5927L58.0358 43.1724C58.1595 43.4299 58.2243 43.7075 58.2342 43.9869C58.2397 44.1047 58.1993 44.2133 58.1843 44.3302C58.1642 44.4862 58.1639 44.6402 58.1124 44.7864C58.0338 45.0002 57.908 45.1877 57.7659 45.3676C57.7356 45.4099 57.7264 45.4557 57.6919 45.4931L43.2909 61.3718C43.2516 61.4133 43.2077 61.4357 43.1671 61.4717C43.1196 61.5152 43.0756 61.5492 43.0233 61.5852C42.7771 61.7788 42.5153 61.9326 42.2219 62.0041L42.2192 62.0048L42.2164 62.0054C41.9312 62.0749 41.6233 62.0628 41.3183 62.0035C41.2608 61.9943 41.2068 61.9871 41.148 61.9724C41.0981 61.9584 41.0495 61.9615 40.999 61.9448L26.8151 56.8366L20.8951 72.9584L35.0339 78.275L35.0428 78.2758L35.0462 78.2779C35.0749 78.2883 35.0925 78.3131 35.1212 78.3235C35.3486 78.4221 35.5614 78.5445 35.7418 78.7126C35.833 78.8008 35.8905 78.9175 35.9673 79.0179C36.0569 79.1355 36.1577 79.2388 36.2192 79.372C36.3206 79.5855 36.3657 79.8185 36.3889 80.0569C36.3928 80.0966 36.4145 80.1262 36.4157 80.1666L36.417 80.172L36.4149 80.1755L37.3574 101.725L37.3567 101.734C37.357 101.795 37.3347 101.858 37.3323 101.92C37.3201 102.121 37.3025 102.322 37.2364 102.504C37.2085 102.581 37.1609 102.647 37.1256 102.717C37.0486 102.878 36.969 103.028 36.8539 103.164C36.7932 103.237 36.7169 103.293 36.6459 103.36C36.5221 103.471 36.3955 103.572 36.2465 103.652C36.2025 103.674 36.1776 103.715 36.1309 103.738L22.4422 110.057L29.6249 125.705L43.4117 119.36C43.4405 119.347 43.4679 119.352 43.494 119.339C43.7259 119.242 43.9693 119.18 44.2199 119.171C44.2918 119.168 44.3601 119.198 44.4306 119.201C44.6284 119.214 44.8295 119.229 45.0201 119.296C45.1642 119.351 45.2848 119.452 45.4151 119.534C45.5146 119.597 45.6246 119.631 45.7173 119.713L61.5959 134.114C61.5959 134.114 61.602 134.127 61.6088 134.131C61.7627 134.274 61.8698 134.451 61.9735 134.626C62.0081 134.685 62.0666 134.734 62.0964 134.797C62.1221 134.854 62.1216 134.924 62.1425 134.986C62.2098 135.179 62.2784 135.377 62.2875 135.581C62.2899 135.627 62.2685 135.67 62.2682 135.716C62.2634 135.947 62.2381 136.177 62.1594 136.402C62.1579 136.408 62.1593 136.414 62.1593 136.414L56.942 150.52L73.1566 156.499L78.2736 142.435L78.2798 142.424C78.5108 141.799 79.0441 141.34 79.6976 141.161C79.8574 141.113 80.0056 141.054 80.1727 141.048L80.1864 141.045L101.664 140.236C101.86 140.229 102.039 140.284 102.221 140.327C102.295 140.344 102.374 140.336 102.447 140.362C102.632 140.427 102.79 140.54 102.944 140.65C103.015 140.7 103.094 140.727 103.156 140.779C103.298 140.91 103.399 141.071 103.502 141.235C103.549 141.308 103.617 141.358 103.653 141.436L110.146 154.993L125.8 147.713L119.478 134.025C119.466 133.999 119.471 133.971 119.46 133.951C119.362 133.716 119.297 133.473 119.288 133.223C119.285 133.101 119.322 132.991 119.339 132.87C119.36 132.717 119.361 132.566 119.412 132.42C119.493 132.202 119.619 132.006 119.768 131.819C119.795 131.786 119.803 131.746 119.831 131.716L119.833 131.713L134.232 115.838L134.244 115.829C134.405 115.653 134.601 115.527 134.808 115.413C134.846 115.392 134.875 115.353 134.914 115.334C135.039 115.278 135.177 115.27 135.311 115.238C135.443 115.205 135.571 115.148 135.706 115.141C135.764 115.139 135.823 115.165 135.881 115.166C136.098 115.174 136.315 115.194 136.524 115.267L136.546 115.271L150.771 120.564L156.732 104.261L142.564 99.16C142.558 99.1586 142.554 99.1538 142.554 99.1538C142.333 99.071 142.148 98.9419 141.971 98.8019C141.772 98.6412 141.62 98.4548 141.492 98.2418C141.454 98.1813 141.4 98.1365 141.369 98.0713C141.25 97.8214 141.183 97.5472 141.17 97.2657C141.17 97.2657 141.169 97.2603 141.168 97.2575L140.246 75.8161Z" stroke="black" stroke-width="6" mask="url(#path-1-outside-1)"/>
<circle cx="88.7576" cy="88.6119" r="21.385" transform="rotate(-13.6936 88.7576 88.6119)" fill="white"/>
</svg>
