<svg width="310" height="256" viewBox="0 0 310 256" fill="none" xmlns="http://www.w3.org/2000/svg">
<path d="M236.158 0.388916L250.713 14.8134L290.095 14.8134L283.931 28.559L250.713 29.2378L265.267 43.6623H294.376V106.281L236.158 106.281L250.713 120.706L308.759 120.706V43.6623L297.287 29.2378L309.444 0.388916L236.158 0.388916Z" fill="black"/>
<path d="M201.04 0.388916L171.932 0.388916L171.932 120.706H186.486L186.486 43.6623L244.704 43.6623L201.04 0.388916ZM186.486 14.8134L201.04 14.8134L215.595 29.2378L186.486 29.2378V14.8134Z" fill="black"/>
<path d="M29.64 29.2386L0.53125 0.389648L0.53125 120.707H15.0856L15.0856 29.2386L29.64 43.663L29.64 120.707H44.1944L44.1944 29.2386L58.7488 43.663L58.7488 120.707H73.3032L73.3032 43.663L29.64 0.389648L29.64 29.2386Z" fill="black"/>
<path d="M102.073 106.281V43.6623L145.736 43.6623L131.353 29.2378L102.073 29.2378V14.8134L131.353 14.8134L116.627 0.388916L87.6895 0.388916L87.6895 120.706L160.29 120.706L145.736 106.281L102.073 106.281Z" fill="black"/>
<path d="M147.721 133.665L162.454 148.267H177.187L177.187 255.461H191.921L191.921 148.267H221.387L206.654 133.665H147.721Z" fill="black"/>
<path d="M265.418 133.665H235.951L235.951 255.461H250.684L250.684 177.471H294.711V255.461H309.444V177.471L265.418 133.665ZM250.684 162.869V148.267H265.418L280.151 162.869H250.684Z" fill="black"/>
<path d="M88.791 133.665L88.791 255.461H162.458L162.458 177.471L118.258 133.665H88.791ZM147.724 240.86H103.524L103.524 148.267H118.258L147.724 177.471L147.724 240.86Z" fill="black"/>
<path d="M0.5625 133.665L0.5625 255.461H15.2958L15.2958 148.267H30.0291L59.4957 177.471L59.4957 255.461H74.2291L74.2291 177.471L30.0291 133.665H0.5625Z" fill="black"/>
</svg>
