<svg width="312" height="170" viewBox="0 0 312 170" fill="none" xmlns="http://www.w3.org/2000/svg">
<rect x="51.8281" y="71.718" width="2.12464" height="32.2092" fill="black"/>
<rect x="104.271" y="40.7727" width="112.436" height="127.967" stroke="black" stroke-width="2"/>
<path d="M1.59573 104.676H104.183L104.185 168.739H1.59736L1.59573 104.676Z" stroke="black" stroke-width="2"/>
<rect x="128.27" y="21.1245" width="17.7668" height="19.5375" stroke="black" stroke-width="2"/>
<path d="M234.227 104.676C243.615 104.676 251.227 112.287 251.227 121.676L251.227 142.085L216.8 142.085L216.8 104.676L234.227 104.676Z" stroke="black" stroke-width="2"/>
<path d="M257.541 77.5537C269.691 77.5537 279.541 87.4034 279.541 99.5537L279.541 142.085L216.799 142.085L216.799 77.5537L257.541 77.5537Z" stroke="black" stroke-width="2"/>
<rect x="156.873" y="1.83057" width="35.316" height="38.8314" stroke="black" stroke-width="2"/>
<rect x="216.799" y="142.129" width="93.3001" height="26.6103" stroke="black" stroke-width="2"/>
</svg>
