<svg width="212" height="189" viewBox="0 0 212 189" fill="none" xmlns="http://www.w3.org/2000/svg">
<path d="M93.579 19.6955L92.7753 16.8052L89.885 17.6089L81.0147 20.0754L78.1114 20.8826L78.9316 23.7822L81.4121 32.5517L82.2286 35.4384L85.1154 34.6219L93.9357 32.127L96.8097 31.3141L96.0095 28.4366L93.579 19.6955Z" fill="#3A68EE" stroke="#3A68EE" stroke-width="6"/>
<path d="M108.464 148.018L108.293 151.013L105.298 150.842L96.1061 150.316L93.0976 150.144L93.283 147.136L93.8438 138.04L94.0284 135.046L97.0227 135.231L106.172 135.795L109.153 135.978L108.982 138.96L108.464 148.018Z" fill="#3A68EE" stroke="#3A68EE" stroke-width="6"/>
<path d="M138.102 26.4922L139.231 23.7128L136.452 22.5836L127.922 19.1182L125.13 17.984L124.009 20.7808L120.616 29.2392L119.499 32.0236L122.283 33.1404L130.791 36.5528L133.563 37.6647L134.687 34.8976L138.102 26.4922Z" fill="#3A68EE" stroke="#3A68EE" stroke-width="6"/>
<path d="M151.178 130.951L152.872 133.427L150.396 135.121L142.797 140.32L140.31 142.021L138.62 139.527L133.508 131.982L131.825 129.499L134.308 127.816L141.897 122.674L144.369 120.998L146.056 123.463L151.178 130.951Z" fill="#3A68EE" stroke="#3A68EE" stroke-width="6"/>
<path d="M166.632 58.4211L169.272 56.9967L167.848 54.3564L163.476 46.2535L162.045 43.6015L159.4 45.0441L151.398 49.4069L148.765 50.843L150.201 53.4769L154.589 61.5247L156.019 64.147L158.647 62.7289L166.632 58.4211Z" fill="#3A68EE" stroke="#3A68EE" stroke-width="6"/>
<path d="M167.814 104.843L170.751 105.455L171.363 102.518L173.242 93.505L173.856 90.555L170.904 89.9533L161.974 88.1338L159.034 87.5348L158.435 90.4744L156.605 99.4563L156.009 102.383L158.933 102.992L167.814 104.843Z" fill="#3A68EE" stroke="#3A68EE" stroke-width="6"/>
<path d="M56.4443 39.5051L53.9744 37.8023L52.2716 40.2722L47.0457 47.8522L45.3353 50.3332L47.8238 52.0325L55.3499 57.1719L57.8273 58.8638L59.5192 56.3863L64.6884 48.8165L66.3727 46.3501L63.9138 44.6548L56.4443 39.5051Z" fill="#3A68EE" stroke="#3A68EE" stroke-width="6"/>
<path d="M66.3822 135.816L64.3305 138.005L62.1418 135.953L55.4248 129.656L53.2264 127.595L55.297 125.406L61.5594 118.785L63.6209 116.605L65.8004 118.667L72.4599 124.966L74.6298 127.018L72.5871 129.197L66.3822 135.816Z" fill="#3A68EE" stroke="#3A68EE" stroke-width="6"/>
<path d="M41.1365 82.0072L38.1374 82.0793L38.2094 85.0784L38.4306 94.2826L38.5029 97.2951L41.5151 97.2094L50.6249 96.9499L53.6237 96.8645L53.5383 93.8658L53.2773 84.7031L53.1923 81.7176L50.2065 81.7893L41.1365 82.0072Z" fill="#3A68EE" stroke="#3A68EE" stroke-width="6"/>
<circle cx="105.77" cy="83.063" r="52.7953" transform="rotate(-6.13314 105.77 83.063)" fill="#3A68EE"/>
<circle cx="105.769" cy="82.0561" r="32.7763" fill="white"/>
</svg>
