<svg width="1441" height="669" viewBox="0 0 1441 669" fill="none" xmlns="http://www.w3.org/2000/svg">
<rect x="60.8027" y="298.678" width="2" height="119.683" fill="black"/>
<circle cx="61.8034" cy="296.692" r="15.61" fill="#3A68EE"/>
<rect x="159.352" y="267.831" width="253.604" height="399.105" stroke="black" stroke-width="2"/>
<rect x="1092.44" y="205.792" width="347.018" height="461.355" stroke="black" stroke-width="2"/>
<rect x="1.46094" y="414.957" width="157.522" height="251.978" stroke="black" stroke-width="2"/>
<rect x="196.777" y="154.558" width="35.955" height="112.974" stroke="black" stroke-width="2"/>
<rect x="1143.55" y="78.7437" width="49.8262" height="126.958" stroke="black" stroke-width="2"/>
<path d="M486.086 578.459L486.086 666.935L413.034 666.935L413.034 538.459L446.086 538.459C468.177 538.459 486.086 556.368 486.086 578.459Z" stroke="black" stroke-width="2"/>
<path d="M545.781 532.758L545.781 666.936L413.033 666.936L413.033 479.758L492.781 479.758C522.052 479.758 545.781 503.487 545.781 532.758Z" stroke="black" stroke-width="2"/>
<rect x="268.039" y="99.8228" width="79.4159" height="167.709" stroke="black" stroke-width="2"/>
<rect x="1233.68" y="39.7622" width="53.2915" height="165.938" stroke="black" stroke-width="2"/>
<rect x="1327.28" y="17.3511" width="53.2915" height="188.349" stroke="black" stroke-width="2"/>
<circle r="29.725" transform="matrix(-1 0 0 1 61.8082 296.692)" stroke="#3A68EE" stroke-width="2"/>
<rect x="585.418" y="561.893" width="309.158" height="105.042" stroke="black" stroke-width="2"/>
<rect x="745.895" y="437.419" width="32.2092" height="124.686" stroke="black" stroke-width="2"/>
<rect x="810.648" y="490.032" width="32.2092" height="72.0224" stroke="black" stroke-width="2"/>
<rect x="648.438" y="358.705" width="64.9065" height="203.351" stroke="black" stroke-width="2"/>
<rect x="585.418" y="267.831" width="309.158" height="294.274" stroke="black" stroke-width="2"/>
<rect x="894.768" y="561.893" width="132.945" height="105.042" stroke="black" stroke-width="2"/>
<rect x="1027.88" y="490.032" width="64.4772" height="176.903" stroke="black" stroke-width="2"/>
<path d="M660.799 267.695L716.008 1.95563L772.28 1.95558L819.221 267.695H660.799Z" stroke="black" stroke-width="2"/>
<rect x="894.768" y="410.404" width="197.593" height="31.2057" stroke="black" stroke-width="2"/>
<rect x="894.768" y="325.499" width="197.593" height="31.2057" stroke="black" stroke-width="2"/>
<rect x="347.453" y="531.556" width="58.6741" height="125.865" transform="rotate(90 347.453 531.556)" stroke="black" stroke-width="2"/>
<rect x="347.453" y="431.042" width="58.6741" height="125.865" transform="rotate(90 347.453 431.042)" stroke="black" stroke-width="2"/>
<rect x="1380.57" y="409.874" width="78.1587" height="221.958" transform="rotate(90 1380.57 409.874)" stroke="black" stroke-width="2"/>
<rect x="347.453" y="330.53" width="58.6741" height="125.865" transform="rotate(90 347.453 330.53)" stroke="black" stroke-width="2"/>
<rect x="1380.57" y="278.545" width="78.1587" height="221.958" transform="rotate(90 1380.57 278.545)" stroke="black" stroke-width="2"/>
</svg>
