<svg width="311" height="170" viewBox="0 0 311 170" fill="none" xmlns="http://www.w3.org/2000/svg">
<rect x="51.6445" y="71.718" width="2.12464" height="32.2092" fill="black"/>
<rect x="104.088" y="40.7727" width="112.436" height="127.967" stroke="black" stroke-width="2"/>
<path d="M1.41213 104.676H104L104.001 168.739H1.41376L1.41213 104.676Z" stroke="black" stroke-width="2"/>
<rect x="128.086" y="21.1245" width="17.7668" height="19.5375" stroke="black" stroke-width="2"/>
<path d="M234.043 104.676C243.432 104.676 251.043 112.287 251.043 121.676L251.043 142.085L216.616 142.085L216.616 104.676L234.043 104.676Z" stroke="black" stroke-width="2"/>
<path d="M257.357 77.5537C269.508 77.5537 279.357 87.4034 279.357 99.5537L279.357 142.085L216.615 142.085L216.615 77.5537L257.357 77.5537Z" stroke="black" stroke-width="2"/>
<rect x="156.689" y="1.83057" width="35.316" height="38.8314" stroke="black" stroke-width="2"/>
<rect x="216.615" y="142.129" width="93.3001" height="26.6103" stroke="black" stroke-width="2"/>
<ellipse cx="52.7082" cy="65.9976" rx="8.83708" ry="8.84259" fill="#3A68EE"/>
<path d="M36.8995 65.9977C36.8995 74.7341 43.9772 81.8153 52.7066 81.8153C61.436 81.8153 68.5137 74.7341 68.5137 65.9977C68.5137 57.2613 61.436 50.1802 52.7066 50.1802C43.9772 50.1802 36.8995 57.2613 36.8995 65.9977Z" stroke="#3A68EE" stroke-width="2"/>
</svg>
