<svg width="728" height="372" viewBox="0 0 728 372" fill="none" xmlns="http://www.w3.org/2000/svg">
<rect x="1.87109" y="1.98511" width="724.21" height="368.948" fill="white" stroke="black" stroke-width="2"/>
<rect x="1" y="-1" width="724.21" height="94.8299" transform="matrix(1 0 0 -1 0.871094 95.8149)" fill="#3A68EE" stroke="black" stroke-width="2"/>
<path d="M243.797 59.1008V39.9908H231.857V44.1908C231.857 46.5008 231.647 49.7108 230.957 52.3208C230.567 53.7308 229.727 56.2808 227.627 59.1008H225.707L225.917 65.7308H227.897V60.9908H244.637V65.7308H246.587L246.827 59.1008H243.797ZM241.577 41.8808V59.1008H230.117C231.017 57.8408 231.737 56.5208 232.367 54.7808C233.087 52.8008 233.897 49.7108 233.897 44.5508V41.8808H241.577ZM249.191 50.4908C249.191 54.8708 250.691 57.6608 252.221 59.1608C254.201 61.1108 256.661 61.6208 259.001 61.6208C261.161 61.6208 263.771 61.2008 265.841 59.2508C267.581 57.6308 268.931 54.8108 268.931 50.6408C268.931 46.6808 267.701 43.5608 265.841 41.7908C264.341 40.3508 262.001 39.3608 259.001 39.3608C255.671 39.3608 253.511 40.6508 252.251 41.8808C250.571 43.5308 249.191 46.3208 249.191 50.4908ZM251.531 50.2208C251.531 48.4508 251.891 45.1208 254.231 42.9908C255.551 41.7908 257.141 41.2508 259.061 41.2508C260.621 41.2508 262.451 41.5508 263.951 42.9608C264.611 43.5608 266.591 45.6908 266.591 50.2508C266.591 52.4408 266.231 55.7708 264.161 57.8108C263.201 58.7708 261.611 59.7308 259.121 59.7308C256.901 59.7308 255.131 59.0408 253.811 57.6908C252.731 56.6108 251.531 54.5108 251.531 50.2208ZM289.152 54.1508C289.002 56.2508 287.922 57.5108 287.322 58.0808C286.512 58.8308 285.072 59.7308 282.792 59.7308C280.362 59.7308 278.772 58.7708 277.842 57.8408C275.952 56.0108 275.262 52.8908 275.262 50.1308C275.262 47.1908 276.042 44.7008 277.722 43.0808C279.282 41.5808 281.052 41.2508 282.732 41.2508C285.132 41.2508 286.572 42.0608 287.412 42.9308C288.162 43.7108 288.792 44.8808 288.912 46.2908H291.162C291.042 44.3108 290.172 42.6008 289.122 41.5808C287.472 39.9608 284.772 39.3608 282.552 39.3608C279.312 39.3608 277.212 40.5608 275.832 41.9108C273.552 44.1608 272.892 47.5508 272.892 50.4608C272.892 53.4608 273.672 56.7908 275.802 59.0108C277.962 61.2608 280.482 61.6208 282.642 61.6208C284.712 61.6208 287.022 61.3508 288.972 59.4008C290.292 58.0808 291.162 56.1608 291.402 54.1508H289.152ZM299.41 41.8808V60.9908H301.63V41.8808H308.59V39.9908H292.45V41.8808H299.41ZM312.244 54.9608H321.394L323.614 60.9908H326.044L318.064 39.9908H315.574L307.594 60.9908H309.994L312.244 54.9608ZM312.874 53.0708L316.804 42.1208L320.734 53.0708H312.874ZM328.897 39.9908V60.9908H337.417C338.917 60.9908 341.587 60.9308 343.297 59.1908C344.047 58.4408 344.797 57.1808 344.797 55.1708C344.797 53.2208 344.077 52.0508 343.417 51.3908C342.607 50.5808 341.407 50.0708 340.357 49.9208V49.8608C340.897 49.7408 341.767 49.4408 342.577 48.6308C343.447 47.7308 343.897 46.6508 343.897 45.2408C343.897 43.6508 343.327 42.3008 342.517 41.4908C341.107 40.0808 338.947 39.9908 337.687 39.9908H328.897ZM331.117 41.8808H337.327C338.587 41.8808 339.937 42.1808 340.717 42.9308C341.197 43.4108 341.647 44.2208 341.647 45.4208C341.647 46.5908 341.197 47.5508 340.627 48.1208C339.577 49.1408 337.927 49.1408 337.147 49.1408H331.117V41.8808ZM331.117 51.0308H337.267C337.777 51.0308 339.997 51.0608 341.137 51.8708C341.797 52.3508 342.517 53.3108 342.517 55.1408C342.517 56.0708 342.337 57.2708 341.317 58.1108C340.927 58.4408 339.877 59.1008 337.297 59.1008H331.117V51.0308ZM351.947 49.6208V39.9908H349.727V60.9908H351.947V50.0108L362.387 60.9908H365.387L354.377 49.7408L364.787 39.9908H361.997L351.947 49.6208ZM371.395 54.9608H380.545L382.765 60.9908H385.195L377.215 39.9908H374.725L366.745 60.9908H369.145L371.395 54.9608ZM372.025 53.0708L375.955 42.1208L379.885 53.0708H372.025ZM392.289 60.9908C392.619 61.0208 392.919 61.0508 393.219 61.0508C394.629 61.0508 395.769 60.6008 396.699 59.7008C398.169 58.2608 398.739 56.0708 399.009 54.3008C399.129 53.4908 399.399 51.5108 399.399 48.0908V41.8808H407.439V60.9908H409.659V39.9908H397.359V47.8208C397.359 49.5008 397.209 52.4108 396.999 53.8808C396.609 56.7008 395.739 57.7808 395.229 58.2308C394.479 58.9208 393.369 59.2508 392.289 59.0408V60.9908ZM417.396 39.9908H415.176V60.9908H423.546C424.986 60.9908 427.056 60.8408 428.556 59.4008C429.696 58.2908 430.266 56.5208 430.266 54.7808C430.266 52.6208 429.396 51.3008 428.676 50.5808C427.146 49.0508 425.016 48.7808 423.396 48.7808H417.396V39.9908ZM417.396 50.6708H423.036C425.256 50.6708 426.366 51.3608 426.876 51.8708C427.536 52.5008 427.986 53.5208 427.986 54.8108C427.986 56.1608 427.536 57.2708 426.876 57.9308C425.856 58.9508 424.386 59.1008 423.366 59.1008H417.396V50.6708ZM449.549 59.1008V39.9908H437.609V44.1908C437.609 46.5008 437.399 49.7108 436.709 52.3208C436.319 53.7308 435.479 56.2808 433.379 59.1008H431.459L431.669 65.7308H433.649V60.9908H450.389V65.7308H452.339L452.579 59.1008H449.549ZM447.329 41.8808V59.1008H435.869C436.769 57.8408 437.489 56.5208 438.119 54.7808C438.839 52.8008 439.649 49.7108 439.649 44.5508V41.8808H447.329ZM458.934 54.9608H468.084L470.304 60.9908H472.734L464.754 39.9908H462.264L454.284 60.9908H456.684L458.934 54.9608ZM459.564 53.0708L463.494 42.1208L467.424 53.0708H459.564Z" fill="white"/>
<path d="M198.692 214.172V235.172H208.682C212.402 235.172 216.722 234.332 216.722 229.292C216.722 225.452 213.872 224.252 212.252 223.922V223.892C214.292 223.202 215.702 221.942 215.702 219.512C215.702 217.232 214.712 214.172 209.222 214.172H198.692ZM203.642 218.252H207.992C210.182 218.252 210.662 219.422 210.662 220.292C210.662 221.102 210.212 222.452 208.202 222.452H203.642V218.252ZM203.642 226.322H208.142C209.942 226.322 211.502 226.712 211.502 228.722C211.502 230.642 209.642 231.092 208.772 231.092H203.642V226.322ZM225.829 214.172L217.969 235.172H223.189L224.509 231.242H232.129L233.479 235.172H238.729L230.839 214.172H225.829ZM225.589 227.672L228.349 219.662L231.049 227.672H225.589ZM245.655 231.092V214.172H240.675V235.172H268.695V214.172H263.715V231.092H257.175V214.172H252.195V231.092H245.655ZM279.114 227.942C279.444 234.812 284.424 235.772 288.714 235.772C293.274 235.772 298.464 234.812 298.464 229.472C298.464 226.232 296.814 224.762 293.814 224.162V224.102C295.314 223.862 297.804 222.812 297.804 219.482C297.804 215.042 293.634 213.572 288.924 213.572C283.554 213.572 280.044 215.312 279.714 220.982H284.544C284.694 217.712 287.304 217.652 288.384 217.652C289.074 217.652 292.464 217.622 292.464 220.172C292.464 222.242 290.424 222.512 289.014 222.512H286.554V226.382H289.524C290.724 226.382 293.124 226.532 293.124 228.932C293.124 230.102 292.374 231.692 288.864 231.692C285.264 231.692 284.004 230.102 283.914 227.942H279.114ZM307.597 214.172L299.737 235.172H304.957L306.277 231.242H313.897L315.247 235.172H320.497L312.607 214.172H307.597ZM307.357 227.672L310.117 219.662L312.817 227.672H307.357ZM327.452 222.992H327.392V214.172H322.442V235.172H327.392V224.912H327.452L334.892 235.172H340.952L332.042 223.772L340.472 214.172H334.652L327.452 222.992ZM349.989 214.172L342.129 235.172H347.349L348.669 231.242H356.289L357.639 235.172H362.889L354.999 214.172H349.989ZM349.749 227.672L352.509 219.662L355.209 227.672H349.749ZM363.635 227.942C363.965 234.812 368.945 235.772 373.235 235.772C377.795 235.772 382.985 234.812 382.985 229.472C382.985 226.232 381.335 224.762 378.335 224.162V224.102C379.835 223.862 382.325 222.812 382.325 219.482C382.325 215.042 378.155 213.572 373.445 213.572C368.075 213.572 364.565 215.312 364.235 220.982H369.065C369.215 217.712 371.825 217.652 372.905 217.652C373.595 217.652 376.985 217.622 376.985 220.172C376.985 222.242 374.945 222.512 373.535 222.512H371.075V226.382H374.045C375.245 226.382 377.645 226.532 377.645 228.932C377.645 230.102 376.895 231.692 373.385 231.692C369.785 231.692 368.525 230.102 368.435 227.942H363.635ZM398.73 218.252H406.65V235.172H411.6V214.172H393.78V235.172H398.73V218.252ZM416.222 214.172V235.172H421.172V227.942H425.882C428.432 227.942 433.922 227.552 433.922 220.952C433.922 215.762 430.232 214.172 426.002 214.172H416.222ZM421.172 218.252H425.042C426.152 218.252 428.582 218.132 428.582 220.982C428.582 223.022 427.412 223.862 425.042 223.862H421.172V218.252ZM441.973 227.732V214.172H437.023V235.172H441.973L450.343 221.462V235.172H455.293V214.172H450.343L441.973 227.732ZM464.853 226.142H472.473V235.172H477.423V214.172H472.473V222.062H464.853V214.172H459.903V235.172H464.853V226.142ZM494.052 227.912V235.172H499.002V214.172H488.352C486.012 214.172 480.852 214.862 480.852 220.922C480.852 225.602 483.972 227.192 486.372 227.522L481.422 235.172H487.302L491.412 227.912H494.052ZM494.052 218.252V223.832H489.612C486.642 223.832 486.192 222.152 486.192 220.982C486.192 219.752 486.792 218.252 489.432 218.252H494.052ZM508.114 218.252V235.172H513.064V218.252H519.394V214.172H501.754V218.252H508.114ZM523.001 214.172V219.662L524.291 228.422H526.871L528.161 219.662V214.172H523.001ZM523.091 235.172H528.071V230.432H523.091V235.172Z" fill="black"/>
<path d="M655.088 30.9908L673.972 49.8745M692.855 68.7583L673.972 49.8745M673.972 49.8745L692.855 30.9908L655.088 68.7583" stroke="white" stroke-width="2"/>
</svg>
