<svg width="366" height="330" viewBox="0 0 366 330" fill="none" xmlns="http://www.w3.org/2000/svg">
<ellipse cx="182.435" cy="145.686" rx="111.079" ry="111.805" transform="rotate(-41.5426 182.435 145.686)" fill="#3A68EE"/>
<path d="M95.5835 75.0958L80.4404 64.332L69.625 79.6409L84.8837 90.3857" stroke="#3A68EE" stroke-width="4"/>
<path d="M192.84 14.0946L192.895 12.0954L190.896 12.0276L172.111 11.3909L170.104 11.3228L170.058 13.3313L169.631 31.9388L169.585 33.9383L171.584 33.9972L190.288 34.5478L192.278 34.6064L192.333 32.6161L192.84 14.0946Z" fill="#3A68EE" stroke="#3A68EE" stroke-width="4"/>
<path d="M249.272 34.2494L250.16 32.4576L248.372 31.561L231.529 23.1133L229.733 22.2126L228.849 24.0164L220.675 40.6852L219.795 42.4809L221.586 43.3695L238.392 51.7057L240.176 52.5904L241.061 50.8066L249.272 34.2494Z" fill="#3A68EE" stroke="#3A68EE" stroke-width="4"/>
<path d="M293.139 77.7874L294.73 76.575L293.516 74.9855L282.069 59.9975L280.85 58.401L279.257 59.626L264.557 70.936L262.971 72.1554L264.192 73.7394L275.655 88.6112L276.87 90.1882L278.454 88.9812L293.139 77.7874Z" fill="#3A68EE" stroke="#3A68EE" stroke-width="4"/>
<path d="M313.015 136.852L314.99 136.542L314.668 134.568L311.636 115.989L311.312 114.006L309.329 114.327L290.986 117.294L289.011 117.613L289.342 119.586L292.443 138.07L292.773 140.034L294.74 139.724L313.015 136.852Z" fill="#3A68EE" stroke="#3A68EE" stroke-width="4"/>
<path d="M301.741 199.842L303.643 200.463L304.252 198.558L309.972 180.681L310.584 178.768L308.671 178.153L290.928 172.452L289.024 171.84L288.423 173.748L282.808 191.571L282.21 193.471L284.102 194.088L301.741 199.842Z" fill="#3A68EE" stroke="#3A68EE" stroke-width="4"/>
<path d="M258.569 251.923L259.862 253.449L261.388 252.156L275.687 240.047L277.22 238.749L275.915 237.222L263.783 223.032L262.484 221.512L260.963 222.812L246.781 234.931L245.267 236.225L246.554 237.744L258.569 251.923Z" fill="#3A68EE" stroke="#3A68EE" stroke-width="4"/>
<path d="M131.42 25.6635L130.454 23.912L128.7 24.8728L112.261 33.8766L110.499 34.8416L111.477 36.5965L120.56 52.9001L121.533 54.6473L123.283 53.6787L139.61 44.6414L141.352 43.6772L140.391 41.9336L131.42 25.6635Z" fill="#3A68EE" stroke="#3A68EE" stroke-width="4"/>
<path d="M80.5038 63.6339L78.8601 62.4945L77.7256 64.1416L67.0927 79.5785L65.9531 81.2329L67.6091 82.3701L82.9926 92.9344L84.6413 94.0666L85.7685 92.4144L96.286 76.9978L97.4082 75.353L95.7718 74.2186L80.5038 63.6339Z" fill="#3A68EE" stroke="#3A68EE" stroke-width="4"/>
<path d="M52.5576 121.683L50.565 121.511L50.4056 123.505L48.9078 142.241L48.7477 144.244L50.7499 144.408L69.2981 145.929L71.2913 146.092L71.4418 144.098L72.8501 125.437L72.9999 123.451L71.0162 123.28L52.5576 121.683Z" fill="#3A68EE" stroke="#3A68EE" stroke-width="4"/>
<path d="M57.5165 183.158L55.6445 183.863L56.3568 185.732L63.0675 203.341L63.7829 205.218L65.66 204.502L83.0047 197.889L84.8734 197.177L84.1529 195.311L77.394 177.809L76.6767 175.951L74.813 176.652L57.5165 183.158Z" fill="#3A68EE" stroke="#3A68EE" stroke-width="4"/>
<path d="M87.7117 234.371L86.2952 235.783L87.7059 237.2L101.009 250.568L102.426 251.992L103.843 250.568L116.922 237.416L118.332 235.998L116.915 234.586L103.611 221.336L102.201 219.93L100.79 221.336L87.7117 234.371Z" fill="#3A68EE" stroke="#3A68EE" stroke-width="4"/>
<path d="M137.222 269.408L136.794 271.362L138.745 271.802L157.101 275.944L159.061 276.386L159.482 274.422L163.381 256.245L163.8 254.29L161.848 253.858L143.554 249.816L141.61 249.386L141.184 251.331L137.222 269.408Z" fill="#3A68EE" stroke="#3A68EE" stroke-width="4"/>
<path d="M196.153 277.135L196.481 279.108L198.456 278.792L216.993 275.831L218.977 275.514L218.64 273.534L215.51 255.164L215.174 253.192L213.201 253.516L194.759 256.547L192.794 256.869L193.12 258.834L196.153 277.135Z" fill="#3A68EE" stroke="#3A68EE" stroke-width="4"/>
<path d="M239.831 51.3199L248.511 35.0064L231.912 26.0837L223.266 42.5098" stroke="#3A68EE" stroke-width="4"/>
<path d="M277.017 87.7258L291.64 76.4508L280.111 61.5256L265.473 72.9171" stroke="#3A68EE" stroke-width="4"/>
<path d="M284.047 189.744L301.681 195.513L307.416 177.642L289.677 171.925" stroke="#3A68EE" stroke-width="4"/>
<path d="M190.509 153.032C186.643 157.597 179.783 158.145 175.185 154.236C170.586 150.328 170.007 143.458 173.873 138.893C177.739 134.327 184.599 133.78 189.197 137.688C193.796 141.596 194.375 148.466 190.509 153.032Z" stroke="white" stroke-width="2"/>
<path d="M123.72 155.841C119.854 160.406 112.994 160.954 108.395 157.045C103.797 153.137 103.218 146.267 107.084 141.702C110.95 137.136 117.81 136.589 122.408 140.497C127.007 144.405 127.586 151.276 123.72 155.841Z" stroke="white" stroke-width="2"/>
<path d="M227.599 205.276C223.733 209.841 216.873 210.389 212.274 206.481C207.676 202.572 207.097 195.702 210.963 191.137C214.829 186.572 221.689 186.024 226.287 189.932C230.886 193.84 231.465 200.711 227.599 205.276Z" stroke="white" stroke-width="2"/>
<path d="M217.089 90.1416C213.223 94.7068 206.363 95.2545 201.765 91.3462C197.166 87.438 196.587 80.5676 200.453 76.0024C204.319 71.4371 211.179 70.8895 215.777 74.7977C220.376 78.706 220.955 85.5763 217.089 90.1416Z" stroke="white" stroke-width="2"/>
<ellipse rx="31.0323" ry="30.8391" transform="matrix(0.76197 0.647612 -0.646219 0.763152 232.82 138.804)" fill="white"/>
<ellipse rx="31.0323" ry="30.8391" transform="matrix(0.76197 0.647612 -0.646219 0.763152 161.686 193.614)" fill="white"/>
<ellipse rx="31.0323" ry="30.8391" transform="matrix(0.762372 0.647139 -0.646696 0.762748 152.736 105.037)" fill="white"/>
</svg>
