<svg width="263" height="262" viewBox="0 0 263 262" fill="none" xmlns="http://www.w3.org/2000/svg">
<circle cx="131.063" cy="130.191" r="79.7113" transform="rotate(-41.5426 131.063 130.191)" fill="#3A68EE"/>
<path d="M69.0795 79.9198L58.2686 72.2587L50.4941 83.2295L61.3879 90.8768" stroke="#3A68EE" stroke-width="4"/>
<path d="M139.382 36.0967L139.444 34.0977L137.445 34.0364L124.005 33.6246L121.997 33.5631L121.944 35.5713L121.596 48.8766L121.543 50.876L123.543 50.9283L136.925 51.2788L138.916 51.331L138.977 49.3408L139.382 36.0967Z" fill="#3A68EE" stroke="#3A68EE" stroke-width="4"/>
<path d="M179.658 50.6151L180.551 48.8254L178.761 47.9328L166.729 41.9316L164.931 41.035L164.042 42.8367L158.155 54.7737L157.27 56.5674L159.064 57.4521L171.07 63.3736L172.856 64.2543L173.745 62.4725L179.658 50.6151Z" fill="#3A68EE" stroke="#3A68EE" stroke-width="4"/>
<path d="M210.784 81.8441L212.374 80.6309L211.16 79.0409L203.004 68.3509L201.786 66.7538L200.194 67.9795L189.648 76.1001L188.064 77.3204L189.284 78.905L197.452 89.5118L198.667 91.0893L200.249 89.8815L210.784 81.8441Z" fill="#3A68EE" stroke="#3A68EE" stroke-width="4"/>
<path d="M224.613 124.137L226.588 123.821L226.272 121.846L224.145 108.569L223.827 106.586L221.845 106.912L208.712 109.076L206.739 109.401L207.064 111.375L209.24 124.584L209.564 126.548L211.53 126.233L224.613 124.137Z" fill="#3A68EE" stroke="#3A68EE" stroke-width="4"/>
<path d="M216.134 169.177L218.037 169.792L218.652 167.889L222.786 155.094L223.404 153.182L221.489 152.573L208.806 148.537L206.9 147.931L206.294 149.837L202.235 162.594L201.631 164.491L203.526 165.103L216.134 169.177Z" fill="#3A68EE" stroke="#3A68EE" stroke-width="4"/>
<path d="M184.864 206.34L186.157 207.866L187.683 206.573L197.943 197.882L199.476 196.583L198.171 195.056L189.523 184.939L188.223 183.418L186.703 184.718L176.527 193.416L175.013 194.71L176.3 196.229L184.864 206.34Z" fill="#3A68EE" stroke="#3A68EE" stroke-width="4"/>
<path d="M95.3319 44.2207L94.3687 42.4679L92.6159 43.4311L80.8317 49.9069L79.0711 50.8744L80.0464 52.6307L86.5083 64.2667L87.4793 66.0152L89.2278 65.0442L100.931 58.5448L102.672 57.5781L101.713 55.8331L95.3319 44.2207Z" fill="#3A68EE" stroke="#3A68EE" stroke-width="4"/>
<path d="M58.6367 71.2943L56.9913 70.1573L55.8543 71.8027L48.2101 82.8647L47.068 84.5174L48.7258 85.6521L59.7092 93.17L61.3596 94.2997L62.4893 92.6493L70.0508 81.6021L71.1755 79.959L69.5374 78.8271L58.6367 71.2943Z" fill="#3A68EE" stroke="#3A68EE" stroke-width="4"/>
<path d="M38.2301 112.762L36.237 112.596L36.0712 114.59L34.9561 127.99L34.7895 129.992L36.7922 130.149L50.0611 131.194L52.0549 131.351L52.2119 129.357L53.2627 116.011L53.419 114.026L51.4347 113.861L38.2301 112.762Z" fill="#3A68EE" stroke="#3A68EE" stroke-width="4"/>
<path d="M41.388 156.737L39.5176 157.445L40.2258 159.315L44.987 171.891L45.6983 173.769L47.5739 173.05L60.0004 168.281L61.8676 167.565L61.1511 165.698L56.3552 153.199L55.6419 151.34L53.7797 152.045L41.388 156.737Z" fill="#3A68EE" stroke="#3A68EE" stroke-width="4"/>
<path d="M62.6706 193.413L61.2535 194.824L62.6648 196.241L72.1532 205.769L73.5708 207.192L74.9879 205.768L84.3769 196.334L85.7877 194.917L84.3701 193.506L74.8813 184.062L73.47 182.658L72.0592 184.063L62.6706 193.413Z" fill="#3A68EE" stroke="#3A68EE" stroke-width="4"/>
<path d="M97.8655 218.633L97.4313 220.585L99.3836 221.019L112.509 223.939L114.47 224.375L114.898 222.412L117.729 209.407L118.155 207.452L116.201 207.027L103.12 204.179L101.174 203.755L100.742 205.699L97.8655 218.633Z" fill="#3A68EE" stroke="#3A68EE" stroke-width="4"/>
<path d="M140.014 224.236L140.335 226.21L142.309 225.889L155.581 223.729L157.564 223.406L157.232 221.425L155.036 208.297L154.706 206.325L152.733 206.655L139.529 208.864L137.566 209.193L137.885 211.158L140.014 224.236Z" fill="#3A68EE" stroke="#3A68EE" stroke-width="4"/>
<path d="M172.35 62.5867L178.599 50.9025L166.742 44.5612L160.517 56.3258" stroke="#3A68EE" stroke-width="4"/>
<path d="M198.876 88.531L209.366 80.4356L201.15 69.7908L190.65 77.9695" stroke="#3A68EE" stroke-width="4"/>
<path d="M203.67 161.457L216.275 165.542L220.42 152.75L207.74 148.704" stroke="#3A68EE" stroke-width="4"/>
<path d="M80.8082 143.226C72.3073 138.318 73.3866 118.106 82.7463 101.894C92.106 85.6823 109.07 74.6424 117.571 79.5505C126.072 84.4585 121.955 102.915 112.595 119.127C103.235 135.34 89.3088 148.134 80.8082 143.226Z" fill="white"/>
<path d="M182.321 143.246C173.821 148.155 159.895 135.361 150.535 119.148C141.175 102.937 137.058 84.4792 145.558 79.5709C154.06 74.6636 171.023 85.7036 180.384 101.916C189.743 118.127 190.823 138.338 182.321 143.246Z" fill="white"/>
<path d="M131.546 186.461C112.827 186.461 94.7837 177.29 94.7837 167.474C94.7837 157.658 112.827 151.995 131.546 151.995C150.267 151.995 168.31 157.658 168.31 167.474C168.31 177.29 150.267 186.461 131.546 186.461Z" fill="white"/>
<path d="M131.547 116.249C134.284 116.249 136.96 117.06 139.236 118.581C141.512 120.102 143.286 122.263 144.333 124.792C145.381 127.321 145.655 130.104 145.121 132.789C144.587 135.473 143.268 137.939 141.333 139.875C139.397 141.81 136.931 143.128 134.247 143.662C131.562 144.196 128.779 143.922 126.25 142.875C123.722 141.827 121.56 140.053 120.039 137.777C118.519 135.501 117.707 132.826 117.707 130.088C117.707 126.418 119.165 122.898 121.761 120.302C124.356 117.707 127.877 116.249 131.547 116.249Z" fill="white"/>
<path d="M176.699 155.768C176.196 156.639 175.446 157.342 174.544 157.787C173.641 158.232 172.628 158.399 171.63 158.268C170.633 158.137 169.697 157.713 168.94 157.049C168.184 156.386 167.641 155.513 167.381 154.542C167.121 153.57 167.154 152.543 167.478 151.59C167.801 150.638 168.399 149.803 169.197 149.19C169.996 148.578 170.957 148.216 171.961 148.15C172.965 148.084 173.966 148.318 174.837 148.821C175.415 149.154 175.922 149.599 176.329 150.129C176.736 150.659 177.034 151.264 177.207 151.909C177.38 152.554 177.424 153.227 177.337 153.889C177.249 154.551 177.033 155.19 176.699 155.768Z" fill="white"/>
<path d="M93.3439 157.63C92.4727 158.133 91.4719 158.367 90.468 158.301C89.4642 158.235 88.5024 157.873 87.7043 157.261C86.9062 156.648 86.3077 155.813 85.9843 154.86C85.6609 153.908 85.6273 152.881 85.8876 151.909C86.148 150.937 86.6907 150.065 87.447 149.401C88.2033 148.738 89.1394 148.314 90.1367 148.183C91.1341 148.051 92.148 148.219 93.0503 148.664C93.9525 149.109 94.7025 149.811 95.2055 150.682C95.8799 151.851 96.0625 153.239 95.7134 154.542C95.3643 155.845 94.512 156.956 93.3439 157.63Z" fill="white"/>
<path d="M131.547 77.5642C132.553 77.5643 133.536 77.8626 134.373 78.4215C135.209 78.9804 135.861 79.7748 136.246 80.7042C136.631 81.6336 136.732 82.6563 136.536 83.6429C136.339 84.6296 135.855 85.5358 135.144 86.2472C134.432 86.9585 133.526 87.4429 132.539 87.6392C131.553 87.8354 130.53 87.7347 129.601 87.3497C128.671 86.9647 127.877 86.3128 127.318 85.4764C126.759 84.64 126.461 83.6566 126.461 82.6506C126.461 81.3016 126.997 80.0079 127.95 79.054C128.904 78.1001 130.198 77.5643 131.547 77.5642Z" fill="white"/>
</svg>
