<svg width="110" height="110" viewBox="0 0 110 110" fill="none" xmlns="http://www.w3.org/2000/svg">
<mask id="path-1-outside-1" maskUnits="userSpaceOnUse" x="0.422741" y="-0.031146" width="109.882" height="109.882" fill="black">
<rect fill="white" x="0.422741" y="-0.031146" width="109.882" height="109.882"/>
<path d="M76.0341 82.4424C76.0341 82.4424 76.0327 82.4386 76.0331 82.4351C75.9508 82.2795 75.9023 82.1095 75.89 81.9362C75.8812 81.8492 75.9079 81.766 75.9168 81.6809C75.9259 81.594 75.9207 81.5074 75.9457 81.4222C75.999 81.2558 76.0835 81.0997 76.1962 80.9646L76.1986 80.9594L84.908 70.6114C85.1325 70.3338 85.4625 70.1605 85.8186 70.1315C85.9941 70.1159 86.1695 70.136 86.3412 70.1899L95.3571 72.9723L98.5319 62.5548L89.4907 59.6389C89.4613 59.6287 89.4438 59.6071 89.4164 59.5953C89.3165 59.5561 89.229 59.5021 89.142 59.4428C89.092 59.4071 89.0393 59.3801 88.9971 59.338C88.9119 59.261 88.8482 59.1683 88.7867 59.0704C88.7605 59.03 88.7263 58.9978 88.7041 58.9524C88.6405 58.8239 88.6001 58.6798 88.58 58.529C88.5784 58.5109 88.5694 58.4938 88.5675 58.4775L87.3935 44.9891C87.392 44.9871 87.3921 44.9853 87.3921 44.9853C87.3769 44.8063 87.3967 44.6345 87.45 44.468C87.4764 44.3866 87.5284 44.3185 87.5702 44.2441C87.6125 44.166 87.6407 44.0848 87.6982 44.0155C87.7943 43.9019 87.9134 43.8087 88.0452 43.7311C88.0664 43.7172 88.0793 43.697 88.0983 43.6864L96.4789 39.2275L91.3609 29.6451L82.9731 34.1051C82.9409 34.1214 82.91 34.1253 82.8764 34.1379C82.8407 34.1539 82.8075 34.163 82.7704 34.1752C82.5845 34.2382 82.3946 34.272 82.2066 34.2523L82.2049 34.2521L82.2031 34.252C82.0187 34.2326 81.8399 34.1601 81.6712 34.06C81.6356 34.0401 81.605 34.0244 81.5716 34.0011C81.5449 33.9822 81.5138 33.9718 81.4873 33.9511L70.9926 25.2209C70.8559 25.1062 70.745 24.9673 70.6645 24.8119C70.6268 24.7434 70.6207 24.6657 70.5962 24.5914C70.5681 24.5007 70.5252 24.4137 70.5154 24.3195C70.4976 24.1474 70.514 23.9734 70.5657 23.805C70.5657 23.805 70.5659 23.8032 70.5661 23.8015L73.3696 14.6355L62.9641 11.4655L60.1875 20.4263L60.185 20.4333C60.1339 20.5964 60.0525 20.7402 59.9532 20.866C59.9263 20.9008 59.8898 20.9239 59.8579 20.9546C59.7754 21.0409 59.69 21.1198 59.5886 21.1809C59.5388 21.2115 59.4818 21.2252 59.4292 21.2484C59.3297 21.2917 59.2328 21.3264 59.1235 21.3436C59.0942 21.3495 59.0746 21.3653 59.0437 21.3693L45.4572 22.7444C45.3667 22.7529 45.2789 22.7526 45.1936 22.7455L45.1847 22.7446C45.1847 22.7446 45.1847 22.7446 45.1829 22.7444L45.1812 22.7442C44.9861 22.7237 44.8077 22.6477 44.6441 22.5499C44.6003 22.5238 44.5637 22.4966 44.5239 22.4656C44.3829 22.3576 44.2634 22.2322 44.1739 22.0776C44.1633 22.0586 44.1444 22.0512 44.1354 22.0341L39.7449 13.5998L30.0317 18.7166L34.4298 27.1642C34.4298 27.1642 34.4312 27.168 34.4309 27.1715C34.5131 27.3271 34.5616 27.4971 34.5739 27.6704C34.5827 27.7574 34.5561 27.8406 34.5471 27.9257C34.538 28.0126 34.5433 28.0992 34.5182 28.1844C34.4649 28.3509 34.3805 28.5069 34.2677 28.642L34.2654 28.6472L25.5533 39.0039C25.5367 39.0255 25.5111 39.03 25.4931 39.0478C25.3783 39.1684 25.2428 39.2635 25.0919 39.3355C25.0464 39.3594 25.0032 39.3782 24.9529 39.3962C24.7745 39.4564 24.588 39.4924 24.3929 39.4719L24.3912 39.4717L24.3894 39.4716C24.3894 39.4716 24.3841 39.471 24.3823 39.4708C24.2992 39.4603 24.2168 39.4427 24.1334 39.4178L15.1727 36.6395L11.9479 47.0374L20.9552 49.8153C21.3415 49.9257 21.6445 50.2155 21.8006 50.5904C21.8521 50.714 21.8996 50.8427 21.9124 50.9767L21.915 50.9859L23.0755 64.6199C23.091 64.7972 23.0708 64.9725 23.0158 65.1388C22.9916 65.2151 22.9424 65.2745 22.9066 65.3424C22.8618 65.4273 22.8309 65.5173 22.7695 65.5897C22.6589 65.7215 22.5218 65.8326 22.3662 65.9149L22.3661 65.9166L13.9955 70.3139L19.1107 79.9569L27.495 75.4966L27.5042 75.494C27.6598 75.4117 27.83 75.3615 28.0018 75.3472C28.0633 75.3411 28.1221 75.3616 28.1845 75.3646C28.3236 75.372 28.4577 75.3914 28.5904 75.443C28.7247 75.4947 28.8564 75.5551 28.9721 75.6479L28.9789 75.6522L39.4751 84.3843L39.4767 84.3863C39.6116 84.5008 39.7227 84.6379 39.8032 84.7933C39.8407 84.8636 39.8486 84.9415 39.8729 85.0175C39.901 85.1083 39.9425 85.1915 39.9506 85.2855C39.9682 85.4594 39.9498 85.635 39.8979 85.8052L39.8977 85.8069L37.1095 94.8437L47.5703 98.136L50.3622 89.0459L50.3665 89.0392C50.42 88.8709 50.5043 88.7166 50.6135 88.5811C50.6276 88.5665 50.6462 88.5595 50.6583 88.5464C50.8752 88.3075 51.1706 88.1395 51.5163 88.1076L65.0192 86.8635L65.0245 86.864C65.2018 86.8486 65.3773 86.867 65.5456 86.9204C65.6184 86.9442 65.6759 86.9933 65.7439 87.0291C65.829 87.072 65.9207 87.1032 65.9932 87.1645C66.1283 87.2773 66.2394 87.4144 66.3232 87.5719C66.3231 87.5737 66.3248 87.5739 66.3248 87.5739L70.7231 95.9517L80.4287 90.8897L76.0341 82.4424Z"/>
</mask>
<path d="M76.0341 82.4424C76.0341 82.4424 76.0327 82.4386 76.0331 82.4351C75.9508 82.2795 75.9023 82.1095 75.89 81.9362C75.8812 81.8492 75.9079 81.766 75.9168 81.6809C75.9259 81.594 75.9207 81.5074 75.9457 81.4222C75.999 81.2558 76.0835 81.0997 76.1962 80.9646L76.1986 80.9594L84.908 70.6114C85.1325 70.3338 85.4625 70.1605 85.8186 70.1315C85.9941 70.1159 86.1695 70.136 86.3412 70.1899L95.3571 72.9723L98.5319 62.5548L89.4907 59.6389C89.4613 59.6287 89.4438 59.6071 89.4164 59.5953C89.3165 59.5561 89.229 59.5021 89.142 59.4428C89.092 59.4071 89.0393 59.3801 88.9971 59.338C88.9119 59.261 88.8482 59.1683 88.7867 59.0704C88.7605 59.03 88.7263 58.9978 88.7041 58.9524C88.6405 58.8239 88.6001 58.6798 88.58 58.529C88.5784 58.5109 88.5694 58.4938 88.5675 58.4775L87.3935 44.9891C87.392 44.9871 87.3921 44.9853 87.3921 44.9853C87.3769 44.8063 87.3967 44.6345 87.45 44.468C87.4764 44.3866 87.5284 44.3185 87.5702 44.2441C87.6125 44.166 87.6407 44.0848 87.6982 44.0155C87.7943 43.9019 87.9134 43.8087 88.0452 43.7311C88.0664 43.7172 88.0793 43.697 88.0983 43.6864L96.4789 39.2275L91.3609 29.6451L82.9731 34.1051C82.9409 34.1214 82.91 34.1253 82.8764 34.1379C82.8407 34.1539 82.8075 34.163 82.7704 34.1752C82.5845 34.2382 82.3946 34.272 82.2066 34.2523L82.2049 34.2521L82.2031 34.252C82.0187 34.2326 81.8399 34.1601 81.6712 34.06C81.6356 34.0401 81.605 34.0244 81.5716 34.0011C81.5449 33.9822 81.5138 33.9718 81.4873 33.9511L70.9926 25.2209C70.8559 25.1062 70.745 24.9673 70.6645 24.8119C70.6268 24.7434 70.6207 24.6657 70.5962 24.5914C70.5681 24.5007 70.5252 24.4137 70.5154 24.3195C70.4976 24.1474 70.514 23.9734 70.5657 23.805C70.5657 23.805 70.5659 23.8032 70.5661 23.8015L73.3696 14.6355L62.9641 11.4655L60.1875 20.4263L60.185 20.4333C60.1339 20.5964 60.0525 20.7402 59.9532 20.866C59.9263 20.9008 59.8898 20.9239 59.8579 20.9546C59.7754 21.0409 59.69 21.1198 59.5886 21.1809C59.5388 21.2115 59.4818 21.2252 59.4292 21.2484C59.3297 21.2917 59.2328 21.3264 59.1235 21.3436C59.0942 21.3495 59.0746 21.3653 59.0437 21.3693L45.4572 22.7444C45.3667 22.7529 45.2789 22.7526 45.1936 22.7455L45.1847 22.7446C45.1847 22.7446 45.1847 22.7446 45.1829 22.7444L45.1812 22.7442C44.9861 22.7237 44.8077 22.6477 44.6441 22.5499C44.6003 22.5238 44.5637 22.4966 44.5239 22.4656C44.3829 22.3576 44.2634 22.2322 44.1739 22.0776C44.1633 22.0586 44.1444 22.0512 44.1354 22.0341L39.7449 13.5998L30.0317 18.7166L34.4298 27.1642C34.4298 27.1642 34.4312 27.168 34.4309 27.1715C34.5131 27.3271 34.5616 27.4971 34.5739 27.6704C34.5827 27.7574 34.5561 27.8406 34.5471 27.9257C34.538 28.0126 34.5433 28.0992 34.5182 28.1844C34.4649 28.3509 34.3805 28.5069 34.2677 28.642L34.2654 28.6472L25.5533 39.0039C25.5367 39.0255 25.5111 39.03 25.4931 39.0478C25.3783 39.1684 25.2428 39.2635 25.0919 39.3355C25.0464 39.3594 25.0032 39.3782 24.9529 39.3962C24.7745 39.4564 24.588 39.4924 24.3929 39.4719L24.3912 39.4717L24.3894 39.4716C24.3894 39.4716 24.3841 39.471 24.3823 39.4708C24.2992 39.4603 24.2168 39.4427 24.1334 39.4178L15.1727 36.6395L11.9479 47.0374L20.9552 49.8153C21.3415 49.9257 21.6445 50.2155 21.8006 50.5904C21.8521 50.714 21.8996 50.8427 21.9124 50.9767L21.915 50.9859L23.0755 64.6199C23.091 64.7972 23.0708 64.9725 23.0158 65.1388C22.9916 65.2151 22.9424 65.2745 22.9066 65.3424C22.8618 65.4273 22.8309 65.5173 22.7695 65.5897C22.6589 65.7215 22.5218 65.8326 22.3662 65.9149L22.3661 65.9166L13.9955 70.3139L19.1107 79.9569L27.495 75.4966L27.5042 75.494C27.6598 75.4117 27.83 75.3615 28.0018 75.3472C28.0633 75.3411 28.1221 75.3616 28.1845 75.3646C28.3236 75.372 28.4577 75.3914 28.5904 75.443C28.7247 75.4947 28.8564 75.5551 28.9721 75.6479L28.9789 75.6522L39.4751 84.3843L39.4767 84.3863C39.6116 84.5008 39.7227 84.6379 39.8032 84.7933C39.8407 84.8636 39.8486 84.9415 39.8729 85.0175C39.901 85.1083 39.9425 85.1915 39.9506 85.2855C39.9682 85.4594 39.9498 85.635 39.8979 85.8052L39.8977 85.8069L37.1095 94.8437L47.5703 98.136L50.3622 89.0459L50.3665 89.0392C50.42 88.8709 50.5043 88.7166 50.6135 88.5811C50.6276 88.5665 50.6462 88.5595 50.6583 88.5464C50.8752 88.3075 51.1706 88.1395 51.5163 88.1076L65.0192 86.8635L65.0245 86.864C65.2018 86.8486 65.3773 86.867 65.5456 86.9204C65.6184 86.9442 65.6759 86.9933 65.7439 87.0291C65.829 87.072 65.9207 87.1032 65.9932 87.1645C66.1283 87.2773 66.2394 87.4144 66.3232 87.5719C66.3231 87.5737 66.3248 87.5739 66.3248 87.5739L70.7231 95.9517L80.4287 90.8897L76.0341 82.4424Z" fill="black"/>
<path d="M76.0341 82.4424C76.0341 82.4424 76.0327 82.4386 76.0331 82.4351C75.9508 82.2795 75.9023 82.1095 75.89 81.9362C75.8812 81.8492 75.9079 81.766 75.9168 81.6809C75.9259 81.594 75.9207 81.5074 75.9457 81.4222C75.999 81.2558 76.0835 81.0997 76.1962 80.9646L76.1986 80.9594L84.908 70.6114C85.1325 70.3338 85.4625 70.1605 85.8186 70.1315C85.9941 70.1159 86.1695 70.136 86.3412 70.1899L95.3571 72.9723L98.5319 62.5548L89.4907 59.6389C89.4613 59.6287 89.4438 59.6071 89.4164 59.5953C89.3165 59.5561 89.229 59.5021 89.142 59.4428C89.092 59.4071 89.0393 59.3801 88.9971 59.338C88.9119 59.261 88.8482 59.1683 88.7867 59.0704C88.7605 59.03 88.7263 58.9978 88.7041 58.9524C88.6405 58.8239 88.6001 58.6798 88.58 58.529C88.5784 58.5109 88.5694 58.4938 88.5675 58.4775L87.3935 44.9891C87.392 44.9871 87.3921 44.9853 87.3921 44.9853C87.3769 44.8063 87.3967 44.6345 87.45 44.468C87.4764 44.3866 87.5284 44.3185 87.5702 44.2441C87.6125 44.166 87.6407 44.0848 87.6982 44.0155C87.7943 43.9019 87.9134 43.8087 88.0452 43.7311C88.0664 43.7172 88.0793 43.697 88.0983 43.6864L96.4789 39.2275L91.3609 29.6451L82.9731 34.1051C82.9409 34.1214 82.91 34.1253 82.8764 34.1379C82.8407 34.1539 82.8075 34.163 82.7704 34.1752C82.5845 34.2382 82.3946 34.272 82.2066 34.2523L82.2049 34.2521L82.2031 34.252C82.0187 34.2326 81.8399 34.1601 81.6712 34.06C81.6356 34.0401 81.605 34.0244 81.5716 34.0011C81.5449 33.9822 81.5138 33.9718 81.4873 33.9511L70.9926 25.2209C70.8559 25.1062 70.745 24.9673 70.6645 24.8119C70.6268 24.7434 70.6207 24.6657 70.5962 24.5914C70.5681 24.5007 70.5252 24.4137 70.5154 24.3195C70.4976 24.1474 70.514 23.9734 70.5657 23.805C70.5657 23.805 70.5659 23.8032 70.5661 23.8015L73.3696 14.6355L62.9641 11.4655L60.1875 20.4263L60.185 20.4333C60.1339 20.5964 60.0525 20.7402 59.9532 20.866C59.9263 20.9008 59.8898 20.9239 59.8579 20.9546C59.7754 21.0409 59.69 21.1198 59.5886 21.1809C59.5388 21.2115 59.4818 21.2252 59.4292 21.2484C59.3297 21.2917 59.2328 21.3264 59.1235 21.3436C59.0942 21.3495 59.0746 21.3653 59.0437 21.3693L45.4572 22.7444C45.3667 22.7529 45.2789 22.7526 45.1936 22.7455L45.1847 22.7446C45.1847 22.7446 45.1847 22.7446 45.1829 22.7444L45.1812 22.7442C44.9861 22.7237 44.8077 22.6477 44.6441 22.5499C44.6003 22.5238 44.5637 22.4966 44.5239 22.4656C44.3829 22.3576 44.2634 22.2322 44.1739 22.0776C44.1633 22.0586 44.1444 22.0512 44.1354 22.0341L39.7449 13.5998L30.0317 18.7166L34.4298 27.1642C34.4298 27.1642 34.4312 27.168 34.4309 27.1715C34.5131 27.3271 34.5616 27.4971 34.5739 27.6704C34.5827 27.7574 34.5561 27.8406 34.5471 27.9257C34.538 28.0126 34.5433 28.0992 34.5182 28.1844C34.4649 28.3509 34.3805 28.5069 34.2677 28.642L34.2654 28.6472L25.5533 39.0039C25.5367 39.0255 25.5111 39.03 25.4931 39.0478C25.3783 39.1684 25.2428 39.2635 25.0919 39.3355C25.0464 39.3594 25.0032 39.3782 24.9529 39.3962C24.7745 39.4564 24.588 39.4924 24.3929 39.4719L24.3912 39.4717L24.3894 39.4716C24.3894 39.4716 24.3841 39.471 24.3823 39.4708C24.2992 39.4603 24.2168 39.4427 24.1334 39.4178L15.1727 36.6395L11.9479 47.0374L20.9552 49.8153C21.3415 49.9257 21.6445 50.2155 21.8006 50.5904C21.8521 50.714 21.8996 50.8427 21.9124 50.9767L21.915 50.9859L23.0755 64.6199C23.091 64.7972 23.0708 64.9725 23.0158 65.1388C22.9916 65.2151 22.9424 65.2745 22.9066 65.3424C22.8618 65.4273 22.8309 65.5173 22.7695 65.5897C22.6589 65.7215 22.5218 65.8326 22.3662 65.9149L22.3661 65.9166L13.9955 70.3139L19.1107 79.9569L27.495 75.4966L27.5042 75.494C27.6598 75.4117 27.83 75.3615 28.0018 75.3472C28.0633 75.3411 28.1221 75.3616 28.1845 75.3646C28.3236 75.372 28.4577 75.3914 28.5904 75.443C28.7247 75.4947 28.8564 75.5551 28.9721 75.6479L28.9789 75.6522L39.4751 84.3843L39.4767 84.3863C39.6116 84.5008 39.7227 84.6379 39.8032 84.7933C39.8407 84.8636 39.8486 84.9415 39.8729 85.0175C39.901 85.1083 39.9425 85.1915 39.9506 85.2855C39.9682 85.4594 39.9498 85.635 39.8979 85.8052L39.8977 85.8069L37.1095 94.8437L47.5703 98.136L50.3622 89.0459L50.3665 89.0392C50.42 88.8709 50.5043 88.7166 50.6135 88.5811C50.6276 88.5665 50.6462 88.5595 50.6583 88.5464C50.8752 88.3075 51.1706 88.1395 51.5163 88.1076L65.0192 86.8635L65.0245 86.864C65.2018 86.8486 65.3773 86.867 65.5456 86.9204C65.6184 86.9442 65.6759 86.9933 65.7439 87.0291C65.829 87.072 65.9207 87.1032 65.9932 87.1645C66.1283 87.2773 66.2394 87.4144 66.3232 87.5719C66.3231 87.5737 66.3248 87.5739 66.3248 87.5739L70.7231 95.9517L80.4287 90.8897L76.0341 82.4424Z" stroke="black" stroke-width="10" mask="url(#path-1-outside-1)"/>
<circle cx="55.037" cy="54.7979" r="22.9364" transform="rotate(5.9851 55.037 54.7979)" fill="white"/>
</svg>
