<svg width="70" height="71" viewBox="0 0 70 71" fill="none" xmlns="http://www.w3.org/2000/svg">
<mask id="path-1-outside-1" maskUnits="userSpaceOnUse" x="-0.392578" y="0.00146484" width="71" height="71" fill="black">
<rect fill="white" x="-0.392578" y="0.00146484" width="71" height="71"/>
<path d="M59.8374 35.368C59.8638 35.2376 59.9152 35.115 59.9877 35.0069C60.0061 34.9792 60.0325 34.9634 60.0522 34.9397C60.1893 34.7697 60.3751 34.6366 60.6058 34.5865L67.5198 33.1394L65.9053 25.196L59.0545 26.6378C58.9886 26.651 58.9228 26.6576 58.8582 26.6589H58.8503C58.7053 26.6589 58.5695 26.6181 58.4417 26.5588C58.4087 26.543 58.3798 26.5258 58.3481 26.5061C58.2361 26.4375 58.1386 26.3532 58.0595 26.2477C58.0503 26.2359 58.0371 26.2319 58.0305 26.2201L58.012 26.1924L52.4186 17.8273L52.4173 17.8233C52.3435 17.7126 52.2934 17.5913 52.2697 17.4648C52.2657 17.445 52.2723 17.4253 52.2697 17.4042C52.2538 17.2895 52.2552 17.1735 52.2815 17.0589C52.3092 16.9429 52.3527 16.8309 52.4186 16.7307L52.4199 16.7254L56.3461 10.9013L49.6944 6.39918L45.7695 12.218C45.7589 12.2338 45.7405 12.2404 45.7299 12.2536C45.6522 12.3537 45.5612 12.4355 45.4545 12.5C45.4228 12.5198 45.3925 12.5383 45.3596 12.5541C45.2317 12.6134 45.0973 12.6542 44.951 12.6542H44.9431C44.8838 12.6529 44.8232 12.649 44.7625 12.6358L34.8264 10.7313C34.8027 10.7261 34.7869 10.7116 34.7645 10.705C34.6867 10.6839 34.6168 10.6536 34.547 10.6167C34.5088 10.5943 34.4679 10.5784 34.4336 10.5521C34.3664 10.5046 34.3137 10.444 34.261 10.3807C34.2359 10.3518 34.207 10.3267 34.1859 10.2964C34.1358 10.2173 34.1028 10.129 34.0752 10.0368C34.0673 10.0091 34.0501 9.988 34.0462 9.959C34.0462 9.959 34.0422 9.95373 34.0422 9.94978L32.69 3.00146L24.7967 4.61465L26.1489 11.4707C26.1766 11.6012 26.1753 11.7343 26.1489 11.8621C26.1384 11.9162 26.1081 11.961 26.0883 12.0124C26.0619 12.0809 26.0448 12.1508 26.0053 12.2114C25.9459 12.2997 25.8682 12.3709 25.7838 12.4368C25.7654 12.4526 25.7562 12.4724 25.7364 12.4855L17.4477 18.0974C17.4253 18.1119 17.4029 18.1172 17.3805 18.1291C17.3541 18.1436 17.3304 18.1541 17.3027 18.1647C17.1696 18.2253 17.0339 18.2661 16.8928 18.2661H16.8902C16.7531 18.2661 16.6148 18.2266 16.483 18.166C16.4579 18.1554 16.4342 18.1462 16.4092 18.133C16.3881 18.1212 16.3657 18.1172 16.3446 18.104L10.4744 14.2187L6.00646 20.8783L11.8332 24.8533L11.8371 24.8546L11.8385 24.856C11.8503 24.8639 11.8556 24.877 11.8674 24.885C11.9597 24.9548 12.0427 25.0339 12.106 25.1301C12.1376 25.1802 12.1508 25.2395 12.1745 25.2935C12.2022 25.3568 12.2365 25.4148 12.2497 25.482C12.2721 25.5901 12.2668 25.7008 12.251 25.8115C12.2483 25.8299 12.2549 25.8458 12.251 25.8642V25.8668L12.2497 25.8682L10.2951 35.7489L10.2938 35.7529C10.2872 35.7806 10.2701 35.8069 10.2622 35.8346C10.2345 35.9242 10.2042 36.0138 10.1541 36.089C10.133 36.1206 10.104 36.1456 10.0803 36.1733C10.0276 36.2379 9.97485 36.2972 9.90763 36.346C9.87205 36.3723 9.83119 36.3895 9.79165 36.4119C9.72311 36.4488 9.65458 36.4804 9.57814 36.5002C9.55574 36.5054 9.53992 36.5213 9.5162 36.5265L2.60742 37.8801L4.13626 45.7734L11.0925 44.4185C11.107 44.4159 11.1188 44.4211 11.132 44.4185C11.248 44.4001 11.3653 44.3987 11.48 44.4225C11.5129 44.4291 11.5406 44.4501 11.5722 44.4594C11.6605 44.487 11.7501 44.516 11.8292 44.5674C11.8885 44.6083 11.932 44.6676 11.9821 44.719C12.0203 44.7585 12.0665 44.7862 12.0994 44.8337L17.7113 53.1223C17.7113 53.1223 17.7126 53.1289 17.7153 53.1316C17.7693 53.2133 17.7983 53.3055 17.826 53.3965C17.8352 53.4268 17.8563 53.4558 17.8629 53.4874C17.8681 53.5164 17.8602 53.548 17.8629 53.5784C17.8721 53.6733 17.8813 53.7708 17.8629 53.8644C17.8589 53.8855 17.8444 53.9026 17.8391 53.9237C17.8115 54.0278 17.7746 54.1293 17.7139 54.2229C17.7126 54.2255 17.7126 54.2281 17.7126 54.2281L13.7864 60.0509L20.4817 64.5557L24.3578 58.7408L24.3618 58.7369C24.5357 58.4786 24.8283 58.3296 25.1446 58.3204C25.2224 58.3164 25.2962 58.3059 25.3726 58.3217H25.3792L35.2126 60.329C35.3022 60.3474 35.3773 60.3922 35.4551 60.4318C35.4867 60.4476 35.5236 60.4529 35.5539 60.4726C35.6303 60.5227 35.6897 60.5913 35.7477 60.6585C35.774 60.6888 35.807 60.7099 35.8294 60.7402C35.8795 60.8153 35.9071 60.8997 35.9361 60.9853C35.9493 61.0236 35.9743 61.0539 35.9823 61.0934L37.4294 67.9613L45.3358 66.389L43.981 59.4802C43.9783 59.467 43.9836 59.4552 43.981 59.4446C43.9625 59.3273 43.9599 59.21 43.9836 59.0954C43.9955 59.04 44.0245 58.9939 44.0456 58.9412C44.0719 58.8739 44.0891 58.8054 44.1286 58.7448C44.1892 58.6552 44.2683 58.58 44.3566 58.5115C44.3724 58.4996 44.3803 58.4825 44.3961 58.472L44.3975 58.4707L52.6848 52.8601L52.6914 52.8574C52.7837 52.7955 52.8865 52.7599 52.9932 52.7309C53.013 52.7256 53.0301 52.7111 53.0499 52.7072C53.1132 52.6953 53.1764 52.7072 53.241 52.7072C53.3043 52.7072 53.3688 52.6953 53.4308 52.7072C53.4571 52.7125 53.4809 52.7309 53.5072 52.7375C53.6048 52.7652 53.701 52.7981 53.788 52.8548L53.7972 52.8588L59.6661 56.8324L64.1722 50.095L58.3086 46.2149C58.3059 46.2136 58.3046 46.2109 58.3046 46.2109C58.2137 46.149 58.1438 46.0699 58.0792 45.9869C58.0068 45.892 57.958 45.7905 57.9237 45.6798C57.9132 45.6482 57.8934 45.6218 57.8868 45.5889C57.8605 45.4623 57.8605 45.3305 57.8855 45.2014V45.1974L59.8374 35.368Z"/>
</mask>
<path d="M59.8374 35.368C59.8638 35.2376 59.9152 35.115 59.9877 35.0069C60.0061 34.9792 60.0325 34.9634 60.0522 34.9397C60.1893 34.7697 60.3751 34.6366 60.6058 34.5865L67.5198 33.1394L65.9053 25.196L59.0545 26.6378C58.9886 26.651 58.9228 26.6576 58.8582 26.6589H58.8503C58.7053 26.6589 58.5695 26.6181 58.4417 26.5588C58.4087 26.543 58.3798 26.5258 58.3481 26.5061C58.2361 26.4375 58.1386 26.3532 58.0595 26.2477C58.0503 26.2359 58.0371 26.2319 58.0305 26.2201L58.012 26.1924L52.4186 17.8273L52.4173 17.8233C52.3435 17.7126 52.2934 17.5913 52.2697 17.4648C52.2657 17.445 52.2723 17.4253 52.2697 17.4042C52.2538 17.2895 52.2552 17.1735 52.2815 17.0589C52.3092 16.9429 52.3527 16.8309 52.4186 16.7307L52.4199 16.7254L56.3461 10.9013L49.6944 6.39918L45.7695 12.218C45.7589 12.2338 45.7405 12.2404 45.7299 12.2536C45.6522 12.3537 45.5612 12.4355 45.4545 12.5C45.4228 12.5198 45.3925 12.5383 45.3596 12.5541C45.2317 12.6134 45.0973 12.6542 44.951 12.6542H44.9431C44.8838 12.6529 44.8232 12.649 44.7625 12.6358L34.8264 10.7313C34.8027 10.7261 34.7869 10.7116 34.7645 10.705C34.6867 10.6839 34.6168 10.6536 34.547 10.6167C34.5088 10.5943 34.4679 10.5784 34.4336 10.5521C34.3664 10.5046 34.3137 10.444 34.261 10.3807C34.2359 10.3518 34.207 10.3267 34.1859 10.2964C34.1358 10.2173 34.1028 10.129 34.0752 10.0368C34.0673 10.0091 34.0501 9.988 34.0462 9.959C34.0462 9.959 34.0422 9.95373 34.0422 9.94978L32.69 3.00146L24.7967 4.61465L26.1489 11.4707C26.1766 11.6012 26.1753 11.7343 26.1489 11.8621C26.1384 11.9162 26.1081 11.961 26.0883 12.0124C26.0619 12.0809 26.0448 12.1508 26.0053 12.2114C25.9459 12.2997 25.8682 12.3709 25.7838 12.4368C25.7654 12.4526 25.7562 12.4724 25.7364 12.4855L17.4477 18.0974C17.4253 18.1119 17.4029 18.1172 17.3805 18.1291C17.3541 18.1436 17.3304 18.1541 17.3027 18.1647C17.1696 18.2253 17.0339 18.2661 16.8928 18.2661H16.8902C16.7531 18.2661 16.6148 18.2266 16.483 18.166C16.4579 18.1554 16.4342 18.1462 16.4092 18.133C16.3881 18.1212 16.3657 18.1172 16.3446 18.104L10.4744 14.2187L6.00646 20.8783L11.8332 24.8533L11.8371 24.8546L11.8385 24.856C11.8503 24.8639 11.8556 24.877 11.8674 24.885C11.9597 24.9548 12.0427 25.0339 12.106 25.1301C12.1376 25.1802 12.1508 25.2395 12.1745 25.2935C12.2022 25.3568 12.2365 25.4148 12.2497 25.482C12.2721 25.5901 12.2668 25.7008 12.251 25.8115C12.2483 25.8299 12.2549 25.8458 12.251 25.8642V25.8668L12.2497 25.8682L10.2951 35.7489L10.2938 35.7529C10.2872 35.7806 10.2701 35.8069 10.2622 35.8346C10.2345 35.9242 10.2042 36.0138 10.1541 36.089C10.133 36.1206 10.104 36.1456 10.0803 36.1733C10.0276 36.2379 9.97485 36.2972 9.90763 36.346C9.87205 36.3723 9.83119 36.3895 9.79165 36.4119C9.72311 36.4488 9.65458 36.4804 9.57814 36.5002C9.55574 36.5054 9.53992 36.5213 9.5162 36.5265L2.60742 37.8801L4.13626 45.7734L11.0925 44.4185C11.107 44.4159 11.1188 44.4211 11.132 44.4185C11.248 44.4001 11.3653 44.3987 11.48 44.4225C11.5129 44.4291 11.5406 44.4501 11.5722 44.4594C11.6605 44.487 11.7501 44.516 11.8292 44.5674C11.8885 44.6083 11.932 44.6676 11.9821 44.719C12.0203 44.7585 12.0665 44.7862 12.0994 44.8337L17.7113 53.1223C17.7113 53.1223 17.7126 53.1289 17.7153 53.1316C17.7693 53.2133 17.7983 53.3055 17.826 53.3965C17.8352 53.4268 17.8563 53.4558 17.8629 53.4874C17.8681 53.5164 17.8602 53.548 17.8629 53.5784C17.8721 53.6733 17.8813 53.7708 17.8629 53.8644C17.8589 53.8855 17.8444 53.9026 17.8391 53.9237C17.8115 54.0278 17.7746 54.1293 17.7139 54.2229C17.7126 54.2255 17.7126 54.2281 17.7126 54.2281L13.7864 60.0509L20.4817 64.5557L24.3578 58.7408L24.3618 58.7369C24.5357 58.4786 24.8283 58.3296 25.1446 58.3204C25.2224 58.3164 25.2962 58.3059 25.3726 58.3217H25.3792L35.2126 60.329C35.3022 60.3474 35.3773 60.3922 35.4551 60.4318C35.4867 60.4476 35.5236 60.4529 35.5539 60.4726C35.6303 60.5227 35.6897 60.5913 35.7477 60.6585C35.774 60.6888 35.807 60.7099 35.8294 60.7402C35.8795 60.8153 35.9071 60.8997 35.9361 60.9853C35.9493 61.0236 35.9743 61.0539 35.9823 61.0934L37.4294 67.9613L45.3358 66.389L43.981 59.4802C43.9783 59.467 43.9836 59.4552 43.981 59.4446C43.9625 59.3273 43.9599 59.21 43.9836 59.0954C43.9955 59.04 44.0245 58.9939 44.0456 58.9412C44.0719 58.8739 44.0891 58.8054 44.1286 58.7448C44.1892 58.6552 44.2683 58.58 44.3566 58.5115C44.3724 58.4996 44.3803 58.4825 44.3961 58.472L44.3975 58.4707L52.6848 52.8601L52.6914 52.8574C52.7837 52.7955 52.8865 52.7599 52.9932 52.7309C53.013 52.7256 53.0301 52.7111 53.0499 52.7072C53.1132 52.6953 53.1764 52.7072 53.241 52.7072C53.3043 52.7072 53.3688 52.6953 53.4308 52.7072C53.4571 52.7125 53.4809 52.7309 53.5072 52.7375C53.6048 52.7652 53.701 52.7981 53.788 52.8548L53.7972 52.8588L59.6661 56.8324L64.1722 50.095L58.3086 46.2149C58.3059 46.2136 58.3046 46.2109 58.3046 46.2109C58.2137 46.149 58.1438 46.0699 58.0792 45.9869C58.0068 45.892 57.958 45.7905 57.9237 45.6798C57.9132 45.6482 57.8934 45.6218 57.8868 45.5889C57.8605 45.4623 57.8605 45.3305 57.8855 45.2014V45.1974L59.8374 35.368Z" stroke="#3A68EE" stroke-width="4" mask="url(#path-1-outside-1)"/>
</svg>
