<svg width="107" height="108" viewBox="0 0 107 108" fill="none" xmlns="http://www.w3.org/2000/svg">
<mask id="path-1-outside-1" maskUnits="userSpaceOnUse" x="0.0625" y="0.400879" width="107" height="107" fill="black">
<rect fill="white" x="0.0625" y="0.400879" width="107" height="107"/>
<path d="M91.511 53.8576C91.5513 53.6583 91.6299 53.471 91.7406 53.3059C91.7688 53.2636 91.8091 53.2394 91.8393 53.2031C92.0488 52.9433 92.3327 52.7399 92.6851 52.6634L103.25 50.4522L100.783 38.3146L90.3148 40.5177C90.2141 40.5379 90.1134 40.5479 90.0147 40.55H90.0067H90.0047H90.0027C89.7811 40.55 89.5737 40.4875 89.3784 40.3969C89.328 40.3727 89.2837 40.3466 89.2354 40.3163C89.0642 40.2116 88.9152 40.0827 88.7943 39.9216C88.7802 39.9035 88.7601 39.8975 88.75 39.8793L88.7218 39.837L80.1749 27.055L80.1729 27.0489C80.0602 26.8798 79.9836 26.6945 79.9474 26.5012C79.9413 26.4709 79.9514 26.4407 79.9474 26.4085C79.9232 26.2333 79.9252 26.0561 79.9655 25.8809C80.0078 25.7037 80.0742 25.5325 80.1749 25.3794L80.177 25.3714L86.1763 16.4721L76.0123 9.59265L70.0149 18.4839C69.9988 18.5081 69.9706 18.5182 69.9545 18.5383C69.8357 18.6913 69.6967 18.8162 69.5336 18.9149C69.4853 18.9451 69.439 18.9733 69.3886 18.9975C69.1933 19.0881 68.9879 19.1505 68.7643 19.1505H68.7623H68.7603H68.7522C68.6616 19.1485 68.569 19.1424 68.4763 19.1223L53.2937 16.2123C53.2575 16.2042 53.2333 16.182 53.1991 16.172C53.0802 16.1398 52.9735 16.0934 52.8668 16.0371C52.8084 16.0028 52.7459 15.9787 52.6936 15.9384C52.5909 15.8659 52.5103 15.7732 52.4298 15.6766C52.3915 15.6323 52.3472 15.594 52.315 15.5477C52.2385 15.4269 52.1881 15.2919 52.1458 15.1509C52.1337 15.1087 52.1075 15.0764 52.1015 15.0321C52.1015 15.0321 52.0955 15.0241 52.0955 15.018L50.0292 4.40088L37.9681 6.86586L40.0344 17.342C40.0766 17.5414 40.0746 17.7448 40.0344 17.9402C40.0182 18.0227 39.9719 18.0912 39.9417 18.1697C39.9014 18.2745 39.8753 18.3812 39.8148 18.4738C39.7242 18.6088 39.6054 18.7175 39.4765 18.8182C39.4483 18.8424 39.4342 18.8726 39.404 18.8927L26.7388 27.4678C26.7045 27.49 26.6703 27.498 26.636 27.5162C26.5958 27.5383 26.5595 27.5544 26.5172 27.5705C26.3138 27.6632 26.1064 27.7256 25.8909 27.7256H25.8889H25.8869C25.6774 27.7256 25.466 27.6652 25.2646 27.5725C25.2263 27.5564 25.1901 27.5423 25.1518 27.5222C25.1196 27.5041 25.0854 27.498 25.0531 27.4779L16.0833 21.541L9.25629 31.7171L18.1596 37.7909L18.1657 37.793L18.1677 37.795C18.1858 37.8071 18.1939 37.8272 18.212 37.8393C18.353 37.946 18.4798 38.0668 18.5765 38.2139C18.6248 38.2904 18.645 38.381 18.6812 38.4636C18.7235 38.5602 18.7759 38.6489 18.796 38.7516C18.8303 38.9167 18.8222 39.0859 18.798 39.255C18.794 39.2832 18.8041 39.3074 18.798 39.3356V39.3396L18.796 39.3416L15.8094 54.4397L15.8074 54.4457C15.7974 54.488 15.7712 54.5283 15.7591 54.5706C15.7168 54.7075 15.6705 54.8444 15.594 54.9592C15.5617 55.0076 15.5174 55.0458 15.4812 55.0881C15.4006 55.1868 15.3201 55.2774 15.2174 55.3519C15.163 55.3922 15.1006 55.4184 15.0401 55.4526C14.9354 55.509 14.8307 55.5574 14.7139 55.5876C14.6797 55.5956 14.6555 55.6198 14.6192 55.6278L4.0625 57.6961L6.3986 69.7572L17.0278 67.6869C17.05 67.6829 17.0681 67.691 17.0883 67.6869C17.2655 67.6587 17.4447 67.6567 17.6199 67.693C17.6703 67.703 17.7126 67.7353 17.7609 67.7494C17.8958 67.7917 18.0328 67.836 18.1536 67.9145C18.2442 67.9769 18.3107 68.0676 18.3872 68.1461C18.4456 68.2065 18.5161 68.2488 18.5664 68.3213L27.1415 80.9866C27.1415 80.9866 27.1435 80.9966 27.1476 81.0007C27.2301 81.1255 27.2744 81.2665 27.3167 81.4055C27.3308 81.4518 27.363 81.4961 27.3731 81.5444C27.3812 81.5887 27.3691 81.6371 27.3731 81.6834C27.3872 81.8284 27.4013 81.9774 27.3731 82.1204C27.3671 82.1526 27.3449 82.1788 27.3369 82.211C27.2946 82.3701 27.2382 82.5252 27.1456 82.6682C27.1435 82.6722 27.1435 82.6762 27.1435 82.6762L21.1442 91.5735L31.3747 98.4569L37.2975 89.5717L37.3035 89.5657C37.5694 89.171 38.0165 88.9434 38.4998 88.9293C38.6186 88.9233 38.7314 88.9072 38.8482 88.9313H38.8583L53.8838 91.9985C54.0207 92.0266 54.1355 92.0951 54.2543 92.1555C54.3027 92.1797 54.3591 92.1878 54.4054 92.218C54.5222 92.2945 54.6128 92.3992 54.7014 92.5019C54.7417 92.5482 54.792 92.5805 54.8263 92.6268C54.9028 92.7416 54.9451 92.8705 54.9894 93.0014C55.0095 93.0598 55.0478 93.1061 55.0599 93.1665L57.2711 103.661L69.3524 101.258L67.2821 90.7015C67.2781 90.6814 67.2861 90.6633 67.2821 90.6471C67.2539 90.4679 67.2499 90.2887 67.2861 90.1135C67.3043 90.0289 67.3486 89.9584 67.3808 89.8778C67.4211 89.7751 67.4472 89.6704 67.5077 89.5778C67.6003 89.4408 67.7211 89.326 67.8561 89.2213C67.8802 89.2032 67.8923 89.177 67.9165 89.1609L67.9185 89.1589L80.5817 80.5858L80.5918 80.5818C80.7328 80.4871 80.8899 80.4328 81.053 80.3885C81.0832 80.3804 81.1094 80.3582 81.1396 80.3522C81.2362 80.3341 81.3329 80.3522 81.4316 80.3522C81.5283 80.3522 81.6269 80.3341 81.7216 80.3522C81.7619 80.3603 81.7981 80.3885 81.8384 80.3985C81.9874 80.4408 82.1344 80.4912 82.2674 80.5778L82.2814 80.5838L91.2493 86.6556L98.1347 76.3607L89.175 70.4318C89.1709 70.4298 89.1689 70.4258 89.1689 70.4258C89.0299 70.3312 88.9232 70.2103 88.8245 70.0835C88.7138 69.9385 88.6393 69.7834 88.5869 69.6142C88.5708 69.5659 88.5406 69.5256 88.5305 69.4753C88.4902 69.2819 88.4902 69.0805 88.5285 68.8832C88.5285 68.8832 88.5285 68.8792 88.5285 68.8771L91.511 53.8576Z"/>
</mask>
<path d="M91.511 53.8576C91.5513 53.6583 91.6299 53.471 91.7406 53.3059C91.7688 53.2636 91.8091 53.2394 91.8393 53.2031C92.0488 52.9433 92.3327 52.7399 92.6851 52.6634L103.25 50.4522L100.783 38.3146L90.3148 40.5177C90.2141 40.5379 90.1134 40.5479 90.0147 40.55H90.0067H90.0047H90.0027C89.7811 40.55 89.5737 40.4875 89.3784 40.3969C89.328 40.3727 89.2837 40.3466 89.2354 40.3163C89.0642 40.2116 88.9152 40.0827 88.7943 39.9216C88.7802 39.9035 88.7601 39.8975 88.75 39.8793L88.7218 39.837L80.1749 27.055L80.1729 27.0489C80.0602 26.8798 79.9836 26.6945 79.9474 26.5012C79.9413 26.4709 79.9514 26.4407 79.9474 26.4085C79.9232 26.2333 79.9252 26.0561 79.9655 25.8809C80.0078 25.7037 80.0742 25.5325 80.1749 25.3794L80.177 25.3714L86.1763 16.4721L76.0123 9.59265L70.0149 18.4839C69.9988 18.5081 69.9706 18.5182 69.9545 18.5383C69.8357 18.6913 69.6967 18.8162 69.5336 18.9149C69.4853 18.9451 69.439 18.9733 69.3886 18.9975C69.1933 19.0881 68.9879 19.1505 68.7643 19.1505H68.7623H68.7603H68.7522C68.6616 19.1485 68.569 19.1424 68.4763 19.1223L53.2937 16.2123C53.2575 16.2042 53.2333 16.182 53.1991 16.172C53.0802 16.1398 52.9735 16.0934 52.8668 16.0371C52.8084 16.0028 52.7459 15.9787 52.6936 15.9384C52.5909 15.8659 52.5103 15.7732 52.4298 15.6766C52.3915 15.6323 52.3472 15.594 52.315 15.5477C52.2385 15.4269 52.1881 15.2919 52.1458 15.1509C52.1337 15.1087 52.1075 15.0764 52.1015 15.0321C52.1015 15.0321 52.0955 15.0241 52.0955 15.018L50.0292 4.40088L37.9681 6.86586L40.0344 17.342C40.0766 17.5414 40.0746 17.7448 40.0344 17.9402C40.0182 18.0227 39.9719 18.0912 39.9417 18.1697C39.9014 18.2745 39.8753 18.3812 39.8148 18.4738C39.7242 18.6088 39.6054 18.7175 39.4765 18.8182C39.4483 18.8424 39.4342 18.8726 39.404 18.8927L26.7388 27.4678C26.7045 27.49 26.6703 27.498 26.636 27.5162C26.5958 27.5383 26.5595 27.5544 26.5172 27.5705C26.3138 27.6632 26.1064 27.7256 25.8909 27.7256H25.8889H25.8869C25.6774 27.7256 25.466 27.6652 25.2646 27.5725C25.2263 27.5564 25.1901 27.5423 25.1518 27.5222C25.1196 27.5041 25.0854 27.498 25.0531 27.4779L16.0833 21.541L9.25629 31.7171L18.1596 37.7909L18.1657 37.793L18.1677 37.795C18.1858 37.8071 18.1939 37.8272 18.212 37.8393C18.353 37.946 18.4798 38.0668 18.5765 38.2139C18.6248 38.2904 18.645 38.381 18.6812 38.4636C18.7235 38.5602 18.7759 38.6489 18.796 38.7516C18.8303 38.9167 18.8222 39.0859 18.798 39.255C18.794 39.2832 18.8041 39.3074 18.798 39.3356V39.3396L18.796 39.3416L15.8094 54.4397L15.8074 54.4457C15.7974 54.488 15.7712 54.5283 15.7591 54.5706C15.7168 54.7075 15.6705 54.8444 15.594 54.9592C15.5617 55.0076 15.5174 55.0458 15.4812 55.0881C15.4006 55.1868 15.3201 55.2774 15.2174 55.3519C15.163 55.3922 15.1006 55.4184 15.0401 55.4526C14.9354 55.509 14.8307 55.5574 14.7139 55.5876C14.6797 55.5956 14.6555 55.6198 14.6192 55.6278L4.0625 57.6961L6.3986 69.7572L17.0278 67.6869C17.05 67.6829 17.0681 67.691 17.0883 67.6869C17.2655 67.6587 17.4447 67.6567 17.6199 67.693C17.6703 67.703 17.7126 67.7353 17.7609 67.7494C17.8958 67.7917 18.0328 67.836 18.1536 67.9145C18.2442 67.9769 18.3107 68.0676 18.3872 68.1461C18.4456 68.2065 18.5161 68.2488 18.5664 68.3213L27.1415 80.9866C27.1415 80.9866 27.1435 80.9966 27.1476 81.0007C27.2301 81.1255 27.2744 81.2665 27.3167 81.4055C27.3308 81.4518 27.363 81.4961 27.3731 81.5444C27.3812 81.5887 27.3691 81.6371 27.3731 81.6834C27.3872 81.8284 27.4013 81.9774 27.3731 82.1204C27.3671 82.1526 27.3449 82.1788 27.3369 82.211C27.2946 82.3701 27.2382 82.5252 27.1456 82.6682C27.1435 82.6722 27.1435 82.6762 27.1435 82.6762L21.1442 91.5735L31.3747 98.4569L37.2975 89.5717L37.3035 89.5657C37.5694 89.171 38.0165 88.9434 38.4998 88.9293C38.6186 88.9233 38.7314 88.9072 38.8482 88.9313H38.8583L53.8838 91.9985C54.0207 92.0266 54.1355 92.0951 54.2543 92.1555C54.3027 92.1797 54.3591 92.1878 54.4054 92.218C54.5222 92.2945 54.6128 92.3992 54.7014 92.5019C54.7417 92.5482 54.792 92.5805 54.8263 92.6268C54.9028 92.7416 54.9451 92.8705 54.9894 93.0014C55.0095 93.0598 55.0478 93.1061 55.0599 93.1665L57.2711 103.661L69.3524 101.258L67.2821 90.7015C67.2781 90.6814 67.2861 90.6633 67.2821 90.6471C67.2539 90.4679 67.2499 90.2887 67.2861 90.1135C67.3043 90.0289 67.3486 89.9584 67.3808 89.8778C67.4211 89.7751 67.4472 89.6704 67.5077 89.5778C67.6003 89.4408 67.7211 89.326 67.8561 89.2213C67.8802 89.2032 67.8923 89.177 67.9165 89.1609L67.9185 89.1589L80.5817 80.5858L80.5918 80.5818C80.7328 80.4871 80.8899 80.4328 81.053 80.3885C81.0832 80.3804 81.1094 80.3582 81.1396 80.3522C81.2362 80.3341 81.3329 80.3522 81.4316 80.3522C81.5283 80.3522 81.6269 80.3341 81.7216 80.3522C81.7619 80.3603 81.7981 80.3885 81.8384 80.3985C81.9874 80.4408 82.1344 80.4912 82.2674 80.5778L82.2814 80.5838L91.2493 86.6556L98.1347 76.3607L89.175 70.4318C89.1709 70.4298 89.1689 70.4258 89.1689 70.4258C89.0299 70.3312 88.9232 70.2103 88.8245 70.0835C88.7138 69.9385 88.6393 69.7834 88.5869 69.6142C88.5708 69.5659 88.5406 69.5256 88.5305 69.4753C88.4902 69.2819 88.4902 69.0805 88.5285 68.8832C88.5285 68.8832 88.5285 68.8792 88.5285 68.8771L91.511 53.8576Z" fill="black"/>
<path d="M91.511 53.8576C91.5513 53.6583 91.6299 53.471 91.7406 53.3059C91.7688 53.2636 91.8091 53.2394 91.8393 53.2031C92.0488 52.9433 92.3327 52.7399 92.6851 52.6634L103.25 50.4522L100.783 38.3146L90.3148 40.5177C90.2141 40.5379 90.1134 40.5479 90.0147 40.55H90.0067H90.0047H90.0027C89.7811 40.55 89.5737 40.4875 89.3784 40.3969C89.328 40.3727 89.2837 40.3466 89.2354 40.3163C89.0642 40.2116 88.9152 40.0827 88.7943 39.9216C88.7802 39.9035 88.7601 39.8975 88.75 39.8793L88.7218 39.837L80.1749 27.055L80.1729 27.0489C80.0602 26.8798 79.9836 26.6945 79.9474 26.5012C79.9413 26.4709 79.9514 26.4407 79.9474 26.4085C79.9232 26.2333 79.9252 26.0561 79.9655 25.8809C80.0078 25.7037 80.0742 25.5325 80.1749 25.3794L80.177 25.3714L86.1763 16.4721L76.0123 9.59265L70.0149 18.4839C69.9988 18.5081 69.9706 18.5182 69.9545 18.5383C69.8357 18.6913 69.6967 18.8162 69.5336 18.9149C69.4853 18.9451 69.439 18.9733 69.3886 18.9975C69.1933 19.0881 68.9879 19.1505 68.7643 19.1505H68.7623H68.7603H68.7522C68.6616 19.1485 68.569 19.1424 68.4763 19.1223L53.2937 16.2123C53.2575 16.2042 53.2333 16.182 53.1991 16.172C53.0802 16.1398 52.9735 16.0934 52.8668 16.0371C52.8084 16.0028 52.7459 15.9787 52.6936 15.9384C52.5909 15.8659 52.5103 15.7732 52.4298 15.6766C52.3915 15.6323 52.3472 15.594 52.315 15.5477C52.2385 15.4269 52.1881 15.2919 52.1458 15.1509C52.1337 15.1087 52.1075 15.0764 52.1015 15.0321C52.1015 15.0321 52.0955 15.0241 52.0955 15.018L50.0292 4.40088L37.9681 6.86586L40.0344 17.342C40.0766 17.5414 40.0746 17.7448 40.0344 17.9402C40.0182 18.0227 39.9719 18.0912 39.9417 18.1697C39.9014 18.2745 39.8753 18.3812 39.8148 18.4738C39.7242 18.6088 39.6054 18.7175 39.4765 18.8182C39.4483 18.8424 39.4342 18.8726 39.404 18.8927L26.7388 27.4678C26.7045 27.49 26.6703 27.498 26.636 27.5162C26.5958 27.5383 26.5595 27.5544 26.5172 27.5705C26.3138 27.6632 26.1064 27.7256 25.8909 27.7256H25.8889H25.8869C25.6774 27.7256 25.466 27.6652 25.2646 27.5725C25.2263 27.5564 25.1901 27.5423 25.1518 27.5222C25.1196 27.5041 25.0854 27.498 25.0531 27.4779L16.0833 21.541L9.25629 31.7171L18.1596 37.7909L18.1657 37.793L18.1677 37.795C18.1858 37.8071 18.1939 37.8272 18.212 37.8393C18.353 37.946 18.4798 38.0668 18.5765 38.2139C18.6248 38.2904 18.645 38.381 18.6812 38.4636C18.7235 38.5602 18.7759 38.6489 18.796 38.7516C18.8303 38.9167 18.8222 39.0859 18.798 39.255C18.794 39.2832 18.8041 39.3074 18.798 39.3356V39.3396L18.796 39.3416L15.8094 54.4397L15.8074 54.4457C15.7974 54.488 15.7712 54.5283 15.7591 54.5706C15.7168 54.7075 15.6705 54.8444 15.594 54.9592C15.5617 55.0076 15.5174 55.0458 15.4812 55.0881C15.4006 55.1868 15.3201 55.2774 15.2174 55.3519C15.163 55.3922 15.1006 55.4184 15.0401 55.4526C14.9354 55.509 14.8307 55.5574 14.7139 55.5876C14.6797 55.5956 14.6555 55.6198 14.6192 55.6278L4.0625 57.6961L6.3986 69.7572L17.0278 67.6869C17.05 67.6829 17.0681 67.691 17.0883 67.6869C17.2655 67.6587 17.4447 67.6567 17.6199 67.693C17.6703 67.703 17.7126 67.7353 17.7609 67.7494C17.8958 67.7917 18.0328 67.836 18.1536 67.9145C18.2442 67.9769 18.3107 68.0676 18.3872 68.1461C18.4456 68.2065 18.5161 68.2488 18.5664 68.3213L27.1415 80.9866C27.1415 80.9866 27.1435 80.9966 27.1476 81.0007C27.2301 81.1255 27.2744 81.2665 27.3167 81.4055C27.3308 81.4518 27.363 81.4961 27.3731 81.5444C27.3812 81.5887 27.3691 81.6371 27.3731 81.6834C27.3872 81.8284 27.4013 81.9774 27.3731 82.1204C27.3671 82.1526 27.3449 82.1788 27.3369 82.211C27.2946 82.3701 27.2382 82.5252 27.1456 82.6682C27.1435 82.6722 27.1435 82.6762 27.1435 82.6762L21.1442 91.5735L31.3747 98.4569L37.2975 89.5717L37.3035 89.5657C37.5694 89.171 38.0165 88.9434 38.4998 88.9293C38.6186 88.9233 38.7314 88.9072 38.8482 88.9313H38.8583L53.8838 91.9985C54.0207 92.0266 54.1355 92.0951 54.2543 92.1555C54.3027 92.1797 54.3591 92.1878 54.4054 92.218C54.5222 92.2945 54.6128 92.3992 54.7014 92.5019C54.7417 92.5482 54.792 92.5805 54.8263 92.6268C54.9028 92.7416 54.9451 92.8705 54.9894 93.0014C55.0095 93.0598 55.0478 93.1061 55.0599 93.1665L57.2711 103.661L69.3524 101.258L67.2821 90.7015C67.2781 90.6814 67.2861 90.6633 67.2821 90.6471C67.2539 90.4679 67.2499 90.2887 67.2861 90.1135C67.3043 90.0289 67.3486 89.9584 67.3808 89.8778C67.4211 89.7751 67.4472 89.6704 67.5077 89.5778C67.6003 89.4408 67.7211 89.326 67.8561 89.2213C67.8802 89.2032 67.8923 89.177 67.9165 89.1609L67.9185 89.1589L80.5817 80.5858L80.5918 80.5818C80.7328 80.4871 80.8899 80.4328 81.053 80.3885C81.0832 80.3804 81.1094 80.3582 81.1396 80.3522C81.2362 80.3341 81.3329 80.3522 81.4316 80.3522C81.5283 80.3522 81.6269 80.3341 81.7216 80.3522C81.7619 80.3603 81.7981 80.3885 81.8384 80.3985C81.9874 80.4408 82.1344 80.4912 82.2674 80.5778L82.2814 80.5838L91.2493 86.6556L98.1347 76.3607L89.175 70.4318C89.1709 70.4298 89.1689 70.4258 89.1689 70.4258C89.0299 70.3312 88.9232 70.2103 88.8245 70.0835C88.7138 69.9385 88.6393 69.7834 88.5869 69.6142C88.5708 69.5659 88.5406 69.5256 88.5305 69.4753C88.4902 69.2819 88.4902 69.0805 88.5285 68.8832C88.5285 68.8832 88.5285 68.8792 88.5285 68.8771L91.511 53.8576Z" stroke="black" stroke-width="6" mask="url(#path-1-outside-1)"/>
</svg>
