<svg width="2654" height="76" viewBox="0 0 2654 76" fill="none" xmlns="http://www.w3.org/2000/svg">
<path d="M0.500977 2.68103H58.1221V73.7406H43.2817V14.911H15.3896V73.7406H0.500977V2.68103Z" fill="#3A68EE"/>
<path d="M92.54 2.68103H109.507L134.644 73.7406H118.499L113.955 59.0936H87.7061L82.7754 73.7406H67.1133L92.54 2.68103ZM91.6699 46.8153H109.797L100.951 18.6815H100.758L91.6699 46.8153Z" fill="#3A68EE"/>
<path d="M144.795 2.68103H196.519V14.911H159.636V30.6698H177.28C178.343 30.6698 179.713 30.702 181.389 30.7665C183.064 30.8309 184.837 31.0726 186.706 31.4916C188.607 31.8783 190.509 32.5067 192.41 33.3768C194.344 34.2469 196.084 35.4877 197.631 37.099C199.178 38.6781 200.435 40.7084 201.401 43.1898C202.368 45.639 202.852 48.6683 202.852 52.2777C202.852 55.8549 202.368 58.868 201.401 61.3173C200.435 63.7665 199.194 65.7968 197.679 67.4081C196.197 68.9872 194.537 70.2118 192.7 71.0819C190.863 71.9198 189.075 72.5482 187.334 72.9672C185.626 73.3539 184.047 73.5795 182.597 73.6439C181.179 73.7084 180.132 73.7406 179.455 73.7406H144.795V2.68103ZM159.636 61.4623H175.685C177.038 61.4623 178.424 61.3656 179.842 61.1722C181.292 60.9789 182.613 60.5599 183.806 59.9154C185.03 59.2709 186.029 58.3202 186.803 57.0634C187.576 55.7743 187.963 54.0663 187.963 51.9393C187.963 49.7157 187.576 47.9755 186.803 46.7186C186.062 45.4296 185.079 44.4628 183.854 43.8182C182.629 43.1737 181.244 42.7709 179.697 42.6097C178.182 42.4486 176.651 42.368 175.104 42.368H159.636V61.4623Z" fill="#3A68EE"/>
<path d="M258.491 14.911H237.656L237.705 25.6425C237.737 32.12 237.592 37.8402 237.27 42.8031C236.979 47.7338 236.496 52.036 235.819 55.7098C235.175 59.3514 234.337 62.413 233.306 64.8944C232.307 67.3759 231.114 69.3739 229.729 70.8885C228.343 72.371 226.764 73.4344 224.991 74.079C223.219 74.7235 221.269 75.0458 219.142 75.0458C217.402 75.0458 215.855 74.933 214.501 74.7074C213.18 74.514 211.859 74.1434 210.538 73.5956L210.489 60.0121C210.94 60.2377 211.408 60.431 211.891 60.5922C212.407 60.7211 212.906 60.8339 213.39 60.9305C213.873 60.995 214.308 61.0433 214.695 61.0756C215.114 61.1078 215.436 61.1239 215.662 61.1239C216.532 61.1239 217.337 61.0111 218.079 60.7855C218.852 60.5277 219.529 59.996 220.109 59.1903C220.721 58.3846 221.253 57.2245 221.704 55.7098C222.155 54.1952 222.526 52.181 222.816 49.6674C223.138 47.1537 223.364 44.0438 223.493 40.3378C223.654 36.6317 223.734 32.2006 223.734 27.0443V2.68103H273.331V73.7406H258.491V14.911Z" fill="#3A68EE"/>
<path d="M285.996 2.68103H300.256V51.0692H300.45L328.583 2.68103H343.617V73.7406H329.357V25.6425H329.164L301.078 73.7406H285.996V2.68103Z" fill="#3A68EE"/>
<path d="M359.231 2.68103H374.071V31.5883L401.238 2.68103H420.429L391.425 31.7816L422.121 73.7406H403.317L381.322 42.2714L374.071 49.6674V73.7406H359.231V2.68103Z" fill="#3A68EE"/>
<path d="M424.441 39.6127H452.188V52.6644H424.441V39.6127Z" fill="#3A68EE"/>
<path d="M456.346 2.68103H514.547V14.911H492.842V73.7406H478.002V14.911H456.346V2.68103Z" fill="#3A68EE"/>
<path d="M520.106 38.2108C520.106 32.8934 520.815 27.9628 522.233 23.4188C523.651 18.8749 525.778 14.9432 528.614 11.6239C531.45 8.27234 535.011 5.64587 539.297 3.74451C543.583 1.84314 548.578 0.892456 554.282 0.892456C559.535 0.892456 564.272 1.84314 568.494 3.74451C572.716 5.64587 576.293 8.27234 579.226 11.6239C582.19 14.9432 584.462 18.8749 586.042 23.4188C587.621 27.9628 588.41 32.8934 588.41 38.2108C588.41 43.496 587.621 48.4266 586.042 53.0028C584.462 57.5468 582.19 61.4945 579.226 64.8461C576.293 68.1654 572.716 70.7758 568.494 72.6771C564.272 74.5785 559.535 75.5292 554.282 75.5292C548.578 75.5292 543.583 74.5785 539.297 72.6771C535.011 70.7758 531.45 68.1654 528.614 64.8461C525.778 61.4945 523.651 57.5468 522.233 53.0028C520.815 48.4266 520.106 43.496 520.106 38.2108ZM554.282 62.6708C557.312 62.6708 560.019 62.0585 562.403 60.8339C564.788 59.6093 566.802 57.9174 568.446 55.7582C570.122 53.5668 571.395 50.9886 572.265 48.0238C573.135 45.0267 573.57 41.7557 573.57 38.2108C573.57 34.6659 573.135 31.411 572.265 28.4462C571.395 25.4491 570.122 22.871 568.446 20.7118C566.802 18.5204 564.788 16.8124 562.403 15.5878C560.019 14.3632 557.312 13.7509 554.282 13.7509C551.253 13.7509 548.546 14.3632 546.161 15.5878C543.776 16.8124 541.746 18.5204 540.07 20.7118C538.427 22.871 537.154 25.4491 536.251 28.4462C535.381 31.411 534.946 34.6659 534.946 38.2108C534.946 41.7557 535.381 45.0267 536.251 48.0238C537.154 50.9886 538.427 53.5668 540.07 55.7582C541.746 57.9174 543.776 59.6093 546.161 60.8339C548.546 62.0585 551.253 62.6708 554.282 62.6708Z" fill="#3A68EE"/>
<path d="M601.414 2.68103H616.254V31.5883L643.421 2.68103H662.612L633.608 31.7816L664.304 73.7406H645.5L623.505 42.2714L616.254 49.6674V73.7406H601.414V2.68103Z" fill="#3A68EE"/>
<path d="M698.818 2.68103H713.707V29.703H741.599V2.68103H756.439V73.7406H741.599V41.9813H713.707V73.7406H698.818V2.68103Z" fill="#3A68EE"/>
<path d="M790.857 2.68103H807.825L832.961 73.7406H816.816L812.272 59.0936H786.023L781.093 73.7406H765.431L790.857 2.68103ZM789.987 46.8153H808.115L799.269 18.6815H799.075L789.987 46.8153Z" fill="#3A68EE"/>
<path d="M863.754 2.68103H921.955V14.911H900.25V73.7406H885.41V14.911H863.754V2.68103Z" fill="#3A68EE"/>
<path d="M931.285 2.68103H983.443V14.911H945.545V30.6698H980.398V42.9481H945.545V60.8822H985.135V73.7406H931.285V2.68103Z" fill="#3A68EE"/>
<path d="M996.108 2.68103H1017.81L1030.28 57.9818H1030.48L1042.95 2.68103H1064.75V73.7406H1051.07V14.3309H1050.88L1037.39 73.7406H1022.94L1009.98 14.3309H1009.79V73.7406H996.108V2.68103Z" fill="#3A68EE"/>
<path d="M1084.62 60.2538C1085.55 60.8661 1086.63 61.3495 1087.86 61.704C1089.08 62.0585 1090.47 62.2357 1092.01 62.2357C1094.04 62.2357 1095.64 61.6395 1096.8 60.4471C1097.96 59.2548 1098.77 57.7562 1099.22 55.9515L1074.03 2.68103H1090.76L1106.9 40.8695L1121.07 2.68103H1137.02L1114.35 55.1298C1111.38 62.0585 1108.24 67.1986 1104.92 70.5502C1101.6 73.8695 1097.9 75.5292 1093.8 75.5292C1092.51 75.5292 1091.39 75.4647 1090.42 75.3358C1089.48 75.2069 1088.66 75.0458 1087.95 74.8524C1087.28 74.6591 1086.67 74.4657 1086.12 74.2723C1085.6 74.079 1085.1 73.9017 1084.62 73.7406V60.2538Z" fill="#3A68EE"/>
<path d="M1173.37 2.68103H1221.18V14.911H1188.21V73.7406H1173.37V2.68103Z" fill="#3A68EE"/>
<path d="M1273.24 14.911H1252.41L1252.45 25.6425C1252.49 32.12 1252.34 37.8402 1252.02 42.8031C1251.73 47.7338 1251.25 52.036 1250.57 55.7098C1249.92 59.3514 1249.09 62.413 1248.06 64.8944C1247.06 67.3759 1245.86 69.3739 1244.48 70.8885C1243.09 72.371 1241.51 73.4344 1239.74 74.079C1237.97 74.7235 1236.02 75.0458 1233.89 75.0458C1232.15 75.0458 1230.6 74.933 1229.25 74.7074C1227.93 74.514 1226.61 74.1434 1225.29 73.5956L1225.24 60.0121C1225.69 60.2377 1226.16 60.431 1226.64 60.5922C1227.16 60.7211 1227.66 60.8339 1228.14 60.9305C1228.62 60.995 1229.06 61.0433 1229.44 61.0756C1229.86 61.1078 1230.19 61.1239 1230.41 61.1239C1231.28 61.1239 1232.09 61.0111 1232.83 60.7855C1233.6 60.5277 1234.28 59.996 1234.86 59.1903C1235.47 58.3846 1236 57.2245 1236.45 55.7098C1236.91 54.1952 1237.28 52.181 1237.57 49.6674C1237.89 47.1537 1238.11 44.0438 1238.24 40.3378C1238.4 36.6317 1238.48 32.2006 1238.48 27.0443V2.68103H1288.08V73.7406H1273.24V14.911Z" fill="#3A68EE"/>
<path d="M1298.18 38.2108C1298.18 32.8934 1298.89 27.9628 1300.31 23.4188C1301.73 18.8749 1303.86 14.9432 1306.69 11.6239C1309.53 8.27234 1313.09 5.64587 1317.38 3.74451C1321.66 1.84314 1326.66 0.892456 1332.36 0.892456C1337.61 0.892456 1342.35 1.84314 1346.57 3.74451C1350.79 5.64587 1354.37 8.27234 1357.3 11.6239C1360.27 14.9432 1362.54 18.8749 1364.12 23.4188C1365.7 27.9628 1366.49 32.8934 1366.49 38.2108C1366.49 43.496 1365.7 48.4266 1364.12 53.0028C1362.54 57.5468 1360.27 61.4945 1357.3 64.8461C1354.37 68.1654 1350.79 70.7758 1346.57 72.6771C1342.35 74.5785 1337.61 75.5292 1332.36 75.5292C1326.66 75.5292 1321.66 74.5785 1317.38 72.6771C1313.09 70.7758 1309.53 68.1654 1306.69 64.8461C1303.86 61.4945 1301.73 57.5468 1300.31 53.0028C1298.89 48.4266 1298.18 43.496 1298.18 38.2108ZM1332.36 62.6708C1335.39 62.6708 1338.1 62.0585 1340.48 60.8339C1342.87 59.6093 1344.88 57.9174 1346.52 55.7582C1348.2 53.5668 1349.47 50.9886 1350.34 48.0238C1351.21 45.0267 1351.65 41.7557 1351.65 38.2108C1351.65 34.6659 1351.21 31.411 1350.34 28.4462C1349.47 25.4491 1348.2 22.871 1346.52 20.7118C1344.88 18.5204 1342.87 16.8124 1340.48 15.5878C1338.1 14.3632 1335.39 13.7509 1332.36 13.7509C1329.33 13.7509 1326.62 14.3632 1324.24 15.5878C1321.85 16.8124 1319.82 18.5204 1318.15 20.7118C1316.5 22.871 1315.23 25.4491 1314.33 28.4462C1313.46 31.411 1313.02 34.6659 1313.02 38.2108C1313.02 41.7557 1313.46 45.0267 1314.33 48.0238C1315.23 50.9886 1316.5 53.5668 1318.15 55.7582C1319.82 57.9174 1321.85 59.6093 1324.24 60.8339C1326.62 62.0585 1329.33 62.6708 1332.36 62.6708Z" fill="#3A68EE"/>
<path d="M1379.01 2.68103H1430.73V14.911H1393.85V30.6698H1411.49C1412.56 30.6698 1413.93 30.702 1415.6 30.7665C1417.28 30.8309 1419.05 31.0726 1420.92 31.4916C1422.82 31.8783 1424.72 32.5067 1426.62 33.3768C1428.56 34.2469 1430.3 35.4877 1431.84 37.099C1433.39 38.6781 1434.65 40.7084 1435.61 43.1898C1436.58 45.639 1437.06 48.6683 1437.06 52.2777C1437.06 55.8549 1436.58 58.868 1435.61 61.3173C1434.65 63.7665 1433.41 65.7968 1431.89 67.4081C1430.41 68.9872 1428.75 70.2118 1426.91 71.0819C1425.08 71.9198 1423.29 72.5482 1421.55 72.9672C1419.84 73.3539 1418.26 73.5795 1416.81 73.6439C1415.39 73.7084 1414.34 73.7406 1413.67 73.7406H1379.01V2.68103ZM1393.85 61.4623H1409.9C1411.25 61.4623 1412.64 61.3656 1414.05 61.1722C1415.5 60.9789 1416.83 60.5599 1418.02 59.9154C1419.24 59.2709 1420.24 58.3202 1421.02 57.0634C1421.79 55.7743 1422.18 54.0663 1422.18 51.9393C1422.18 49.7157 1421.79 47.9755 1421.02 46.7186C1420.27 45.4296 1419.29 44.4628 1418.07 43.8182C1416.84 43.1737 1415.46 42.7709 1413.91 42.6097C1412.4 42.4486 1410.86 42.368 1409.32 42.368H1393.85V61.4623Z" fill="#3A68EE"/>
<path d="M1469.36 2.68103H1486.32L1511.46 73.7406H1495.31L1490.77 59.0936H1464.52L1459.59 73.7406H1443.93L1469.36 2.68103ZM1468.49 46.8153H1486.61L1477.77 18.6815H1477.57L1468.49 46.8153Z" fill="#3A68EE"/>
<path d="M1564.25 14.911H1543.41L1543.46 25.6425C1543.49 32.12 1543.35 37.8402 1543.03 42.8031C1542.74 47.7338 1542.25 52.036 1541.58 55.7098C1540.93 59.3514 1540.09 62.413 1539.06 64.8944C1538.06 67.3759 1536.87 69.3739 1535.48 70.8885C1534.1 72.371 1532.52 73.4344 1530.75 74.079C1528.97 74.7235 1527.02 75.0458 1524.9 75.0458C1523.16 75.0458 1521.61 74.933 1520.26 74.7074C1518.94 74.514 1517.61 74.1434 1516.29 73.5956L1516.25 60.0121C1516.7 60.2377 1517.16 60.431 1517.65 60.5922C1518.16 60.7211 1518.66 60.8339 1519.15 60.9305C1519.63 60.995 1520.06 61.0433 1520.45 61.0756C1520.87 61.1078 1521.19 61.1239 1521.42 61.1239C1522.29 61.1239 1523.09 61.0111 1523.83 60.7855C1524.61 60.5277 1525.28 59.996 1525.86 59.1903C1526.48 58.3846 1527.01 57.2245 1527.46 55.7098C1527.91 54.1952 1528.28 52.181 1528.57 49.6674C1528.89 47.1537 1529.12 44.0438 1529.25 40.3378C1529.41 36.6317 1529.49 32.2006 1529.49 27.0443V2.68103H1579.09V73.7406H1564.25V14.911Z" fill="#3A68EE"/>
<path d="M1607.8 61.4623H1620.37C1621.72 61.4623 1623.11 61.3656 1624.53 61.1722C1625.98 60.9789 1627.3 60.5599 1628.49 59.9154C1629.71 59.2709 1630.71 58.3202 1631.49 57.0634C1632.26 55.7743 1632.65 54.0663 1632.65 51.9393C1632.65 49.7157 1632.26 47.9755 1631.49 46.7186C1630.75 45.4296 1629.76 44.4628 1628.54 43.8182C1627.31 43.1737 1625.93 42.7709 1624.38 42.6097C1622.87 42.4486 1621.34 42.368 1619.79 42.368H1607.8V61.4623ZM1592.96 2.68103H1607.8V30.6698H1621.96C1623.03 30.6698 1624.38 30.702 1626.02 30.7665C1627.7 30.8309 1629.49 31.0726 1631.39 31.4916C1633.29 31.8783 1635.19 32.5067 1637.09 33.3768C1639 34.2469 1640.72 35.4877 1642.27 37.099C1643.81 38.6781 1645.07 40.7084 1646.04 43.1898C1647 45.639 1647.49 48.6683 1647.49 52.2777C1647.49 55.8549 1647 58.868 1646.04 61.3173C1645.07 63.7665 1643.83 65.7968 1642.32 67.4081C1640.83 68.9872 1639.17 70.2118 1637.34 71.0819C1635.53 71.9198 1633.76 72.5482 1632.02 72.9672C1630.31 73.3539 1628.73 73.5795 1627.28 73.6439C1625.86 73.7084 1624.82 73.7406 1624.14 73.7406H1592.96V2.68103Z" fill="#3A68EE"/>
<path d="M1657.78 2.68103H1672.67V29.703H1700.56V2.68103H1715.41V73.7406H1700.56V41.9813H1672.67V73.7406H1657.78V2.68103Z" fill="#3A68EE"/>
<path d="M1726.77 38.2108C1726.77 32.8934 1727.47 27.9628 1728.89 23.4188C1730.31 18.8749 1732.44 14.9432 1735.27 11.6239C1738.11 8.27234 1741.67 5.64587 1745.96 3.74451C1750.24 1.84314 1755.24 0.892456 1760.94 0.892456C1766.19 0.892456 1770.93 1.84314 1775.15 3.74451C1779.38 5.64587 1782.95 8.27234 1785.88 11.6239C1788.85 14.9432 1791.12 18.8749 1792.7 23.4188C1794.28 27.9628 1795.07 32.8934 1795.07 38.2108C1795.07 43.496 1794.28 48.4266 1792.7 53.0028C1791.12 57.5468 1788.85 61.4945 1785.88 64.8461C1782.95 68.1654 1779.38 70.7758 1775.15 72.6771C1770.93 74.5785 1766.19 75.5292 1760.94 75.5292C1755.24 75.5292 1750.24 74.5785 1745.96 72.6771C1741.67 70.7758 1738.11 68.1654 1735.27 64.8461C1732.44 61.4945 1730.31 57.5468 1728.89 53.0028C1727.47 48.4266 1726.77 43.496 1726.77 38.2108ZM1760.94 62.6708C1763.97 62.6708 1766.68 62.0585 1769.06 60.8339C1771.45 59.6093 1773.46 57.9174 1775.1 55.7582C1776.78 53.5668 1778.05 50.9886 1778.92 48.0238C1779.79 45.0267 1780.23 41.7557 1780.23 38.2108C1780.23 34.6659 1779.79 31.411 1778.92 28.4462C1778.05 25.4491 1776.78 22.871 1775.1 20.7118C1773.46 18.5204 1771.45 16.8124 1769.06 15.5878C1766.68 14.3632 1763.97 13.7509 1760.94 13.7509C1757.91 13.7509 1755.21 14.3632 1752.82 15.5878C1750.44 16.8124 1748.41 18.5204 1746.73 20.7118C1745.09 22.871 1743.81 25.4491 1742.91 28.4462C1742.04 31.411 1741.61 34.6659 1741.61 38.2108C1741.61 41.7557 1742.04 45.0267 1742.91 48.0238C1743.81 50.9886 1745.09 53.5668 1746.73 55.7582C1748.41 57.9174 1750.44 59.6093 1752.82 60.8339C1755.21 62.0585 1757.91 62.6708 1760.94 62.6708Z" fill="#3A68EE"/>
<path d="M1807.59 2.68103H1855.4V14.911H1822.43V73.7406H1807.59V2.68103Z" fill="#3A68EE"/>
<path d="M1861.05 38.2108C1861.05 32.8934 1861.76 27.9628 1863.18 23.4188C1864.6 18.8749 1866.73 14.9432 1869.56 11.6239C1872.4 8.27234 1875.96 5.64587 1880.24 3.74451C1884.53 1.84314 1889.53 0.892456 1895.23 0.892456C1900.48 0.892456 1905.22 1.84314 1909.44 3.74451C1913.66 5.64587 1917.24 8.27234 1920.17 11.6239C1923.14 14.9432 1925.41 18.8749 1926.99 23.4188C1928.57 27.9628 1929.36 32.8934 1929.36 38.2108C1929.36 43.496 1928.57 48.4266 1926.99 53.0028C1925.41 57.5468 1923.14 61.4945 1920.17 64.8461C1917.24 68.1654 1913.66 70.7758 1909.44 72.6771C1905.22 74.5785 1900.48 75.5292 1895.23 75.5292C1889.53 75.5292 1884.53 74.5785 1880.24 72.6771C1875.96 70.7758 1872.4 68.1654 1869.56 64.8461C1866.73 61.4945 1864.6 57.5468 1863.18 53.0028C1861.76 48.4266 1861.05 43.496 1861.05 38.2108ZM1895.23 62.6708C1898.26 62.6708 1900.97 62.0585 1903.35 60.8339C1905.74 59.6093 1907.75 57.9174 1909.39 55.7582C1911.07 53.5668 1912.34 50.9886 1913.21 48.0238C1914.08 45.0267 1914.52 41.7557 1914.52 38.2108C1914.52 34.6659 1914.08 31.411 1913.21 28.4462C1912.34 25.4491 1911.07 22.871 1909.39 20.7118C1907.75 18.5204 1905.74 16.8124 1903.35 15.5878C1900.97 14.3632 1898.26 13.7509 1895.23 13.7509C1892.2 13.7509 1889.49 14.3632 1887.11 15.5878C1884.72 16.8124 1882.69 18.5204 1881.02 20.7118C1879.37 22.871 1878.1 25.4491 1877.2 28.4462C1876.33 31.411 1875.89 34.6659 1875.89 38.2108C1875.89 41.7557 1876.33 45.0267 1877.2 48.0238C1878.1 50.9886 1879.37 53.5668 1881.02 55.7582C1882.69 57.9174 1884.72 59.6093 1887.11 60.8339C1889.49 62.0585 1892.2 62.6708 1895.23 62.6708Z" fill="#3A68EE"/>
<path d="M1968.22 2.68103H2025.84V73.7406H2011V14.911H1983.11V73.7406H1968.22V2.68103Z" fill="#3A68EE"/>
<path d="M2037.2 38.2108C2037.2 32.8934 2037.91 27.9628 2039.33 23.4188C2040.75 18.8749 2042.88 14.9432 2045.71 11.6239C2048.55 8.27234 2052.11 5.64587 2056.39 3.74451C2060.68 1.84314 2065.68 0.892456 2071.38 0.892456C2076.63 0.892456 2081.37 1.84314 2085.59 3.74451C2089.81 5.64587 2093.39 8.27234 2096.32 11.6239C2099.29 14.9432 2101.56 18.8749 2103.14 23.4188C2104.72 27.9628 2105.51 32.8934 2105.51 38.2108C2105.51 43.496 2104.72 48.4266 2103.14 53.0028C2101.56 57.5468 2099.29 61.4945 2096.32 64.8461C2093.39 68.1654 2089.81 70.7758 2085.59 72.6771C2081.37 74.5785 2076.63 75.5292 2071.38 75.5292C2065.68 75.5292 2060.68 74.5785 2056.39 72.6771C2052.11 70.7758 2048.55 68.1654 2045.71 64.8461C2042.88 61.4945 2040.75 57.5468 2039.33 53.0028C2037.91 48.4266 2037.2 43.496 2037.2 38.2108ZM2071.38 62.6708C2074.41 62.6708 2077.12 62.0585 2079.5 60.8339C2081.89 59.6093 2083.9 57.9174 2085.54 55.7582C2087.22 53.5668 2088.49 50.9886 2089.36 48.0238C2090.23 45.0267 2090.67 41.7557 2090.67 38.2108C2090.67 34.6659 2090.23 31.411 2089.36 28.4462C2088.49 25.4491 2087.22 22.871 2085.54 20.7118C2083.9 18.5204 2081.89 16.8124 2079.5 15.5878C2077.12 14.3632 2074.41 13.7509 2071.38 13.7509C2068.35 13.7509 2065.64 14.3632 2063.26 15.5878C2060.87 16.8124 2058.84 18.5204 2057.17 20.7118C2055.52 22.871 2054.25 25.4491 2053.35 28.4462C2052.48 31.411 2052.04 34.6659 2052.04 38.2108C2052.04 41.7557 2052.48 45.0267 2053.35 48.0238C2054.25 50.9886 2055.52 53.5668 2057.17 55.7582C2058.84 57.9174 2060.87 59.6093 2063.26 60.8339C2065.64 62.0585 2068.35 62.6708 2071.38 62.6708Z" fill="#3A68EE"/>
<path d="M2111.12 2.68103H2169.32V14.911H2147.61V73.7406H2132.77V14.911H2111.12V2.68103Z" fill="#3A68EE"/>
<path d="M2178.65 2.68103H2230.8V14.911H2192.91V30.6698H2227.76V42.9481H2192.91V60.8822H2232.5V73.7406H2178.65V2.68103Z" fill="#3A68EE"/>
<path d="M2243.47 2.68103H2301.09V73.7406H2286.25V14.911H2258.36V73.7406H2243.47V2.68103Z" fill="#3A68EE"/>
<path d="M2358.86 14.911H2338.02L2338.07 25.6425C2338.1 32.12 2337.96 37.8402 2337.64 42.8031C2337.35 47.7338 2336.86 52.036 2336.19 55.7098C2335.54 59.3514 2334.7 62.413 2333.67 64.8944C2332.67 67.3759 2331.48 69.3739 2330.09 70.8885C2328.71 72.371 2327.13 73.4344 2325.36 74.079C2323.58 74.7235 2321.64 75.0458 2319.51 75.0458C2317.77 75.0458 2316.22 74.933 2314.87 74.7074C2313.55 74.514 2312.23 74.1434 2310.9 73.5956L2310.86 60.0121C2311.31 60.2377 2311.77 60.431 2312.26 60.5922C2312.77 60.7211 2313.27 60.8339 2313.76 60.9305C2314.24 60.995 2314.67 61.0433 2315.06 61.0756C2315.48 61.1078 2315.8 61.1239 2316.03 61.1239C2316.9 61.1239 2317.7 61.0111 2318.44 60.7855C2319.22 60.5277 2319.9 59.996 2320.48 59.1903C2321.09 58.3846 2321.62 57.2245 2322.07 55.7098C2322.52 54.1952 2322.89 52.181 2323.18 49.6674C2323.5 47.1537 2323.73 44.0438 2323.86 40.3378C2324.02 36.6317 2324.1 32.2006 2324.1 27.0443V2.68103H2373.7V73.7406H2358.86V14.911Z" fill="#3A68EE"/>
<path d="M2387.57 2.68103H2439.73V14.911H2401.83V30.6698H2436.68V42.9481H2401.83V60.8822H2441.42V73.7406H2387.57V2.68103Z" fill="#3A68EE"/>
<path d="M2452.39 2.68103H2467.28V29.703H2495.18V2.68103H2510.02V73.7406H2495.18V41.9813H2467.28V73.7406H2452.39V2.68103Z" fill="#3A68EE"/>
<path d="M2523.94 2.68103H2538.2V51.0692H2538.39L2566.52 2.68103H2581.56V73.7406H2567.3V25.6425H2567.1L2539.02 73.7406H2523.94V2.68103Z" fill="#3A68EE"/>
<path d="M2653.29 73.7406H2638.94V45.7035H2625.69C2623.44 45.7035 2621.37 45.7679 2619.51 45.8969C2617.67 46.0258 2616.06 46.4608 2614.67 47.202C2613.29 47.911 2612.16 49.0712 2611.29 50.6825C2610.45 52.2938 2609.9 54.5658 2609.64 57.4984L2609.16 64.2177C2609.03 65.7645 2608.89 67.0697 2608.73 68.1332C2608.6 69.1644 2608.45 70.0345 2608.29 70.7435C2608.13 71.4203 2607.97 72.0004 2607.81 72.4838C2607.65 72.9349 2607.5 73.3539 2607.37 73.7406H2591.95C2592.44 72.8383 2592.81 72.0648 2593.06 71.4203C2593.35 70.7758 2593.58 70.099 2593.74 69.39C2593.93 68.681 2594.08 67.8593 2594.18 66.9247C2594.3 65.9901 2594.45 64.7655 2594.61 63.2509L2595.29 56.5316C2595.51 54.4691 2595.79 52.6 2596.11 50.9242C2596.46 49.2162 2597 47.7015 2597.7 46.3802C2598.45 45.059 2599.46 43.9149 2600.75 42.9481C2602.04 41.9813 2603.75 41.1595 2605.87 40.4828C2604.94 40.1605 2603.92 39.7416 2602.83 39.226C2601.76 38.7103 2600.64 37.8402 2599.44 36.6156C2597.9 35.0687 2596.67 33.1835 2595.77 30.9598C2594.87 28.704 2594.42 26.2386 2594.42 23.5638C2594.42 21.8881 2594.59 20.2928 2594.95 18.7782C2595.3 17.2313 2595.8 15.7811 2596.45 14.4276C2597.09 13.0741 2597.85 11.8334 2598.72 10.7054C2599.62 9.57751 2600.59 8.57849 2601.62 7.70837C2603.1 6.45154 2604.71 5.48474 2606.45 4.80798C2608.23 4.13123 2610.05 3.63171 2611.92 3.30945C2613.82 2.98718 2615.75 2.80994 2617.72 2.77771C2619.71 2.71326 2621.68 2.68103 2623.61 2.68103H2653.29V73.7406ZM2638.94 15.1527H2622.21C2622.02 15.1527 2621.63 15.1688 2621.05 15.201C2620.47 15.201 2619.81 15.2333 2619.07 15.2977C2618.36 15.33 2617.64 15.3944 2616.9 15.4911C2616.15 15.5878 2615.53 15.7328 2615.01 15.9261C2614.37 16.184 2613.7 16.5385 2613.03 16.9896C2612.35 17.4086 2611.72 17.9725 2611.14 18.6815C2610.59 19.3905 2610.14 20.2445 2609.79 21.2435C2609.43 22.2426 2609.26 23.4349 2609.26 24.8207C2609.26 26.3676 2609.47 27.6727 2609.89 28.7362C2610.34 29.7675 2610.92 30.6376 2611.63 31.3466C2612.37 32.0233 2613.19 32.5551 2614.09 32.9418C2615.03 33.2963 2615.96 33.5541 2616.9 33.7152C2617.86 33.8763 2618.8 33.973 2619.7 34.0052C2620.63 34.0375 2621.47 34.0536 2622.21 34.0536H2638.94V15.1527Z" fill="#3A68EE"/>
</svg>
