<svg width="1548" height="75" viewBox="0 0 1548 75" fill="none" xmlns="http://www.w3.org/2000/svg">
<path d="M49.2646 25.4811C49.0713 24.8043 48.8296 24.0309 48.5396 23.1608C48.2495 22.2584 47.8467 21.3561 47.3311 20.4537C46.8477 19.5514 46.2192 18.6652 45.4458 17.795C44.7046 16.9249 43.77 16.1515 42.6421 15.4747C41.5142 14.798 40.1606 14.2501 38.5815 13.8312C37.0024 13.4122 35.1494 13.2028 33.0225 13.2028C32.1201 13.2028 31.0566 13.3156 29.832 13.5411C28.6074 13.7667 27.3506 14.2018 26.0615 14.8463C24.7725 15.4586 23.4995 16.3287 22.2427 17.4567C20.9858 18.5846 19.8579 20.067 18.8589 21.9039C17.8921 23.7086 17.1025 25.9 16.4902 28.4781C15.8779 31.0563 15.5718 34.1178 15.5718 37.6627C15.5718 41.4977 15.9746 44.9298 16.7803 47.9591C17.5859 50.9884 18.7461 53.5504 20.2607 55.6451C21.7754 57.7399 23.5962 59.3512 25.7231 60.4791C27.8823 61.5748 30.3154 62.1227 33.0225 62.1227C36.1484 62.1227 38.6943 61.6393 40.6602 60.6725C42.626 59.7057 44.189 58.5294 45.3491 57.1437C46.5415 55.7579 47.4277 54.3077 48.0078 52.7931C48.5879 51.2784 49.0391 49.9572 49.3613 48.8292H64.105C63.2993 53.2765 61.9619 57.1437 60.0928 60.4308C58.2236 63.6857 55.9517 66.3927 53.2769 68.5519C50.6021 70.7111 47.5889 72.3224 44.2373 73.3859C40.918 74.4493 37.373 74.9811 33.6025 74.9811C28.3174 74.9811 23.6284 74.111 19.5356 72.3707C15.4751 70.5983 12.043 68.0846 9.23926 64.8297C6.46777 61.5748 4.35693 57.6593 2.90674 53.0831C1.45654 48.4747 0.731445 43.3346 0.731445 37.6627C0.731445 33.2799 1.15039 29.316 1.98828 25.7711C2.82617 22.2262 3.98633 19.0841 5.46875 16.3448C6.9834 13.5734 8.75586 11.1886 10.7861 9.19055C12.8164 7.16028 15.0239 5.50061 17.4087 4.21155C19.8257 2.89026 22.3555 1.92346 24.998 1.31116C27.6406 0.666626 30.3154 0.34436 33.0225 0.34436C36.8896 0.34436 40.3218 0.747192 43.3188 1.55286C46.3159 2.35852 48.9424 3.43811 51.1982 4.79163C53.4541 6.14514 55.3716 7.69202 56.9507 9.43225C58.562 11.1725 59.8672 12.9772 60.8662 14.8463C61.8975 16.6832 62.6548 18.5363 63.1382 20.4054C63.6538 22.2423 63.9761 23.9342 64.105 25.4811H49.2646Z" fill="black"/>
<path d="M80.8789 59.7057C81.8135 60.318 82.8931 60.8014 84.1177 61.1559C85.3423 61.5104 86.728 61.6876 88.2749 61.6876C90.3052 61.6876 91.9004 61.0914 93.0605 59.899C94.2207 58.7067 95.0264 57.2081 95.4775 55.4034L70.2925 2.13293H87.0181L103.164 40.3214L117.327 2.13293H133.279L110.608 54.5817C107.643 61.5104 104.501 66.6505 101.182 70.0021C97.8623 73.3214 94.1562 74.9811 90.0635 74.9811C88.7744 74.9811 87.6465 74.9166 86.6797 74.7877C85.7451 74.6588 84.9233 74.4977 84.2144 74.3043C83.5376 74.111 82.9253 73.9176 82.3774 73.7242C81.8618 73.5309 81.3623 73.3536 80.8789 73.1925V59.7057Z" fill="black"/>
<path d="M142.077 2.13293H193.801V14.3629H156.917V30.1217H174.562C175.625 30.1217 176.995 30.1539 178.67 30.2184C180.346 30.2828 182.119 30.5245 183.988 30.9435C185.889 31.3302 187.791 31.9586 189.692 32.8287C191.625 33.6989 193.366 34.9396 194.913 36.5509C196.459 38.13 197.716 40.1603 198.683 42.6417C199.65 45.0909 200.133 48.1202 200.133 51.7296C200.133 55.3068 199.65 58.3199 198.683 60.7692C197.716 63.2184 196.476 65.2487 194.961 66.86C193.479 68.4391 191.819 69.6637 189.982 70.5338C188.145 71.3717 186.356 72.0001 184.616 72.4191C182.908 72.8058 181.329 73.0314 179.879 73.0958C178.461 73.1603 177.414 73.1925 176.737 73.1925H142.077V2.13293ZM156.917 60.9142H172.966C174.32 60.9142 175.706 60.8175 177.124 60.6241C178.574 60.4308 179.895 60.0118 181.087 59.3673C182.312 58.7228 183.311 57.7721 184.084 56.5153C184.858 55.2262 185.245 53.5182 185.245 51.3912C185.245 49.1676 184.858 47.4274 184.084 46.1705C183.343 44.8815 182.36 43.9147 181.136 43.2701C179.911 42.6256 178.525 42.2228 176.979 42.0616C175.464 41.9005 173.933 41.8199 172.386 41.8199H156.917V60.9142Z" fill="black"/>
<path d="M213.137 2.13293H264.86V14.3629H227.977V30.1217H245.621C246.685 30.1217 248.054 30.1539 249.73 30.2184C251.406 30.2828 253.178 30.5245 255.047 30.9435C256.949 31.3302 258.85 31.9586 260.751 32.8287C262.685 33.6989 264.425 34.9396 265.972 36.5509C267.519 38.13 268.776 40.1603 269.743 42.6417C270.709 45.0909 271.193 48.1202 271.193 51.7296C271.193 55.3068 270.709 58.3199 269.743 60.7692C268.776 63.2184 267.535 65.2487 266.021 66.86C264.538 68.4391 262.878 69.6637 261.042 70.5338C259.205 71.3717 257.416 72.0001 255.676 72.4191C253.968 72.8058 252.389 73.0314 250.938 73.0958C249.521 73.1603 248.473 73.1925 247.796 73.1925H213.137V2.13293ZM227.977 60.9142H244.026C245.379 60.9142 246.765 60.8175 248.183 60.6241C249.633 60.4308 250.955 60.0118 252.147 59.3673C253.372 58.7228 254.371 57.7721 255.144 56.5153C255.917 55.2262 256.304 53.5182 256.304 51.3912C256.304 49.1676 255.917 47.4274 255.144 46.1705C254.403 44.8815 253.42 43.9147 252.195 43.2701C250.971 42.6256 249.585 42.2228 248.038 42.0616C246.523 41.9005 244.993 41.8199 243.446 41.8199H227.977V60.9142Z" fill="black"/>
<path d="M280.426 37.6627C280.426 32.3453 281.135 27.4147 282.553 22.8707C283.971 18.3268 286.098 14.3951 288.934 11.0758C291.77 7.72424 295.331 5.09778 299.617 3.19641C303.903 1.29504 308.898 0.34436 314.602 0.34436C319.855 0.34436 324.592 1.29504 328.814 3.19641C333.036 5.09778 336.613 7.72424 339.545 11.0758C342.51 14.3951 344.782 18.3268 346.361 22.8707C347.94 27.4147 348.73 32.3453 348.73 37.6627C348.73 42.9479 347.94 47.8785 346.361 52.4547C344.782 56.9987 342.51 60.9464 339.545 64.298C336.613 67.6173 333.036 70.2277 328.814 72.129C324.592 74.0304 319.855 74.9811 314.602 74.9811C308.898 74.9811 303.903 74.0304 299.617 72.129C295.331 70.2277 291.77 67.6173 288.934 64.298C286.098 60.9464 283.971 56.9987 282.553 52.4547C281.135 47.8785 280.426 42.9479 280.426 37.6627ZM314.602 62.1227C317.631 62.1227 320.338 61.5104 322.723 60.2858C325.108 59.0612 327.122 57.3693 328.766 55.2101C330.441 53.0187 331.714 50.4406 332.584 47.4757C333.455 44.4786 333.89 41.2076 333.89 37.6627C333.89 34.1178 333.455 30.8629 332.584 27.8981C331.714 24.901 330.441 22.3229 328.766 20.1637C327.122 17.9723 325.108 16.2643 322.723 15.0397C320.338 13.8151 317.631 13.2028 314.602 13.2028C311.573 13.2028 308.866 13.8151 306.481 15.0397C304.096 16.2643 302.066 17.9723 300.39 20.1637C298.747 22.3229 297.474 24.901 296.571 27.8981C295.701 30.8629 295.266 34.1178 295.266 37.6627C295.266 41.2076 295.701 44.4786 296.571 47.4757C297.474 50.4406 298.747 53.0187 300.39 55.2101C302.066 57.3693 304.096 59.0612 306.481 60.2858C308.866 61.5104 311.573 62.1227 314.602 62.1227Z" fill="black"/>
<path d="M354.337 2.13293H412.539V14.3629H390.834V73.1925H375.994V14.3629H354.337V2.13293Z" fill="black"/>
<path d="M420.66 2.13293H435.548V29.1549H463.44V2.13293H478.281V73.1925H463.44V41.4332H435.548V73.1925H420.66V2.13293Z" fill="black"/>
<path d="M492.203 2.13293H506.463V50.5211H506.656L534.79 2.13293H549.824V73.1925H535.563V25.0944H535.37L507.285 73.1925H492.203V2.13293Z" fill="black"/>
<path d="M565.438 2.13293H580.278V31.0402L607.445 2.13293H626.636L597.632 31.2335L628.328 73.1925H609.523L587.529 41.7233L580.278 49.1193V73.1925H565.438V2.13293Z" fill="black"/>
<path d="M662.842 2.13293H720.463V73.1925H705.623V14.3629H677.731V73.1925H662.842V2.13293Z" fill="black"/>
<path d="M731.823 37.6627C731.823 32.3453 732.532 27.4147 733.95 22.8707C735.368 18.3268 737.495 14.3951 740.331 11.0758C743.167 7.72424 746.728 5.09778 751.014 3.19641C755.3 1.29504 760.295 0.34436 766 0.34436C771.252 0.34436 775.99 1.29504 780.211 3.19641C784.433 5.09778 788.01 7.72424 790.943 11.0758C793.908 14.3951 796.18 18.3268 797.759 22.8707C799.338 27.4147 800.127 32.3453 800.127 37.6627C800.127 42.9479 799.338 47.8785 797.759 52.4547C796.18 56.9987 793.908 60.9464 790.943 64.298C788.01 67.6173 784.433 70.2277 780.211 72.129C775.99 74.0304 771.252 74.9811 766 74.9811C760.295 74.9811 755.3 74.0304 751.014 72.129C746.728 70.2277 743.167 67.6173 740.331 64.298C737.495 60.9464 735.368 56.9987 733.95 52.4547C732.532 47.8785 731.823 42.9479 731.823 37.6627ZM766 62.1227C769.029 62.1227 771.736 61.5104 774.121 60.2858C776.505 59.0612 778.52 57.3693 780.163 55.2101C781.839 53.0187 783.112 50.4406 783.982 47.4757C784.852 44.4786 785.287 41.2076 785.287 37.6627C785.287 34.1178 784.852 30.8629 783.982 27.8981C783.112 24.901 781.839 22.3229 780.163 20.1637C778.52 17.9723 776.505 16.2643 774.121 15.0397C771.736 13.8151 769.029 13.2028 766 13.2028C762.97 13.2028 760.263 13.8151 757.878 15.0397C755.494 16.2643 753.463 17.9723 751.788 20.1637C750.144 22.3229 748.871 24.901 747.969 27.8981C747.099 30.8629 746.664 34.1178 746.664 37.6627C746.664 41.2076 747.099 44.4786 747.969 47.4757C748.871 50.4406 750.144 53.0187 751.788 55.2101C753.463 57.3693 755.494 59.0612 757.878 60.2858C760.263 61.5104 762.97 62.1227 766 62.1227Z" fill="black"/>
<path d="M884.964 25.4811C884.771 24.8043 884.529 24.0309 884.239 23.1608C883.949 22.2584 883.546 21.3561 883.03 20.4537C882.547 19.5514 881.918 18.6652 881.145 17.795C880.404 16.9249 879.469 16.1515 878.341 15.4747C877.213 14.798 875.86 14.2501 874.281 13.8312C872.702 13.4122 870.849 13.2028 868.722 13.2028C867.819 13.2028 866.756 13.3156 865.531 13.5411C864.307 13.7667 863.05 14.2018 861.761 14.8463C860.472 15.4586 859.199 16.3287 857.942 17.4567C856.685 18.5846 855.557 20.067 854.558 21.9039C853.591 23.7086 852.802 25.9 852.189 28.4781C851.577 31.0563 851.271 34.1178 851.271 37.6627C851.271 41.4977 851.674 44.9298 852.479 47.9591C853.285 50.9884 854.445 53.5504 855.96 55.6451C857.475 57.7399 859.295 59.3512 861.422 60.4791C863.582 61.5748 866.015 62.1227 868.722 62.1227C871.848 62.1227 874.394 61.6393 876.359 60.6725C878.325 59.7057 879.888 58.5294 881.048 57.1437C882.241 55.7579 883.127 54.3077 883.707 52.7931C884.287 51.2784 884.738 49.9572 885.061 48.8292H899.804C898.999 53.2765 897.661 57.1437 895.792 60.4308C893.923 63.6857 891.651 66.3927 888.976 68.5519C886.301 70.7111 883.288 72.3224 879.937 73.3859C876.617 74.4493 873.072 74.9811 869.302 74.9811C864.017 74.9811 859.328 74.111 855.235 72.3707C851.174 70.5983 847.742 68.0846 844.938 64.8297C842.167 61.5748 840.056 57.6593 838.606 53.0831C837.156 48.4747 836.431 43.3346 836.431 37.6627C836.431 33.2799 836.85 29.316 837.688 25.7711C838.525 22.2262 839.686 19.0841 841.168 16.3448C842.683 13.5734 844.455 11.1886 846.485 9.19055C848.516 7.16028 850.723 5.50061 853.108 4.21155C855.525 2.89026 858.055 1.92346 860.697 1.31116C863.34 0.666626 866.015 0.34436 868.722 0.34436C872.589 0.34436 876.021 0.747192 879.018 1.55286C882.015 2.35852 884.642 3.43811 886.897 4.79163C889.153 6.14514 891.071 7.69202 892.65 9.43225C894.261 11.1725 895.566 12.9772 896.565 14.8463C897.597 16.6832 898.354 18.5363 898.837 20.4054C899.353 22.2423 899.675 23.9342 899.804 25.4811H884.964Z" fill="black"/>
<path d="M911.744 2.13293H963.468V14.3629H926.584V30.1217H944.229C945.292 30.1217 946.662 30.1539 948.337 30.2184C950.013 30.2828 951.786 30.5245 953.655 30.9435C955.556 31.3302 957.458 31.9586 959.359 32.8287C961.292 33.6989 963.033 34.9396 964.58 36.5509C966.126 38.13 967.383 40.1603 968.35 42.6417C969.317 45.0909 969.8 48.1202 969.8 51.7296C969.8 55.3068 969.317 58.3199 968.35 60.7692C967.383 63.2184 966.143 65.2487 964.628 66.86C963.146 68.4391 961.486 69.6637 959.649 70.5338C957.812 71.3717 956.023 72.0001 954.283 72.4191C952.575 72.8058 950.996 73.0314 949.546 73.0958C948.128 73.1603 947.081 73.1925 946.404 73.1925H911.744V2.13293ZM926.584 60.9142H942.633C943.987 60.9142 945.373 60.8175 946.791 60.6241C948.241 60.4308 949.562 60.0118 950.754 59.3673C951.979 58.7228 952.978 57.7721 953.751 56.5153C954.525 55.2262 954.912 53.5182 954.912 51.3912C954.912 49.1676 954.525 47.4274 953.751 46.1705C953.01 44.8815 952.027 43.9147 950.803 43.2701C949.578 42.6256 948.192 42.2228 946.646 42.0616C945.131 41.9005 943.6 41.8199 942.053 41.8199H926.584V60.9142Z" fill="black"/>
<path d="M979.033 37.6627C979.033 32.3453 979.742 27.4147 981.16 22.8707C982.578 18.3268 984.705 14.3951 987.541 11.0758C990.377 7.72424 993.938 5.09778 998.224 3.19641C1002.51 1.29504 1007.51 0.34436 1013.21 0.34436C1018.46 0.34436 1023.2 1.29504 1027.42 3.19641C1031.64 5.09778 1035.22 7.72424 1038.15 11.0758C1041.12 14.3951 1043.39 18.3268 1044.97 22.8707C1046.55 27.4147 1047.34 32.3453 1047.34 37.6627C1047.34 42.9479 1046.55 47.8785 1044.97 52.4547C1043.39 56.9987 1041.12 60.9464 1038.15 64.298C1035.22 67.6173 1031.64 70.2277 1027.42 72.129C1023.2 74.0304 1018.46 74.9811 1013.21 74.9811C1007.51 74.9811 1002.51 74.0304 998.224 72.129C993.938 70.2277 990.377 67.6173 987.541 64.298C984.705 60.9464 982.578 56.9987 981.16 52.4547C979.742 47.8785 979.033 42.9479 979.033 37.6627ZM1013.21 62.1227C1016.24 62.1227 1018.95 61.5104 1021.33 60.2858C1023.72 59.0612 1025.73 57.3693 1027.37 55.2101C1029.05 53.0187 1030.32 50.4406 1031.19 47.4757C1032.06 44.4786 1032.5 41.2076 1032.5 37.6627C1032.5 34.1178 1032.06 30.8629 1031.19 27.8981C1030.32 24.901 1029.05 22.3229 1027.37 20.1637C1025.73 17.9723 1023.72 16.2643 1021.33 15.0397C1018.95 13.8151 1016.24 13.2028 1013.21 13.2028C1010.18 13.2028 1007.47 13.8151 1005.09 15.0397C1002.7 16.2643 1000.67 17.9723 998.998 20.1637C997.354 22.3229 996.081 24.901 995.179 27.8981C994.309 30.8629 993.874 34.1178 993.874 37.6627C993.874 41.2076 994.309 44.4786 995.179 47.4757C996.081 50.4406 997.354 53.0187 998.998 55.2101C1000.67 57.3693 1002.7 59.0612 1005.09 60.2858C1007.47 61.5104 1010.18 62.1227 1013.21 62.1227Z" fill="black"/>
<path d="M1059.86 2.13293H1092.15C1095.92 2.13293 1099.19 2.64856 1101.96 3.67981C1104.77 4.71106 1107.09 6.20959 1108.92 8.17542C1110.76 10.1412 1112.13 12.526 1113.03 15.3297C1113.93 18.1334 1114.38 21.3239 1114.38 24.901C1114.38 28.2203 1113.85 31.2819 1112.79 34.0856C1111.73 36.8571 1110.18 39.2579 1108.15 41.2882C1106.15 43.2863 1103.7 44.8492 1100.8 45.9772C1097.9 47.1051 1094.61 47.6691 1090.94 47.6691H1074.7V73.1925H1059.86V2.13293ZM1074.7 35.3907H1088.76C1092.12 35.3907 1094.74 34.569 1096.64 32.9254C1098.58 31.2819 1099.54 28.6071 1099.54 24.901C1099.54 23.0319 1099.29 21.4366 1098.77 20.1154C1098.29 18.7941 1097.58 17.7145 1096.64 16.8766C1095.74 16.0065 1094.61 15.3781 1093.26 14.9913C1091.94 14.5724 1090.44 14.3629 1088.76 14.3629H1074.7V35.3907Z" fill="black"/>
<path d="M1130.72 59.7057C1131.66 60.318 1132.74 60.8014 1133.96 61.1559C1135.19 61.5104 1136.57 61.6876 1138.12 61.6876C1140.15 61.6876 1141.75 61.0914 1142.91 59.899C1144.07 58.7067 1144.87 57.2081 1145.32 55.4034L1120.14 2.13293H1136.86L1153.01 40.3214L1167.17 2.13293H1183.12L1160.45 54.5817C1157.49 61.5104 1154.35 66.6505 1151.03 70.0021C1147.71 73.3214 1144 74.9811 1139.91 74.9811C1138.62 74.9811 1137.49 74.9166 1136.52 74.7877C1135.59 74.6588 1134.77 74.4977 1134.06 74.3043C1133.38 74.111 1132.77 73.9176 1132.22 73.7242C1131.71 73.5309 1131.21 73.3536 1130.72 73.1925V59.7057Z" fill="black"/>
<path d="M1264.24 25.4811C1264.04 24.8043 1263.8 24.0309 1263.51 23.1608C1263.22 22.2584 1262.82 21.3561 1262.3 20.4537C1261.82 19.5514 1261.19 18.6652 1260.42 17.795C1259.68 16.9249 1258.74 16.1515 1257.62 15.4747C1256.49 14.798 1255.13 14.2501 1253.56 13.8312C1251.98 13.4122 1250.12 13.2028 1248 13.2028C1247.09 13.2028 1246.03 13.3156 1244.81 13.5411C1243.58 13.7667 1242.32 14.2018 1241.04 14.8463C1239.75 15.4586 1238.47 16.3287 1237.22 17.4567C1235.96 18.5846 1234.83 20.067 1233.83 21.9039C1232.87 23.7086 1232.08 25.9 1231.46 28.4781C1230.85 31.0563 1230.55 34.1178 1230.55 37.6627C1230.55 41.4977 1230.95 44.9298 1231.75 47.9591C1232.56 50.9884 1233.72 53.5504 1235.23 55.6451C1236.75 57.7399 1238.57 59.3512 1240.7 60.4791C1242.86 61.5748 1245.29 62.1227 1248 62.1227C1251.12 62.1227 1253.67 61.6393 1255.63 60.6725C1257.6 59.7057 1259.16 58.5294 1260.32 57.1437C1261.52 55.7579 1262.4 54.3077 1262.98 52.7931C1263.56 51.2784 1264.01 49.9572 1264.33 48.8292H1279.08C1278.27 53.2765 1276.94 57.1437 1275.07 60.4308C1273.2 63.6857 1270.93 66.3927 1268.25 68.5519C1265.58 70.7111 1262.56 72.3224 1259.21 73.3859C1255.89 74.4493 1252.35 74.9811 1248.58 74.9811C1243.29 74.9811 1238.6 74.111 1234.51 72.3707C1230.45 70.5983 1227.02 68.0846 1224.21 64.8297C1221.44 61.5748 1219.33 57.6593 1217.88 53.0831C1216.43 48.4747 1215.71 43.3346 1215.71 37.6627C1215.71 33.2799 1216.12 29.316 1216.96 25.7711C1217.8 22.2262 1218.96 19.0841 1220.44 16.3448C1221.96 13.5734 1223.73 11.1886 1225.76 9.19055C1227.79 7.16028 1230 5.50061 1232.38 4.21155C1234.8 2.89026 1237.33 1.92346 1239.97 1.31116C1242.61 0.666626 1245.29 0.34436 1248 0.34436C1251.86 0.34436 1255.3 0.747192 1258.29 1.55286C1261.29 2.35852 1263.92 3.43811 1266.17 4.79163C1268.43 6.14514 1270.35 7.69202 1271.92 9.43225C1273.54 11.1725 1274.84 12.9772 1275.84 14.8463C1276.87 16.6832 1277.63 18.5363 1278.11 20.4054C1278.63 22.2423 1278.95 23.9342 1279.08 25.4811H1264.24Z" fill="black"/>
<path d="M1289.81 2.13293H1304.7V29.1549H1332.59V2.13293H1347.43V73.1925H1332.59V41.4332H1304.7V73.1925H1289.81V2.13293Z" fill="black"/>
<path d="M1362.56 2.13293H1414.72V14.3629H1376.82V30.1217H1411.67V42.4H1376.82V60.3341H1416.41V73.1925H1362.56V2.13293Z" fill="black"/>
<path d="M1428.59 2.13293H1476.4V14.3629H1443.43V73.1925H1428.59V2.13293Z" fill="black"/>
<path d="M1505.12 2.13293H1522.08L1547.22 73.1925H1531.07L1526.53 58.5455H1500.28L1495.35 73.1925H1479.69L1505.12 2.13293ZM1504.25 46.2672H1522.37L1513.53 18.1334H1513.33L1504.25 46.2672Z" fill="black"/>
</svg>
