<svg width="2118" height="104" viewBox="0 0 2118 104" fill="none" xmlns="http://www.w3.org/2000/svg">
<mask id="path-1-outside-1" maskUnits="userSpaceOnUse" x="0.586914" y="0.518188" width="2117" height="103" fill="black">
<rect fill="white" x="0.586914" y="0.518188" width="2117" height="103"/>
<path d="M48.1787 41.9342C47.9971 41.2985 47.77 40.5719 47.4976 39.7545C47.2251 38.9069 46.8467 38.0592 46.3623 37.2115C45.9082 36.3639 45.3179 35.5314 44.5913 34.714C43.895 33.8966 43.0171 33.17 41.9575 32.5343C40.8979 31.8986 39.6265 31.3839 38.1431 30.9904C36.6597 30.5968 34.9189 30.4 32.9209 30.4C32.0732 30.4 31.0742 30.506 29.9238 30.7179C28.7734 30.9298 27.5928 31.3385 26.3818 31.944C25.1709 32.5192 23.9751 33.3365 22.7944 34.3961C21.6138 35.4557 20.5542 36.8483 19.6157 38.5739C18.7075 40.2692 17.9658 42.3278 17.3906 44.7496C16.8154 47.1715 16.5278 50.0475 16.5278 53.3776C16.5278 56.9801 16.9062 60.2042 17.6631 63.0499C18.4199 65.8956 19.5098 68.3024 20.9326 70.2701C22.3555 72.2379 24.0659 73.7516 26.064 74.8112C28.0923 75.8405 30.3779 76.3551 32.9209 76.3551C35.8574 76.3551 38.249 75.901 40.0957 74.9928C41.9424 74.0846 43.4106 72.9796 44.5005 71.6779C45.6206 70.3761 46.4531 69.0138 46.998 67.5909C47.543 66.1681 47.9668 64.9269 48.2695 63.8673H62.1196C61.3628 68.045 60.1064 71.6779 58.3506 74.7657C56.5947 77.8234 54.4604 80.3663 51.9478 82.3947C49.4351 84.423 46.6045 85.9366 43.4561 86.9357C40.3379 87.9347 37.0078 88.4342 33.4658 88.4342C28.501 88.4342 24.0962 87.6168 20.2515 85.9821C16.437 84.317 13.2129 81.9557 10.5791 78.8981C7.97559 75.8405 5.99268 72.1622 4.63037 67.8634C3.26807 63.5343 2.58691 58.7057 2.58691 53.3776C2.58691 49.2604 2.98047 45.5367 3.76758 42.2067C4.55469 38.8766 5.64453 35.9249 7.03711 33.3517C8.45996 30.7482 10.125 28.5079 12.0322 26.631C13.9395 24.7238 16.0132 23.1647 18.2534 21.9537C20.5239 20.7125 22.9004 19.8043 25.3828 19.2291C27.8652 18.6237 30.3779 18.3209 32.9209 18.3209C36.5537 18.3209 39.7778 18.6993 42.5933 19.4562C45.4087 20.213 47.876 21.2272 49.9951 22.4987C52.1143 23.7701 53.9155 25.2233 55.3989 26.858C56.9126 28.4928 58.1387 30.1881 59.0771 31.944C60.0459 33.6696 60.7573 35.4103 61.2114 37.1661C61.6958 38.8917 61.9985 40.4811 62.1196 41.9342H48.1787Z"/>
<path d="M73.3359 20.0011H122.333V31.4899H86.7319V46.2936H119.473V57.8278H86.7319V74.6749H123.923V86.754H73.3359V20.0011Z"/>
<path d="M135.366 20.0011H165.7C169.242 20.0011 172.315 20.4855 174.918 21.4542C177.552 22.423 179.732 23.8307 181.458 25.6774C183.183 27.524 184.47 29.7643 185.317 32.3981C186.165 35.0319 186.589 38.0289 186.589 41.3893C186.589 44.5074 186.089 47.3834 185.09 50.0172C184.091 52.6207 182.638 54.8761 180.731 56.7833C178.854 58.6603 176.553 60.1285 173.829 61.1881C171.104 62.2477 168.016 62.7775 164.565 62.7775H149.307V86.754H135.366V20.0011ZM149.307 51.2433H162.521C165.67 51.2433 168.137 50.4713 169.923 48.9274C171.74 47.3834 172.648 44.8707 172.648 41.3893C172.648 39.6334 172.406 38.1349 171.921 36.8937C171.467 35.6525 170.801 34.6383 169.923 33.8512C169.076 33.0338 168.016 32.4435 166.745 32.0802C165.503 31.6866 164.096 31.4899 162.521 31.4899H149.307V51.2433Z"/>
<path d="M196.261 20.0011H209.657V65.4567H209.839L236.268 20.0011H250.39V86.754H236.994V41.5709H236.812L210.429 86.754H196.261V20.0011Z"/>
<path d="M317.779 86.754H304.292V60.4161H291.85C289.73 60.4161 287.793 60.4767 286.037 60.5978C284.312 60.7189 282.798 61.1276 281.496 61.8239C280.194 62.4899 279.135 63.5797 278.317 65.0934C277.53 66.6071 277.016 68.7413 276.773 71.4962L276.319 77.8082C276.198 79.2614 276.062 80.4874 275.911 81.4865C275.79 82.4552 275.653 83.2726 275.502 83.9386C275.351 84.5743 275.199 85.1193 275.048 85.5734C274.896 85.9972 274.76 86.3907 274.639 86.754H260.153C260.607 85.9064 260.956 85.1798 261.198 84.5743C261.47 83.9689 261.682 83.3331 261.833 82.6671C262.015 82.0011 262.151 81.2291 262.242 80.3512C262.363 79.4733 262.5 78.3229 262.651 76.9L263.287 70.588C263.499 68.6505 263.756 66.8947 264.059 65.3204C264.392 63.7159 264.891 62.2931 265.557 61.0519C266.253 59.8107 267.207 58.736 268.418 57.8278C269.629 56.9196 271.233 56.1476 273.231 55.5118C272.354 55.2091 271.4 54.8156 270.371 54.3312C269.372 53.8468 268.312 53.0294 267.192 51.879C265.739 50.4259 264.588 48.6549 263.741 46.566C262.893 44.4469 262.469 42.131 262.469 39.6183C262.469 38.0441 262.636 36.5455 262.969 35.1227C263.302 33.6696 263.771 32.3073 264.376 31.0358C264.982 29.7643 265.693 28.5988 266.511 27.5392C267.358 26.4796 268.267 25.5411 269.235 24.7238C270.628 23.5431 272.142 22.6349 273.776 21.9991C275.441 21.3634 277.152 20.8942 278.908 20.5914C280.694 20.2887 282.51 20.1222 284.357 20.0919C286.234 20.0314 288.081 20.0011 289.897 20.0011H317.779V86.754ZM304.292 31.7169H288.58C288.398 31.7169 288.035 31.7321 287.49 31.7623C286.945 31.7623 286.325 31.7926 285.628 31.8531C284.962 31.8834 284.281 31.944 283.585 32.0348C282.889 32.1256 282.298 32.2618 281.814 32.4435C281.208 32.6857 280.588 33.0187 279.952 33.4425C279.316 33.8361 278.726 34.3658 278.181 35.0319C277.667 35.6979 277.243 36.5001 276.91 37.4386C276.577 38.3771 276.41 39.4972 276.41 40.799C276.41 42.2521 276.607 43.4781 277 44.4772C277.424 45.4459 277.969 46.2633 278.635 46.9293C279.332 47.5651 280.104 48.0646 280.951 48.4279C281.829 48.7609 282.707 49.0031 283.585 49.1544C284.493 49.3058 285.371 49.3966 286.219 49.4269C287.097 49.4572 287.884 49.4723 288.58 49.4723H304.292V31.7169Z"/>
<path d="M397.928 31.4899H378.356L378.401 41.5709C378.432 47.6559 378.295 53.0294 377.993 57.6915C377.72 62.3234 377.266 66.3649 376.63 69.816C376.025 73.2369 375.238 76.1129 374.269 78.444C373.331 80.775 372.21 82.652 370.909 84.0748C369.607 85.4674 368.124 86.4664 366.458 87.0719C364.793 87.6774 362.962 87.9801 360.964 87.9801C359.329 87.9801 357.876 87.8741 356.604 87.6622C355.363 87.4806 354.122 87.1324 352.881 86.6178L352.835 73.8575C353.259 74.0695 353.698 74.2511 354.152 74.4025C354.637 74.5236 355.106 74.6295 355.56 74.7203C356.014 74.7809 356.423 74.8263 356.786 74.8566C357.18 74.8868 357.482 74.902 357.694 74.902C358.512 74.902 359.269 74.796 359.965 74.5841C360.691 74.3419 361.327 73.8424 361.872 73.0856C362.447 72.3287 362.947 71.2389 363.371 69.816C363.794 68.3932 364.143 66.5011 364.415 64.1398C364.718 61.7784 364.93 58.8571 365.051 55.3756C365.202 51.8942 365.278 47.7316 365.278 42.8878V20.0011H411.869V86.754H397.928V31.4899Z"/>
<path d="M424.901 20.0011H473.899V31.4899H438.297V46.2936H471.038V57.8278H438.297V74.6749H475.488V86.754H424.901V20.0011Z"/>
<path d="M487.386 20.0011H501.327V47.1564L526.847 20.0011H544.875L517.629 47.338L546.464 86.754H528.8L508.138 57.192L501.327 64.1398V86.754H487.386V20.0011Z"/>
<path d="M553.003 20.0011H566.99V75.2198H593.191V20.0011H607.132V75.2198H614.08V101.058H602.001V86.754H553.003V20.0011Z"/>
<path d="M621.573 20.0011H634.969V65.4567H635.15L661.579 20.0011H675.702V86.754H662.306V41.5709H662.124L635.741 86.754H621.573V20.0011Z"/>
<path d="M688.78 20.0011H702.176V65.4567H702.357L728.786 20.0011H742.909V86.754H729.513V41.5709H729.331L702.948 86.754H688.78V20.0011ZM716.979 16.5045C711.167 16.5045 706.792 15.3693 703.856 13.0988C700.919 10.798 699.451 7.27112 699.451 2.51819H709.986C710.017 3.45667 710.153 4.31946 710.395 5.10657C710.667 5.89368 711.076 6.57483 711.621 7.15002C712.166 7.72522 712.877 8.17932 713.755 8.51233C714.633 8.81506 715.708 8.96643 716.979 8.96643C718.251 8.96643 719.326 8.81506 720.204 8.51233C721.112 8.17932 721.838 7.74036 722.383 7.19543C722.958 6.62024 723.367 5.93909 723.609 5.15198C723.882 4.36487 724.003 3.48694 723.973 2.51819H734.508C734.508 7.27112 733.04 10.798 730.103 13.0988C727.167 15.3693 722.792 16.5045 716.979 16.5045Z"/>
<path d="M783.324 55.7843L798.854 42.4337V53.2413L789.59 61.1881L798.854 69.0895V79.8971L783.324 66.5919V55.7843ZM803.44 55.7843L818.971 42.4337V53.2413L809.707 61.1881L818.971 69.0895V79.8971L803.44 66.5919V55.7843Z"/>
<path d="M833.638 20.0011H887.767V86.754H873.826V31.4899H847.625V86.754H833.638V20.0011Z"/>
<path d="M898.438 53.3776C898.438 48.3824 899.104 43.7506 900.437 39.4821C901.769 35.2135 903.767 31.5201 906.431 28.402C909.095 25.2535 912.44 22.7863 916.466 21.0001C920.493 19.214 925.185 18.3209 930.543 18.3209C935.478 18.3209 939.928 19.214 943.894 21.0001C947.86 22.7863 951.22 25.2535 953.975 28.402C956.76 31.5201 958.895 35.2135 960.378 39.4821C961.861 43.7506 962.603 48.3824 962.603 53.3776C962.603 58.3424 961.861 62.9742 960.378 67.2731C958.895 71.5416 956.76 75.2501 953.975 78.3986C951.22 81.5167 947.86 83.9689 943.894 85.755C939.928 87.5411 935.478 88.4342 930.543 88.4342C925.185 88.4342 920.493 87.5411 916.466 85.755C912.44 83.9689 909.095 81.5167 906.431 78.3986C903.767 75.2501 901.769 71.5416 900.437 67.2731C899.104 62.9742 898.438 58.3424 898.438 53.3776ZM930.543 76.3551C933.389 76.3551 935.932 75.7799 938.172 74.6295C940.413 73.4791 942.305 71.8898 943.849 69.8615C945.423 67.8029 946.619 65.381 947.436 62.5958C948.253 59.7804 948.662 56.7076 948.662 53.3776C948.662 50.0475 948.253 46.9899 947.436 44.2047C946.619 41.3893 945.423 38.9674 943.849 36.9391C942.305 34.8805 940.413 33.276 938.172 32.1256C935.932 30.9752 933.389 30.4 930.543 30.4C927.698 30.4 925.155 30.9752 922.915 32.1256C920.674 33.276 918.767 34.8805 917.193 36.9391C915.649 38.9674 914.453 41.3893 913.605 44.2047C912.788 46.9899 912.379 50.0475 912.379 53.3776C912.379 56.7076 912.788 59.7804 913.605 62.5958C914.453 65.381 915.649 67.8029 917.193 69.8615C918.767 71.8898 920.674 73.4791 922.915 74.6295C925.155 75.7799 927.698 76.3551 930.543 76.3551Z"/>
<path d="M1008.88 60.0529C1006.54 60.5372 1004.4 60.9308 1002.43 61.2335C1000.46 61.506 998.719 61.7179 997.206 61.8693C995.722 61.9904 994.466 62.0812 993.437 62.1417C992.438 62.172 991.726 62.1871 991.302 62.1871C988.002 62.1871 985.202 61.9147 982.901 61.3698C980.601 60.8248 978.693 60.0983 977.18 59.1901C975.666 58.2819 974.485 57.2223 973.638 56.0114C972.79 54.8004 972.154 53.5441 971.73 52.2423C971.307 50.9406 971.049 49.6237 970.958 48.2916C970.868 46.9596 970.822 45.7032 970.822 44.5226V20.0011H984.218V41.1622C984.218 43.3419 984.43 45.1281 984.854 46.5206C985.278 47.8829 985.959 48.9576 986.897 49.7448C987.836 50.5319 989.047 51.0768 990.53 51.3795C992.044 51.652 993.875 51.7882 996.025 51.7882C996.903 51.7882 997.902 51.7579 999.022 51.6974C1000.17 51.6066 1001.32 51.4855 1002.47 51.3341C1003.65 51.1827 1004.79 51.0011 1005.88 50.7892C1007 50.547 1008 50.2897 1008.88 50.0172V20.0011H1022.82V86.754H1008.88V60.0529Z"/>
<path d="M1036.39 20.0011H1085.39V31.4899H1049.79V46.2936H1082.53V57.8278H1049.79V74.6749H1086.98V86.754H1036.39V20.0011Z"/>
<path d="M1097.29 20.0011H1117.68L1129.39 71.9503H1129.58L1141.29 20.0011H1161.77V86.754H1148.92V30.9449H1148.74L1136.07 86.754H1122.49L1110.32 30.9449H1110.14V86.754H1097.29V20.0011Z"/>
<path d="M1180.44 74.0846C1181.31 74.6598 1182.33 75.1139 1183.48 75.4469C1184.63 75.7799 1185.93 75.9464 1187.38 75.9464C1189.29 75.9464 1190.79 75.3864 1191.88 74.2662C1192.97 73.1461 1193.73 71.7384 1194.15 70.0431L1170.49 20.0011H1186.2L1201.37 55.8751L1214.67 20.0011H1229.66L1208.36 69.2711C1205.58 75.7799 1202.63 80.6085 1199.51 83.757C1196.39 86.8751 1192.91 88.4342 1189.06 88.4342C1187.85 88.4342 1186.79 88.3737 1185.88 88.2526C1185.01 88.1315 1184.23 87.9801 1183.57 87.7985C1182.93 87.6168 1182.36 87.4352 1181.84 87.2535C1181.36 87.0719 1180.89 86.9054 1180.44 86.754V74.0846Z"/>
<path d="M1303.86 31.4899H1284.29L1284.33 41.5709C1284.36 47.6559 1284.23 53.0294 1283.93 57.6915C1283.65 62.3234 1283.2 66.3649 1282.56 69.816C1281.96 73.2369 1281.17 76.1129 1280.2 78.444C1279.26 80.775 1278.14 82.652 1276.84 84.0748C1275.54 85.4674 1274.06 86.4664 1272.39 87.0719C1270.73 87.6774 1268.89 87.9801 1266.9 87.9801C1265.26 87.9801 1263.81 87.8741 1262.54 87.6622C1261.3 87.4806 1260.05 87.1324 1258.81 86.6178L1258.77 73.8575C1259.19 74.0695 1259.63 74.2511 1260.08 74.4025C1260.57 74.5236 1261.04 74.6295 1261.49 74.7203C1261.95 74.7809 1262.36 74.8263 1262.72 74.8566C1263.11 74.8868 1263.42 74.902 1263.63 74.902C1264.44 74.902 1265.2 74.796 1265.9 74.5841C1266.62 74.3419 1267.26 73.8424 1267.8 73.0856C1268.38 72.3287 1268.88 71.2389 1269.3 69.816C1269.73 68.3932 1270.08 66.5011 1270.35 64.1398C1270.65 61.7784 1270.86 58.8571 1270.98 55.3756C1271.13 51.8942 1271.21 47.7316 1271.21 42.8878V20.0011H1317.8V86.754H1303.86V31.4899Z"/>
<path d="M1330.83 20.0011H1379.83V31.4899H1344.23V46.2936H1376.97V57.8278H1344.23V74.6749H1381.42V86.754H1330.83V20.0011Z"/>
<path d="M1386.37 75.2198H1392.23C1392.92 73.3429 1393.61 71.4205 1394.27 69.4528C1394.97 67.485 1395.62 65.3507 1396.22 63.0499C1396.83 60.7491 1397.38 58.2213 1397.86 55.4664C1398.37 52.7115 1398.83 49.6085 1399.22 46.1573C1399.62 42.6759 1399.93 38.8009 1400.18 34.5323C1400.42 30.2335 1400.58 25.3898 1400.67 20.0011H1446.13V75.2198H1452.62V101.058H1440.54V86.754H1398.45V101.058H1386.37V75.2198ZM1432.19 31.4899H1412.94C1412.91 32.7008 1412.86 34.2448 1412.8 36.1217C1412.77 37.9987 1412.68 40.1027 1412.53 42.4337C1412.38 44.7345 1412.15 47.2321 1411.85 49.9264C1411.57 52.5905 1411.19 55.3453 1410.71 58.191C1410.23 61.0065 1409.61 63.8673 1408.85 66.7736C1408.12 69.6495 1407.23 72.465 1406.17 75.2198H1432.19V31.4899Z"/>
<path d="M1460.3 20.0011H1474.28V45.3854H1500.49V20.0011H1514.43V86.754H1500.49V56.9196H1474.28V86.754H1460.3V20.0011Z"/>
<path d="M1527.51 20.0011H1540.9V65.4567H1541.08L1567.51 20.0011H1581.63V86.754H1568.24V41.5709H1568.06L1541.67 86.754H1527.51V20.0011Z"/>
<path d="M1596.3 20.0011H1610.24V47.1564L1635.76 20.0011H1653.79L1626.54 47.338L1655.38 86.754H1637.72L1617.05 57.192L1610.24 64.1398V86.754H1596.3V20.0011Z"/>
<path d="M1661.92 20.0011H1675.32V65.4567H1675.5L1701.93 20.0011H1716.05V86.754H1702.65V41.5709H1702.47L1676.09 86.754H1661.92V20.0011Z"/>
<path d="M1749.65 20.0011H1804.33V31.4899H1783.94V86.754H1770V31.4899H1749.65V20.0011Z"/>
<path d="M1831.21 20.0011H1847.15L1870.76 86.754H1855.59L1851.33 72.9948H1826.67L1822.04 86.754H1807.32L1831.21 20.0011ZM1830.39 61.4606H1847.42L1839.11 35.0319H1838.93L1830.39 61.4606Z"/>
<path d="M1879.16 20.0011H1892.56V47.8829H1901.23C1901.44 45.3702 1901.91 42.8878 1902.64 40.4357C1903.37 37.9835 1904.32 35.6676 1905.5 33.4879C1906.71 31.278 1908.15 29.2496 1909.81 27.403C1911.51 25.5563 1913.42 23.9669 1915.54 22.6349C1917.68 21.2726 1920.05 20.213 1922.62 19.4562C1925.22 18.6993 1928.04 18.3209 1931.07 18.3209C1933.09 18.3209 1935.26 18.5328 1937.56 18.9567C1939.89 19.3502 1942.18 20.0616 1944.42 21.0909C1946.69 22.09 1948.85 23.4371 1950.91 25.1324C1953 26.8278 1954.83 28.962 1956.4 31.5353C1957.98 34.0782 1959.23 37.1056 1960.17 40.6173C1961.11 44.0988 1961.58 48.1554 1961.58 52.7872C1961.58 58.2667 1960.85 63.2013 1959.4 67.5909C1957.95 71.9806 1955.87 75.7194 1953.18 78.8073C1950.52 81.8951 1947.31 84.2716 1943.55 85.9366C1939.8 87.6017 1935.64 88.4342 1931.07 88.4342C1926.22 88.4342 1922.01 87.6471 1918.44 86.0729C1914.9 84.4987 1911.92 82.3644 1909.5 79.67C1907.1 76.9454 1905.23 73.797 1903.86 70.2247C1902.53 66.6525 1901.65 62.8683 1901.23 58.8722H1892.56V86.754H1879.16V20.0011ZM1914.63 53.2867C1914.63 57.2526 1915.02 60.6886 1915.81 63.5948C1916.59 66.5011 1917.7 68.9078 1919.12 70.8151C1920.58 72.692 1922.32 74.0846 1924.34 74.9928C1926.37 75.901 1928.61 76.3551 1931.07 76.3551C1933.55 76.3551 1935.8 75.901 1937.83 74.9928C1939.89 74.0846 1941.65 72.692 1943.1 70.8151C1944.55 68.9078 1945.67 66.5011 1946.46 63.5948C1947.25 60.6886 1947.64 57.2526 1947.64 53.2867C1947.64 49.3512 1947.25 45.9454 1946.46 43.0695C1945.67 40.1935 1944.55 37.817 1943.1 35.9401C1941.65 34.0631 1939.89 32.6705 1937.83 31.7623C1935.8 30.8541 1933.55 30.4 1931.07 30.4C1928.61 30.4 1926.37 30.8541 1924.34 31.7623C1922.32 32.6705 1920.58 34.0631 1919.12 35.9401C1917.7 37.817 1916.59 40.1935 1915.81 43.0695C1915.02 45.9454 1914.63 49.3512 1914.63 53.2867Z"/>
<path d="M1966.8 20.0011H2021.48V31.4899H2001.09V86.754H1987.15V31.4899H1966.8V20.0011Z"/>
<path d="M2044.77 73.6305H2058.3V86.754H2044.77V73.6305ZM2028.2 40.9352C2028.56 32.3073 2031.57 26.192 2037.23 22.5895C2040.81 20.2887 2045.2 19.1383 2050.4 19.1383C2057.25 19.1383 2062.92 20.7731 2067.43 24.0426C2071.97 27.3121 2074.24 32.1559 2074.24 38.5739C2074.24 42.5094 2073.26 45.8243 2071.29 48.5187C2070.14 50.1534 2067.93 52.2423 2064.66 54.7853L2061.44 57.2828C2059.68 58.6451 2058.52 60.2345 2057.94 62.0509C2057.58 63.2013 2057.38 64.9874 2057.35 67.4093H2045.09C2045.27 62.2931 2045.76 58.7662 2046.54 56.8287C2047.33 54.861 2049.36 52.6056 2052.63 50.0626L2055.94 47.4742C2057.03 46.6569 2057.91 45.7638 2058.58 44.795C2059.79 43.13 2060.39 41.2985 2060.39 39.3004C2060.39 36.9996 2059.71 34.9108 2058.35 33.0338C2057.02 31.1266 2054.57 30.173 2050.99 30.173C2047.48 30.173 2044.98 31.3385 2043.5 33.6696C2042.05 36.0006 2041.32 38.4225 2041.32 40.9352H2028.2Z"/>
<path d="M2115.11 66.5919L2099.58 79.8971V69.0895L2108.85 61.1881L2099.58 53.2413V42.4337L2115.11 55.7843V66.5919ZM2095 66.5919L2079.47 79.8971V69.0895L2088.73 61.1881L2079.47 53.2413V42.4337L2095 55.7843V66.5919Z"/>
</mask>
<path d="M48.1787 41.9342C47.9971 41.2985 47.77 40.5719 47.4976 39.7545C47.2251 38.9069 46.8467 38.0592 46.3623 37.2115C45.9082 36.3639 45.3179 35.5314 44.5913 34.714C43.895 33.8966 43.0171 33.17 41.9575 32.5343C40.8979 31.8986 39.6265 31.3839 38.1431 30.9904C36.6597 30.5968 34.9189 30.4 32.9209 30.4C32.0732 30.4 31.0742 30.506 29.9238 30.7179C28.7734 30.9298 27.5928 31.3385 26.3818 31.944C25.1709 32.5192 23.9751 33.3365 22.7944 34.3961C21.6138 35.4557 20.5542 36.8483 19.6157 38.5739C18.7075 40.2692 17.9658 42.3278 17.3906 44.7496C16.8154 47.1715 16.5278 50.0475 16.5278 53.3776C16.5278 56.9801 16.9062 60.2042 17.6631 63.0499C18.4199 65.8956 19.5098 68.3024 20.9326 70.2701C22.3555 72.2379 24.0659 73.7516 26.064 74.8112C28.0923 75.8405 30.3779 76.3551 32.9209 76.3551C35.8574 76.3551 38.249 75.901 40.0957 74.9928C41.9424 74.0846 43.4106 72.9796 44.5005 71.6779C45.6206 70.3761 46.4531 69.0138 46.998 67.5909C47.543 66.1681 47.9668 64.9269 48.2695 63.8673H62.1196C61.3628 68.045 60.1064 71.6779 58.3506 74.7657C56.5947 77.8234 54.4604 80.3663 51.9478 82.3947C49.4351 84.423 46.6045 85.9366 43.4561 86.9357C40.3379 87.9347 37.0078 88.4342 33.4658 88.4342C28.501 88.4342 24.0962 87.6168 20.2515 85.9821C16.437 84.317 13.2129 81.9557 10.5791 78.8981C7.97559 75.8405 5.99268 72.1622 4.63037 67.8634C3.26807 63.5343 2.58691 58.7057 2.58691 53.3776C2.58691 49.2604 2.98047 45.5367 3.76758 42.2067C4.55469 38.8766 5.64453 35.9249 7.03711 33.3517C8.45996 30.7482 10.125 28.5079 12.0322 26.631C13.9395 24.7238 16.0132 23.1647 18.2534 21.9537C20.5239 20.7125 22.9004 19.8043 25.3828 19.2291C27.8652 18.6237 30.3779 18.3209 32.9209 18.3209C36.5537 18.3209 39.7778 18.6993 42.5933 19.4562C45.4087 20.213 47.876 21.2272 49.9951 22.4987C52.1143 23.7701 53.9155 25.2233 55.3989 26.858C56.9126 28.4928 58.1387 30.1881 59.0771 31.944C60.0459 33.6696 60.7573 35.4103 61.2114 37.1661C61.6958 38.8917 61.9985 40.4811 62.1196 41.9342H48.1787Z" stroke="black" stroke-width="4" mask="url(#path-1-outside-1)"/>
<path d="M73.3359 20.0011H122.333V31.4899H86.7319V46.2936H119.473V57.8278H86.7319V74.6749H123.923V86.754H73.3359V20.0011Z" stroke="black" stroke-width="4" mask="url(#path-1-outside-1)"/>
<path d="M135.366 20.0011H165.7C169.242 20.0011 172.315 20.4855 174.918 21.4542C177.552 22.423 179.732 23.8307 181.458 25.6774C183.183 27.524 184.47 29.7643 185.317 32.3981C186.165 35.0319 186.589 38.0289 186.589 41.3893C186.589 44.5074 186.089 47.3834 185.09 50.0172C184.091 52.6207 182.638 54.8761 180.731 56.7833C178.854 58.6603 176.553 60.1285 173.829 61.1881C171.104 62.2477 168.016 62.7775 164.565 62.7775H149.307V86.754H135.366V20.0011ZM149.307 51.2433H162.521C165.67 51.2433 168.137 50.4713 169.923 48.9274C171.74 47.3834 172.648 44.8707 172.648 41.3893C172.648 39.6334 172.406 38.1349 171.921 36.8937C171.467 35.6525 170.801 34.6383 169.923 33.8512C169.076 33.0338 168.016 32.4435 166.745 32.0802C165.503 31.6866 164.096 31.4899 162.521 31.4899H149.307V51.2433Z" stroke="black" stroke-width="4" mask="url(#path-1-outside-1)"/>
<path d="M196.261 20.0011H209.657V65.4567H209.839L236.268 20.0011H250.39V86.754H236.994V41.5709H236.812L210.429 86.754H196.261V20.0011Z" stroke="black" stroke-width="4" mask="url(#path-1-outside-1)"/>
<path d="M317.779 86.754H304.292V60.4161H291.85C289.73 60.4161 287.793 60.4767 286.037 60.5978C284.312 60.7189 282.798 61.1276 281.496 61.8239C280.194 62.4899 279.135 63.5797 278.317 65.0934C277.53 66.6071 277.016 68.7413 276.773 71.4962L276.319 77.8082C276.198 79.2614 276.062 80.4874 275.911 81.4865C275.79 82.4552 275.653 83.2726 275.502 83.9386C275.351 84.5743 275.199 85.1193 275.048 85.5734C274.896 85.9972 274.76 86.3907 274.639 86.754H260.153C260.607 85.9064 260.956 85.1798 261.198 84.5743C261.47 83.9689 261.682 83.3331 261.833 82.6671C262.015 82.0011 262.151 81.2291 262.242 80.3512C262.363 79.4733 262.5 78.3229 262.651 76.9L263.287 70.588C263.499 68.6505 263.756 66.8947 264.059 65.3204C264.392 63.7159 264.891 62.2931 265.557 61.0519C266.253 59.8107 267.207 58.736 268.418 57.8278C269.629 56.9196 271.233 56.1476 273.231 55.5118C272.354 55.2091 271.4 54.8156 270.371 54.3312C269.372 53.8468 268.312 53.0294 267.192 51.879C265.739 50.4259 264.588 48.6549 263.741 46.566C262.893 44.4469 262.469 42.131 262.469 39.6183C262.469 38.0441 262.636 36.5455 262.969 35.1227C263.302 33.6696 263.771 32.3073 264.376 31.0358C264.982 29.7643 265.693 28.5988 266.511 27.5392C267.358 26.4796 268.267 25.5411 269.235 24.7238C270.628 23.5431 272.142 22.6349 273.776 21.9991C275.441 21.3634 277.152 20.8942 278.908 20.5914C280.694 20.2887 282.51 20.1222 284.357 20.0919C286.234 20.0314 288.081 20.0011 289.897 20.0011H317.779V86.754ZM304.292 31.7169H288.58C288.398 31.7169 288.035 31.7321 287.49 31.7623C286.945 31.7623 286.325 31.7926 285.628 31.8531C284.962 31.8834 284.281 31.944 283.585 32.0348C282.889 32.1256 282.298 32.2618 281.814 32.4435C281.208 32.6857 280.588 33.0187 279.952 33.4425C279.316 33.8361 278.726 34.3658 278.181 35.0319C277.667 35.6979 277.243 36.5001 276.91 37.4386C276.577 38.3771 276.41 39.4972 276.41 40.799C276.41 42.2521 276.607 43.4781 277 44.4772C277.424 45.4459 277.969 46.2633 278.635 46.9293C279.332 47.5651 280.104 48.0646 280.951 48.4279C281.829 48.7609 282.707 49.0031 283.585 49.1544C284.493 49.3058 285.371 49.3966 286.219 49.4269C287.097 49.4572 287.884 49.4723 288.58 49.4723H304.292V31.7169Z" stroke="black" stroke-width="4" mask="url(#path-1-outside-1)"/>
<path d="M397.928 31.4899H378.356L378.401 41.5709C378.432 47.6559 378.295 53.0294 377.993 57.6915C377.72 62.3234 377.266 66.3649 376.63 69.816C376.025 73.2369 375.238 76.1129 374.269 78.444C373.331 80.775 372.21 82.652 370.909 84.0748C369.607 85.4674 368.124 86.4664 366.458 87.0719C364.793 87.6774 362.962 87.9801 360.964 87.9801C359.329 87.9801 357.876 87.8741 356.604 87.6622C355.363 87.4806 354.122 87.1324 352.881 86.6178L352.835 73.8575C353.259 74.0695 353.698 74.2511 354.152 74.4025C354.637 74.5236 355.106 74.6295 355.56 74.7203C356.014 74.7809 356.423 74.8263 356.786 74.8566C357.18 74.8868 357.482 74.902 357.694 74.902C358.512 74.902 359.269 74.796 359.965 74.5841C360.691 74.3419 361.327 73.8424 361.872 73.0856C362.447 72.3287 362.947 71.2389 363.371 69.816C363.794 68.3932 364.143 66.5011 364.415 64.1398C364.718 61.7784 364.93 58.8571 365.051 55.3756C365.202 51.8942 365.278 47.7316 365.278 42.8878V20.0011H411.869V86.754H397.928V31.4899Z" stroke="black" stroke-width="4" mask="url(#path-1-outside-1)"/>
<path d="M424.901 20.0011H473.899V31.4899H438.297V46.2936H471.038V57.8278H438.297V74.6749H475.488V86.754H424.901V20.0011Z" stroke="black" stroke-width="4" mask="url(#path-1-outside-1)"/>
<path d="M487.386 20.0011H501.327V47.1564L526.847 20.0011H544.875L517.629 47.338L546.464 86.754H528.8L508.138 57.192L501.327 64.1398V86.754H487.386V20.0011Z" stroke="black" stroke-width="4" mask="url(#path-1-outside-1)"/>
<path d="M553.003 20.0011H566.99V75.2198H593.191V20.0011H607.132V75.2198H614.08V101.058H602.001V86.754H553.003V20.0011Z" stroke="black" stroke-width="4" mask="url(#path-1-outside-1)"/>
<path d="M621.573 20.0011H634.969V65.4567H635.15L661.579 20.0011H675.702V86.754H662.306V41.5709H662.124L635.741 86.754H621.573V20.0011Z" stroke="black" stroke-width="4" mask="url(#path-1-outside-1)"/>
<path d="M688.78 20.0011H702.176V65.4567H702.357L728.786 20.0011H742.909V86.754H729.513V41.5709H729.331L702.948 86.754H688.78V20.0011ZM716.979 16.5045C711.167 16.5045 706.792 15.3693 703.856 13.0988C700.919 10.798 699.451 7.27112 699.451 2.51819H709.986C710.017 3.45667 710.153 4.31946 710.395 5.10657C710.667 5.89368 711.076 6.57483 711.621 7.15002C712.166 7.72522 712.877 8.17932 713.755 8.51233C714.633 8.81506 715.708 8.96643 716.979 8.96643C718.251 8.96643 719.326 8.81506 720.204 8.51233C721.112 8.17932 721.838 7.74036 722.383 7.19543C722.958 6.62024 723.367 5.93909 723.609 5.15198C723.882 4.36487 724.003 3.48694 723.973 2.51819H734.508C734.508 7.27112 733.04 10.798 730.103 13.0988C727.167 15.3693 722.792 16.5045 716.979 16.5045Z" stroke="black" stroke-width="4" mask="url(#path-1-outside-1)"/>
<path d="M783.324 55.7843L798.854 42.4337V53.2413L789.59 61.1881L798.854 69.0895V79.8971L783.324 66.5919V55.7843ZM803.44 55.7843L818.971 42.4337V53.2413L809.707 61.1881L818.971 69.0895V79.8971L803.44 66.5919V55.7843Z" stroke="black" stroke-width="4" mask="url(#path-1-outside-1)"/>
<path d="M833.638 20.0011H887.767V86.754H873.826V31.4899H847.625V86.754H833.638V20.0011Z" stroke="black" stroke-width="4" mask="url(#path-1-outside-1)"/>
<path d="M898.438 53.3776C898.438 48.3824 899.104 43.7506 900.437 39.4821C901.769 35.2135 903.767 31.5201 906.431 28.402C909.095 25.2535 912.44 22.7863 916.466 21.0001C920.493 19.214 925.185 18.3209 930.543 18.3209C935.478 18.3209 939.928 19.214 943.894 21.0001C947.86 22.7863 951.22 25.2535 953.975 28.402C956.76 31.5201 958.895 35.2135 960.378 39.4821C961.861 43.7506 962.603 48.3824 962.603 53.3776C962.603 58.3424 961.861 62.9742 960.378 67.2731C958.895 71.5416 956.76 75.2501 953.975 78.3986C951.22 81.5167 947.86 83.9689 943.894 85.755C939.928 87.5411 935.478 88.4342 930.543 88.4342C925.185 88.4342 920.493 87.5411 916.466 85.755C912.44 83.9689 909.095 81.5167 906.431 78.3986C903.767 75.2501 901.769 71.5416 900.437 67.2731C899.104 62.9742 898.438 58.3424 898.438 53.3776ZM930.543 76.3551C933.389 76.3551 935.932 75.7799 938.172 74.6295C940.413 73.4791 942.305 71.8898 943.849 69.8615C945.423 67.8029 946.619 65.381 947.436 62.5958C948.253 59.7804 948.662 56.7076 948.662 53.3776C948.662 50.0475 948.253 46.9899 947.436 44.2047C946.619 41.3893 945.423 38.9674 943.849 36.9391C942.305 34.8805 940.413 33.276 938.172 32.1256C935.932 30.9752 933.389 30.4 930.543 30.4C927.698 30.4 925.155 30.9752 922.915 32.1256C920.674 33.276 918.767 34.8805 917.193 36.9391C915.649 38.9674 914.453 41.3893 913.605 44.2047C912.788 46.9899 912.379 50.0475 912.379 53.3776C912.379 56.7076 912.788 59.7804 913.605 62.5958C914.453 65.381 915.649 67.8029 917.193 69.8615C918.767 71.8898 920.674 73.4791 922.915 74.6295C925.155 75.7799 927.698 76.3551 930.543 76.3551Z" stroke="black" stroke-width="4" mask="url(#path-1-outside-1)"/>
<path d="M1008.88 60.0529C1006.54 60.5372 1004.4 60.9308 1002.43 61.2335C1000.46 61.506 998.719 61.7179 997.206 61.8693C995.722 61.9904 994.466 62.0812 993.437 62.1417C992.438 62.172 991.726 62.1871 991.302 62.1871C988.002 62.1871 985.202 61.9147 982.901 61.3698C980.601 60.8248 978.693 60.0983 977.18 59.1901C975.666 58.2819 974.485 57.2223 973.638 56.0114C972.79 54.8004 972.154 53.5441 971.73 52.2423C971.307 50.9406 971.049 49.6237 970.958 48.2916C970.868 46.9596 970.822 45.7032 970.822 44.5226V20.0011H984.218V41.1622C984.218 43.3419 984.43 45.1281 984.854 46.5206C985.278 47.8829 985.959 48.9576 986.897 49.7448C987.836 50.5319 989.047 51.0768 990.53 51.3795C992.044 51.652 993.875 51.7882 996.025 51.7882C996.903 51.7882 997.902 51.7579 999.022 51.6974C1000.17 51.6066 1001.32 51.4855 1002.47 51.3341C1003.65 51.1827 1004.79 51.0011 1005.88 50.7892C1007 50.547 1008 50.2897 1008.88 50.0172V20.0011H1022.82V86.754H1008.88V60.0529Z" stroke="black" stroke-width="4" mask="url(#path-1-outside-1)"/>
<path d="M1036.39 20.0011H1085.39V31.4899H1049.79V46.2936H1082.53V57.8278H1049.79V74.6749H1086.98V86.754H1036.39V20.0011Z" stroke="black" stroke-width="4" mask="url(#path-1-outside-1)"/>
<path d="M1097.29 20.0011H1117.68L1129.39 71.9503H1129.58L1141.29 20.0011H1161.77V86.754H1148.92V30.9449H1148.74L1136.07 86.754H1122.49L1110.32 30.9449H1110.14V86.754H1097.29V20.0011Z" stroke="black" stroke-width="4" mask="url(#path-1-outside-1)"/>
<path d="M1180.44 74.0846C1181.31 74.6598 1182.33 75.1139 1183.48 75.4469C1184.63 75.7799 1185.93 75.9464 1187.38 75.9464C1189.29 75.9464 1190.79 75.3864 1191.88 74.2662C1192.97 73.1461 1193.73 71.7384 1194.15 70.0431L1170.49 20.0011H1186.2L1201.37 55.8751L1214.67 20.0011H1229.66L1208.36 69.2711C1205.58 75.7799 1202.63 80.6085 1199.51 83.757C1196.39 86.8751 1192.91 88.4342 1189.06 88.4342C1187.85 88.4342 1186.79 88.3737 1185.88 88.2526C1185.01 88.1315 1184.23 87.9801 1183.57 87.7985C1182.93 87.6168 1182.36 87.4352 1181.84 87.2535C1181.36 87.0719 1180.89 86.9054 1180.44 86.754V74.0846Z" stroke="black" stroke-width="4" mask="url(#path-1-outside-1)"/>
<path d="M1303.86 31.4899H1284.29L1284.33 41.5709C1284.36 47.6559 1284.23 53.0294 1283.93 57.6915C1283.65 62.3234 1283.2 66.3649 1282.56 69.816C1281.96 73.2369 1281.17 76.1129 1280.2 78.444C1279.26 80.775 1278.14 82.652 1276.84 84.0748C1275.54 85.4674 1274.06 86.4664 1272.39 87.0719C1270.73 87.6774 1268.89 87.9801 1266.9 87.9801C1265.26 87.9801 1263.81 87.8741 1262.54 87.6622C1261.3 87.4806 1260.05 87.1324 1258.81 86.6178L1258.77 73.8575C1259.19 74.0695 1259.63 74.2511 1260.08 74.4025C1260.57 74.5236 1261.04 74.6295 1261.49 74.7203C1261.95 74.7809 1262.36 74.8263 1262.72 74.8566C1263.11 74.8868 1263.42 74.902 1263.63 74.902C1264.44 74.902 1265.2 74.796 1265.9 74.5841C1266.62 74.3419 1267.26 73.8424 1267.8 73.0856C1268.38 72.3287 1268.88 71.2389 1269.3 69.816C1269.73 68.3932 1270.08 66.5011 1270.35 64.1398C1270.65 61.7784 1270.86 58.8571 1270.98 55.3756C1271.13 51.8942 1271.21 47.7316 1271.21 42.8878V20.0011H1317.8V86.754H1303.86V31.4899Z" stroke="black" stroke-width="4" mask="url(#path-1-outside-1)"/>
<path d="M1330.83 20.0011H1379.83V31.4899H1344.23V46.2936H1376.97V57.8278H1344.23V74.6749H1381.42V86.754H1330.83V20.0011Z" stroke="black" stroke-width="4" mask="url(#path-1-outside-1)"/>
<path d="M1386.37 75.2198H1392.23C1392.92 73.3429 1393.61 71.4205 1394.27 69.4528C1394.97 67.485 1395.62 65.3507 1396.22 63.0499C1396.83 60.7491 1397.38 58.2213 1397.86 55.4664C1398.37 52.7115 1398.83 49.6085 1399.22 46.1573C1399.62 42.6759 1399.93 38.8009 1400.18 34.5323C1400.42 30.2335 1400.58 25.3898 1400.67 20.0011H1446.13V75.2198H1452.62V101.058H1440.54V86.754H1398.45V101.058H1386.37V75.2198ZM1432.19 31.4899H1412.94C1412.91 32.7008 1412.86 34.2448 1412.8 36.1217C1412.77 37.9987 1412.68 40.1027 1412.53 42.4337C1412.38 44.7345 1412.15 47.2321 1411.85 49.9264C1411.57 52.5905 1411.19 55.3453 1410.71 58.191C1410.23 61.0065 1409.61 63.8673 1408.85 66.7736C1408.12 69.6495 1407.23 72.465 1406.17 75.2198H1432.19V31.4899Z" stroke="black" stroke-width="4" mask="url(#path-1-outside-1)"/>
<path d="M1460.3 20.0011H1474.28V45.3854H1500.49V20.0011H1514.43V86.754H1500.49V56.9196H1474.28V86.754H1460.3V20.0011Z" stroke="black" stroke-width="4" mask="url(#path-1-outside-1)"/>
<path d="M1527.51 20.0011H1540.9V65.4567H1541.08L1567.51 20.0011H1581.63V86.754H1568.24V41.5709H1568.06L1541.67 86.754H1527.51V20.0011Z" stroke="black" stroke-width="4" mask="url(#path-1-outside-1)"/>
<path d="M1596.3 20.0011H1610.24V47.1564L1635.76 20.0011H1653.79L1626.54 47.338L1655.38 86.754H1637.72L1617.05 57.192L1610.24 64.1398V86.754H1596.3V20.0011Z" stroke="black" stroke-width="4" mask="url(#path-1-outside-1)"/>
<path d="M1661.92 20.0011H1675.32V65.4567H1675.5L1701.93 20.0011H1716.05V86.754H1702.65V41.5709H1702.47L1676.09 86.754H1661.92V20.0011Z" stroke="black" stroke-width="4" mask="url(#path-1-outside-1)"/>
<path d="M1749.65 20.0011H1804.33V31.4899H1783.94V86.754H1770V31.4899H1749.65V20.0011Z" stroke="black" stroke-width="4" mask="url(#path-1-outside-1)"/>
<path d="M1831.21 20.0011H1847.15L1870.76 86.754H1855.59L1851.33 72.9948H1826.67L1822.04 86.754H1807.32L1831.21 20.0011ZM1830.39 61.4606H1847.42L1839.11 35.0319H1838.93L1830.39 61.4606Z" stroke="black" stroke-width="4" mask="url(#path-1-outside-1)"/>
<path d="M1879.16 20.0011H1892.56V47.8829H1901.23C1901.44 45.3702 1901.91 42.8878 1902.64 40.4357C1903.37 37.9835 1904.32 35.6676 1905.5 33.4879C1906.71 31.278 1908.15 29.2496 1909.81 27.403C1911.51 25.5563 1913.42 23.9669 1915.54 22.6349C1917.68 21.2726 1920.05 20.213 1922.62 19.4562C1925.22 18.6993 1928.04 18.3209 1931.07 18.3209C1933.09 18.3209 1935.26 18.5328 1937.56 18.9567C1939.89 19.3502 1942.18 20.0616 1944.42 21.0909C1946.69 22.09 1948.85 23.4371 1950.91 25.1324C1953 26.8278 1954.83 28.962 1956.4 31.5353C1957.98 34.0782 1959.23 37.1056 1960.17 40.6173C1961.11 44.0988 1961.58 48.1554 1961.58 52.7872C1961.58 58.2667 1960.85 63.2013 1959.4 67.5909C1957.95 71.9806 1955.87 75.7194 1953.18 78.8073C1950.52 81.8951 1947.31 84.2716 1943.55 85.9366C1939.8 87.6017 1935.64 88.4342 1931.07 88.4342C1926.22 88.4342 1922.01 87.6471 1918.44 86.0729C1914.9 84.4987 1911.92 82.3644 1909.5 79.67C1907.1 76.9454 1905.23 73.797 1903.86 70.2247C1902.53 66.6525 1901.65 62.8683 1901.23 58.8722H1892.56V86.754H1879.16V20.0011ZM1914.63 53.2867C1914.63 57.2526 1915.02 60.6886 1915.81 63.5948C1916.59 66.5011 1917.7 68.9078 1919.12 70.8151C1920.58 72.692 1922.32 74.0846 1924.34 74.9928C1926.37 75.901 1928.61 76.3551 1931.07 76.3551C1933.55 76.3551 1935.8 75.901 1937.83 74.9928C1939.89 74.0846 1941.65 72.692 1943.1 70.8151C1944.55 68.9078 1945.67 66.5011 1946.46 63.5948C1947.25 60.6886 1947.64 57.2526 1947.64 53.2867C1947.64 49.3512 1947.25 45.9454 1946.46 43.0695C1945.67 40.1935 1944.55 37.817 1943.1 35.9401C1941.65 34.0631 1939.89 32.6705 1937.83 31.7623C1935.8 30.8541 1933.55 30.4 1931.07 30.4C1928.61 30.4 1926.37 30.8541 1924.34 31.7623C1922.32 32.6705 1920.58 34.0631 1919.12 35.9401C1917.7 37.817 1916.59 40.1935 1915.81 43.0695C1915.02 45.9454 1914.63 49.3512 1914.63 53.2867Z" stroke="black" stroke-width="4" mask="url(#path-1-outside-1)"/>
<path d="M1966.8 20.0011H2021.48V31.4899H2001.09V86.754H1987.15V31.4899H1966.8V20.0011Z" stroke="black" stroke-width="4" mask="url(#path-1-outside-1)"/>
<path d="M2044.77 73.6305H2058.3V86.754H2044.77V73.6305ZM2028.2 40.9352C2028.56 32.3073 2031.57 26.192 2037.23 22.5895C2040.81 20.2887 2045.2 19.1383 2050.4 19.1383C2057.25 19.1383 2062.92 20.7731 2067.43 24.0426C2071.97 27.3121 2074.24 32.1559 2074.24 38.5739C2074.24 42.5094 2073.26 45.8243 2071.29 48.5187C2070.14 50.1534 2067.93 52.2423 2064.66 54.7853L2061.44 57.2828C2059.68 58.6451 2058.52 60.2345 2057.94 62.0509C2057.58 63.2013 2057.38 64.9874 2057.35 67.4093H2045.09C2045.27 62.2931 2045.76 58.7662 2046.54 56.8287C2047.33 54.861 2049.36 52.6056 2052.63 50.0626L2055.94 47.4742C2057.03 46.6569 2057.91 45.7638 2058.58 44.795C2059.79 43.13 2060.39 41.2985 2060.39 39.3004C2060.39 36.9996 2059.71 34.9108 2058.35 33.0338C2057.02 31.1266 2054.57 30.173 2050.99 30.173C2047.48 30.173 2044.98 31.3385 2043.5 33.6696C2042.05 36.0006 2041.32 38.4225 2041.32 40.9352H2028.2Z" stroke="black" stroke-width="4" mask="url(#path-1-outside-1)"/>
<path d="M2115.11 66.5919L2099.58 79.8971V69.0895L2108.85 61.1881L2099.58 53.2413V42.4337L2115.11 55.7843V66.5919ZM2095 66.5919L2079.47 79.8971V69.0895L2088.73 61.1881L2079.47 53.2413V42.4337L2095 55.7843V66.5919Z" stroke="black" stroke-width="4" mask="url(#path-1-outside-1)"/>
</svg>
